G75*
%MOIN*%
%OFA0B0*%
%FSLAX25Y25*%
%IPPOS*%
%LPD*%
%AMOC8*
5,1,8,0,0,1.08239X$1,22.5*
%
%ADD10C,0.00600*%
%ADD11C,0.00900*%
%ADD12R,0.00472X0.00236*%
%ADD13R,0.00945X0.00236*%
%ADD14R,0.00709X0.00236*%
%ADD15R,0.01181X0.00236*%
%ADD16R,0.02598X0.00236*%
%ADD17R,0.01654X0.00236*%
%ADD18R,0.03071X0.00236*%
%ADD19R,0.03780X0.00236*%
%ADD20R,0.05906X0.00236*%
%ADD21R,0.06378X0.00236*%
%ADD22R,0.01417X0.00236*%
%ADD23R,0.03543X0.00236*%
%ADD24R,0.02362X0.00236*%
%ADD25R,0.01890X0.00236*%
%ADD26R,0.00236X0.00236*%
%ADD27R,0.04016X0.00236*%
%ADD28R,0.05669X0.00236*%
%ADD29R,0.02835X0.00236*%
%ADD30R,0.02126X0.00236*%
%ADD31R,0.03307X0.00236*%
%ADD32R,0.04252X0.00236*%
%ADD33R,0.06142X0.00236*%
%ADD34R,0.04488X0.00236*%
%ADD35R,0.04724X0.00236*%
%ADD36R,0.06614X0.00236*%
%ADD37R,0.05433X0.00236*%
%ADD38R,0.13228X0.00236*%
%ADD39R,0.12992X0.00236*%
%ADD40R,0.12283X0.00236*%
%ADD41R,0.09921X0.00236*%
%ADD42R,0.07323X0.00236*%
%ADD43R,0.07559X0.00236*%
%ADD44R,0.04961X0.00236*%
%ADD45R,0.10157X0.00236*%
%ADD46R,0.16299X0.00236*%
%ADD47R,0.08976X0.00236*%
%ADD48R,0.08268X0.00236*%
%ADD49R,0.08031X0.00236*%
%ADD50R,0.06850X0.00236*%
%ADD51R,0.05197X0.00236*%
%ADD52R,0.14882X0.00236*%
%ADD53R,0.21260X0.00236*%
%ADD54R,0.24803X0.00236*%
%ADD55R,0.12756X0.00236*%
%ADD56R,0.11339X0.00236*%
%ADD57R,0.09213X0.00236*%
%ADD58R,0.07087X0.00236*%
%ADD59R,0.08504X0.00236*%
%ADD60R,0.07795X0.00236*%
%ADD61R,0.09449X0.00236*%
%ADD62R,0.08740X0.00236*%
%ADD63R,0.09685X0.00236*%
%ADD64C,0.00300*%
D10*
X0198150Y0074872D02*
X0199218Y0073804D01*
X0201353Y0073804D01*
X0202421Y0074872D01*
X0204596Y0075939D02*
X0206731Y0078074D01*
X0207799Y0078074D01*
X0209967Y0077007D02*
X0211035Y0078074D01*
X0213170Y0078074D01*
X0214237Y0077007D01*
X0214237Y0075939D01*
X0209967Y0075939D01*
X0209967Y0074872D02*
X0209967Y0077007D01*
X0209967Y0074872D02*
X0211035Y0073804D01*
X0213170Y0073804D01*
X0216413Y0074872D02*
X0217480Y0075939D01*
X0220683Y0075939D01*
X0220683Y0077007D02*
X0220683Y0073804D01*
X0217480Y0073804D01*
X0216413Y0074872D01*
X0217480Y0078074D02*
X0219615Y0078074D01*
X0220683Y0077007D01*
X0222858Y0078074D02*
X0224993Y0078074D01*
X0223926Y0079142D02*
X0223926Y0074872D01*
X0224993Y0073804D01*
X0227155Y0074872D02*
X0227155Y0077007D01*
X0228223Y0078074D01*
X0230358Y0078074D01*
X0231425Y0077007D01*
X0231425Y0075939D01*
X0227155Y0075939D01*
X0227155Y0074872D02*
X0228223Y0073804D01*
X0230358Y0073804D01*
X0233601Y0074872D02*
X0233601Y0077007D01*
X0234668Y0078074D01*
X0237871Y0078074D01*
X0237871Y0080209D02*
X0237871Y0073804D01*
X0234668Y0073804D01*
X0233601Y0074872D01*
X0246492Y0073804D02*
X0246492Y0080209D01*
X0246492Y0078074D02*
X0249694Y0078074D01*
X0250762Y0077007D01*
X0250762Y0074872D01*
X0249694Y0073804D01*
X0246492Y0073804D01*
X0252937Y0074872D02*
X0254005Y0073804D01*
X0257207Y0073804D01*
X0257207Y0072736D02*
X0257207Y0078074D01*
X0252937Y0078074D02*
X0252937Y0074872D01*
X0255072Y0071669D02*
X0256140Y0071669D01*
X0257207Y0072736D01*
X0265828Y0073804D02*
X0267963Y0075939D01*
X0270098Y0073804D01*
X0270098Y0080209D01*
X0272274Y0078074D02*
X0273341Y0078074D01*
X0273341Y0073804D01*
X0272274Y0073804D02*
X0274409Y0073804D01*
X0276571Y0074872D02*
X0276571Y0077007D01*
X0277638Y0078074D01*
X0279773Y0078074D01*
X0280841Y0077007D01*
X0280841Y0075939D01*
X0276571Y0075939D01*
X0276571Y0074872D02*
X0277638Y0073804D01*
X0279773Y0073804D01*
X0283016Y0073804D02*
X0283016Y0078074D01*
X0283016Y0075939D02*
X0285151Y0078074D01*
X0286219Y0078074D01*
X0288387Y0078074D02*
X0292658Y0078074D01*
X0288387Y0073804D01*
X0292658Y0073804D01*
X0294833Y0073804D02*
X0298036Y0073804D01*
X0299103Y0074872D01*
X0299103Y0077007D01*
X0298036Y0078074D01*
X0294833Y0078074D01*
X0294833Y0080209D02*
X0294833Y0073804D01*
X0301278Y0074872D02*
X0302346Y0073804D01*
X0304481Y0073804D01*
X0305549Y0074872D01*
X0305549Y0077007D01*
X0304481Y0078074D01*
X0302346Y0078074D01*
X0301278Y0077007D01*
X0301278Y0074872D01*
X0307724Y0074872D02*
X0308791Y0073804D01*
X0309859Y0074872D01*
X0310927Y0073804D01*
X0311994Y0074872D01*
X0311994Y0078074D01*
X0314169Y0077007D02*
X0315237Y0078074D01*
X0318440Y0078074D01*
X0317372Y0075939D02*
X0315237Y0075939D01*
X0314169Y0077007D01*
X0314169Y0073804D02*
X0317372Y0073804D01*
X0318440Y0074872D01*
X0317372Y0075939D01*
X0320615Y0075939D02*
X0323818Y0078074D01*
X0325986Y0078074D02*
X0325986Y0074872D01*
X0327054Y0073804D01*
X0330256Y0073804D01*
X0330256Y0072736D02*
X0330256Y0078074D01*
X0330256Y0072736D02*
X0329189Y0071669D01*
X0328121Y0071669D01*
X0323818Y0073804D02*
X0320615Y0075939D01*
X0320615Y0073804D02*
X0320615Y0080209D01*
X0307724Y0078074D02*
X0307724Y0074872D01*
X0338877Y0073804D02*
X0338877Y0080209D01*
X0341012Y0080209D01*
X0343174Y0080209D02*
X0343174Y0073804D01*
X0343174Y0075939D02*
X0346377Y0075939D01*
X0347444Y0077007D01*
X0347444Y0079142D01*
X0346377Y0080209D01*
X0343174Y0080209D01*
X0345309Y0075939D02*
X0347444Y0073804D01*
X0349620Y0073804D02*
X0352822Y0073804D01*
X0353890Y0074872D01*
X0353890Y0075939D01*
X0352822Y0077007D01*
X0349620Y0077007D01*
X0352822Y0077007D02*
X0353890Y0078074D01*
X0353890Y0079142D01*
X0352822Y0080209D01*
X0349620Y0080209D01*
X0349620Y0073804D01*
X0356065Y0074872D02*
X0357133Y0073804D01*
X0359268Y0073804D01*
X0360335Y0074872D01*
X0360335Y0075939D01*
X0359268Y0077007D01*
X0357133Y0077007D01*
X0356065Y0078074D01*
X0356065Y0079142D01*
X0357133Y0080209D01*
X0359268Y0080209D01*
X0360335Y0079142D01*
X0362511Y0079142D02*
X0363578Y0080209D01*
X0365713Y0080209D01*
X0366781Y0079142D01*
X0368956Y0080209D02*
X0371091Y0080209D01*
X0371091Y0073804D01*
X0368956Y0073804D01*
X0366781Y0074872D02*
X0365713Y0073804D01*
X0363578Y0073804D01*
X0362511Y0074872D01*
X0362511Y0079142D01*
X0373253Y0074872D02*
X0374321Y0074872D01*
X0374321Y0073804D01*
X0373253Y0073804D01*
X0373253Y0074872D01*
X0382921Y0074872D02*
X0383989Y0073804D01*
X0386124Y0073804D01*
X0387192Y0074872D01*
X0389367Y0074872D02*
X0390434Y0073804D01*
X0392570Y0073804D01*
X0393637Y0074872D01*
X0393637Y0077007D01*
X0392570Y0078074D01*
X0390434Y0078074D01*
X0389367Y0077007D01*
X0389367Y0074872D01*
X0387192Y0079142D02*
X0386124Y0080209D01*
X0383989Y0080209D01*
X0382921Y0079142D01*
X0382921Y0074872D01*
X0395812Y0073804D02*
X0399015Y0073804D01*
X0400083Y0074872D01*
X0400083Y0077007D01*
X0399015Y0078074D01*
X0395812Y0078074D01*
X0395812Y0071669D01*
X0402258Y0074872D02*
X0403325Y0073804D01*
X0406528Y0073804D01*
X0406528Y0072736D02*
X0406528Y0078074D01*
X0408703Y0078074D02*
X0408703Y0073804D01*
X0408703Y0075939D02*
X0410838Y0078074D01*
X0411906Y0078074D01*
X0414075Y0078074D02*
X0415142Y0078074D01*
X0415142Y0073804D01*
X0414075Y0073804D02*
X0416210Y0073804D01*
X0418372Y0074872D02*
X0419439Y0073804D01*
X0422642Y0073804D01*
X0422642Y0072736D02*
X0422642Y0078074D01*
X0419439Y0078074D01*
X0418372Y0077007D01*
X0418372Y0074872D01*
X0420507Y0071669D02*
X0421574Y0071669D01*
X0422642Y0072736D01*
X0424817Y0073804D02*
X0424817Y0080209D01*
X0425885Y0078074D02*
X0428020Y0078074D01*
X0429087Y0077007D01*
X0429087Y0073804D01*
X0432330Y0074872D02*
X0433398Y0073804D01*
X0432330Y0074872D02*
X0432330Y0079142D01*
X0431263Y0078074D02*
X0433398Y0078074D01*
X0425885Y0078074D02*
X0424817Y0077007D01*
X0415142Y0080209D02*
X0415142Y0081277D01*
X0402258Y0078074D02*
X0402258Y0074872D01*
X0404393Y0071669D02*
X0405461Y0071669D01*
X0406528Y0072736D01*
X0442005Y0075939D02*
X0442005Y0078074D01*
X0444140Y0080209D01*
X0446302Y0079142D02*
X0446302Y0074872D01*
X0447370Y0073804D01*
X0449505Y0073804D01*
X0450572Y0074872D01*
X0452748Y0073804D02*
X0454883Y0075939D01*
X0454883Y0078074D01*
X0452748Y0080209D01*
X0450572Y0079142D02*
X0449505Y0080209D01*
X0447370Y0080209D01*
X0446302Y0079142D01*
X0442005Y0075939D02*
X0444140Y0073804D01*
X0463490Y0073804D02*
X0467760Y0078074D01*
X0467760Y0079142D01*
X0466693Y0080209D01*
X0464558Y0080209D01*
X0463490Y0079142D01*
X0463490Y0073804D02*
X0467760Y0073804D01*
X0469936Y0074872D02*
X0474206Y0079142D01*
X0474206Y0074872D01*
X0473138Y0073804D01*
X0471003Y0073804D01*
X0469936Y0074872D01*
X0469936Y0079142D01*
X0471003Y0080209D01*
X0473138Y0080209D01*
X0474206Y0079142D01*
X0476381Y0078074D02*
X0478516Y0080209D01*
X0478516Y0073804D01*
X0476381Y0073804D02*
X0480651Y0073804D01*
X0482827Y0074872D02*
X0483894Y0073804D01*
X0486029Y0073804D01*
X0487097Y0074872D01*
X0487097Y0075939D01*
X0486029Y0077007D01*
X0482827Y0077007D01*
X0482827Y0074872D01*
X0482827Y0077007D02*
X0484962Y0079142D01*
X0487097Y0080209D01*
X0576182Y0096919D02*
X0577249Y0095851D01*
X0579385Y0095851D01*
X0580452Y0096919D01*
X0580452Y0099054D01*
X0578317Y0099054D01*
X0576182Y0101189D02*
X0576182Y0096919D01*
X0576182Y0101189D02*
X0577249Y0102257D01*
X0579385Y0102257D01*
X0580452Y0101189D01*
X0582627Y0102257D02*
X0586898Y0095851D01*
X0586898Y0102257D01*
X0589073Y0102257D02*
X0592276Y0102257D01*
X0593343Y0101189D01*
X0593343Y0096919D01*
X0592276Y0095851D01*
X0589073Y0095851D01*
X0589073Y0102257D01*
X0582627Y0102257D02*
X0582627Y0095851D01*
X0612717Y0077541D02*
X0616357Y0077541D01*
X0617571Y0076327D01*
X0617571Y0075114D01*
X0616357Y0073901D01*
X0612717Y0073901D01*
X0612717Y0070261D02*
X0612717Y0077541D01*
X0616357Y0073901D02*
X0617571Y0072687D01*
X0617571Y0071474D01*
X0616357Y0070261D01*
X0612717Y0070261D01*
X0591208Y0117505D02*
X0593343Y0119640D01*
X0593343Y0123910D01*
X0589073Y0123910D02*
X0589073Y0119640D01*
X0591208Y0117505D01*
X0586898Y0118572D02*
X0586898Y0120707D01*
X0585830Y0121775D01*
X0584763Y0121775D01*
X0582627Y0120707D01*
X0582627Y0123910D01*
X0586898Y0123910D01*
X0586898Y0118572D02*
X0585830Y0117505D01*
X0583695Y0117505D01*
X0582627Y0118572D01*
X0580452Y0120707D02*
X0576182Y0120707D01*
X0578317Y0118572D02*
X0578317Y0122843D01*
X0341012Y0073804D02*
X0338877Y0073804D01*
X0273341Y0080209D02*
X0273341Y0081277D01*
X0265828Y0080209D02*
X0265828Y0073804D01*
X0204596Y0073804D02*
X0204596Y0078074D01*
X0202421Y0079142D02*
X0201353Y0080209D01*
X0199218Y0080209D01*
X0198150Y0079142D01*
X0198150Y0074872D01*
X0920985Y0087076D02*
X0922053Y0086009D01*
X0924188Y0086009D01*
X0925255Y0087076D01*
X0925255Y0089211D01*
X0923120Y0089211D01*
X0920985Y0087076D02*
X0920985Y0091347D01*
X0922053Y0092414D01*
X0924188Y0092414D01*
X0925255Y0091347D01*
X0927431Y0092414D02*
X0931701Y0086009D01*
X0931701Y0092414D01*
X0933876Y0092414D02*
X0933876Y0086009D01*
X0937079Y0086009D01*
X0938146Y0087076D01*
X0938146Y0091347D01*
X0937079Y0092414D01*
X0933876Y0092414D01*
X0927431Y0092414D02*
X0927431Y0086009D01*
X0925019Y0077541D02*
X0921379Y0077541D01*
X0921379Y0070261D01*
X0925019Y0070261D01*
X0926232Y0071474D01*
X0926232Y0072687D01*
X0925019Y0073901D01*
X0921379Y0073901D01*
X0925019Y0073901D02*
X0926232Y0075114D01*
X0926232Y0076327D01*
X0925019Y0077541D01*
X0928498Y0107662D02*
X0927431Y0108730D01*
X0928498Y0107662D02*
X0930633Y0107662D01*
X0931701Y0108730D01*
X0931701Y0110865D01*
X0930633Y0111933D01*
X0929566Y0111933D01*
X0927431Y0110865D01*
X0927431Y0114068D01*
X0931701Y0114068D01*
X0933876Y0114068D02*
X0933876Y0109797D01*
X0936011Y0107662D01*
X0938146Y0109797D01*
X0938146Y0114068D01*
X0925255Y0110865D02*
X0920985Y0110865D01*
X0923120Y0113000D02*
X0923120Y0108730D01*
X0517827Y0554513D02*
X0515692Y0554513D01*
X0514625Y0555580D01*
X0518895Y0559850D01*
X0518895Y0555580D01*
X0517827Y0554513D01*
X0514625Y0555580D02*
X0514625Y0559850D01*
X0515692Y0560918D01*
X0517827Y0560918D01*
X0518895Y0559850D01*
X0512470Y0555580D02*
X0512470Y0554513D01*
X0511402Y0554513D01*
X0511402Y0555580D01*
X0512470Y0555580D01*
X0509227Y0554513D02*
X0504956Y0554513D01*
X0507092Y0554513D02*
X0507092Y0560918D01*
X0504956Y0558783D01*
X0496336Y0557715D02*
X0496336Y0554513D01*
X0496336Y0557715D02*
X0495268Y0558783D01*
X0492066Y0558783D01*
X0492066Y0554513D01*
X0489890Y0555580D02*
X0489890Y0557715D01*
X0488823Y0558783D01*
X0486688Y0558783D01*
X0485620Y0557715D01*
X0485620Y0555580D01*
X0486688Y0554513D01*
X0488823Y0554513D01*
X0489890Y0555580D01*
X0483458Y0554513D02*
X0481323Y0554513D01*
X0482391Y0554513D02*
X0482391Y0558783D01*
X0481323Y0558783D01*
X0479148Y0558783D02*
X0475945Y0558783D01*
X0474878Y0557715D01*
X0475945Y0556648D01*
X0478080Y0556648D01*
X0479148Y0555580D01*
X0478080Y0554513D01*
X0474878Y0554513D01*
X0472709Y0558783D02*
X0471641Y0558783D01*
X0469506Y0556648D01*
X0469506Y0554513D02*
X0469506Y0558783D01*
X0467331Y0557715D02*
X0467331Y0556648D01*
X0463061Y0556648D01*
X0463061Y0557715D02*
X0464128Y0558783D01*
X0466263Y0558783D01*
X0467331Y0557715D01*
X0466263Y0554513D02*
X0464128Y0554513D01*
X0463061Y0555580D01*
X0463061Y0557715D01*
X0460886Y0556648D02*
X0460886Y0560918D01*
X0460886Y0556648D02*
X0458750Y0554513D01*
X0456615Y0556648D01*
X0456615Y0560918D01*
X0447995Y0560918D02*
X0447995Y0554513D01*
X0444792Y0554513D01*
X0443724Y0555580D01*
X0443724Y0557715D01*
X0444792Y0558783D01*
X0447995Y0558783D01*
X0441556Y0558783D02*
X0440488Y0558783D01*
X0438353Y0556648D01*
X0438353Y0554513D02*
X0438353Y0558783D01*
X0436178Y0557715D02*
X0436178Y0554513D01*
X0432975Y0554513D01*
X0431908Y0555580D01*
X0432975Y0556648D01*
X0436178Y0556648D01*
X0436178Y0557715D02*
X0435110Y0558783D01*
X0432975Y0558783D01*
X0429732Y0557715D02*
X0428665Y0558783D01*
X0426530Y0558783D01*
X0425462Y0557715D01*
X0425462Y0555580D01*
X0426530Y0554513D01*
X0428665Y0554513D01*
X0429732Y0555580D01*
X0429732Y0557715D01*
X0423287Y0556648D02*
X0423287Y0555580D01*
X0422219Y0554513D01*
X0419017Y0554513D01*
X0419017Y0560918D01*
X0422219Y0560918D01*
X0423287Y0559850D01*
X0423287Y0558783D01*
X0422219Y0557715D01*
X0419017Y0557715D01*
X0422219Y0557715D02*
X0423287Y0556648D01*
X0482391Y0560918D02*
X0482391Y0561986D01*
D11*
X0074678Y0110859D02*
X0074678Y0099938D01*
X0074678Y0103578D02*
X0080139Y0103578D01*
X0081959Y0105398D01*
X0081959Y0109038D01*
X0080139Y0110859D01*
X0074678Y0110859D01*
X0085554Y0107218D02*
X0085554Y0099938D01*
X0085554Y0103578D02*
X0089194Y0107218D01*
X0091014Y0107218D01*
X0094617Y0105398D02*
X0094617Y0101758D01*
X0096437Y0099938D01*
X0100077Y0099938D01*
X0101897Y0101758D01*
X0101897Y0105398D01*
X0100077Y0107218D01*
X0096437Y0107218D01*
X0094617Y0105398D01*
X0105492Y0107218D02*
X0109132Y0107218D01*
X0107312Y0109038D02*
X0107312Y0101758D01*
X0109132Y0099938D01*
X0112742Y0101758D02*
X0114562Y0099938D01*
X0118203Y0099938D01*
X0120023Y0101758D01*
X0120023Y0105398D01*
X0118203Y0107218D01*
X0114562Y0107218D01*
X0112742Y0105398D01*
X0112742Y0101758D01*
X0123618Y0107218D02*
X0127258Y0107218D01*
X0125438Y0109038D02*
X0125438Y0101758D01*
X0127258Y0099938D01*
X0130868Y0101758D02*
X0132688Y0099938D01*
X0138148Y0099938D01*
X0138148Y0098118D02*
X0136328Y0096298D01*
X0134508Y0096298D01*
X0138148Y0098118D02*
X0138148Y0107218D01*
X0141743Y0107218D02*
X0147204Y0107218D01*
X0149024Y0105398D01*
X0149024Y0101758D01*
X0147204Y0099938D01*
X0141743Y0099938D01*
X0141743Y0096298D02*
X0141743Y0107218D01*
X0130868Y0107218D02*
X0130868Y0101758D01*
X0152619Y0099938D02*
X0156259Y0099938D01*
X0154439Y0099938D02*
X0154439Y0107218D01*
X0152619Y0107218D01*
X0154439Y0110859D02*
X0154439Y0112679D01*
X0159869Y0107218D02*
X0165329Y0107218D01*
X0167149Y0105398D01*
X0167149Y0099938D01*
X0170745Y0101758D02*
X0172565Y0099938D01*
X0178025Y0099938D01*
X0178025Y0098118D02*
X0178025Y0107218D01*
X0172565Y0107218D01*
X0170745Y0105398D01*
X0170745Y0101758D01*
X0174385Y0096298D02*
X0176205Y0096298D01*
X0178025Y0098118D01*
X0159869Y0099938D02*
X0159869Y0107218D01*
X0287277Y0105398D02*
X0292737Y0105398D01*
X0294557Y0103578D01*
X0294557Y0101758D01*
X0292737Y0099938D01*
X0287277Y0099938D01*
X0287277Y0110859D01*
X0292737Y0110859D01*
X0294557Y0109038D01*
X0294557Y0107218D01*
X0292737Y0105398D01*
X0298152Y0103578D02*
X0301792Y0107218D01*
X0303612Y0107218D01*
X0307215Y0105398D02*
X0307215Y0101758D01*
X0309035Y0099938D01*
X0312675Y0099938D01*
X0314495Y0103578D02*
X0307215Y0103578D01*
X0307215Y0105398D02*
X0309035Y0107218D01*
X0312675Y0107218D01*
X0314495Y0105398D01*
X0314495Y0103578D01*
X0318090Y0101758D02*
X0319911Y0103578D01*
X0325371Y0103578D01*
X0325371Y0105398D02*
X0325371Y0099938D01*
X0319911Y0099938D01*
X0318090Y0101758D01*
X0319911Y0107218D02*
X0323551Y0107218D01*
X0325371Y0105398D01*
X0328966Y0105398D02*
X0330786Y0107218D01*
X0336246Y0107218D01*
X0339841Y0107218D02*
X0345302Y0107218D01*
X0347122Y0105398D01*
X0347122Y0101758D01*
X0345302Y0099938D01*
X0339841Y0099938D01*
X0339841Y0110859D01*
X0336246Y0110859D02*
X0336246Y0099938D01*
X0330786Y0099938D01*
X0328966Y0101758D01*
X0328966Y0105398D01*
X0350717Y0105398D02*
X0350717Y0101758D01*
X0352537Y0099938D01*
X0356177Y0099938D01*
X0357997Y0101758D01*
X0357997Y0105398D01*
X0356177Y0107218D01*
X0352537Y0107218D01*
X0350717Y0105398D01*
X0361592Y0101758D02*
X0363412Y0103578D01*
X0368872Y0103578D01*
X0368872Y0105398D02*
X0368872Y0099938D01*
X0363412Y0099938D01*
X0361592Y0101758D01*
X0363412Y0107218D02*
X0367052Y0107218D01*
X0368872Y0105398D01*
X0372468Y0103578D02*
X0376108Y0107218D01*
X0377928Y0107218D01*
X0381530Y0105398D02*
X0381530Y0101758D01*
X0383351Y0099938D01*
X0388811Y0099938D01*
X0388811Y0110859D01*
X0388811Y0107218D02*
X0383351Y0107218D01*
X0381530Y0105398D01*
X0372468Y0107218D02*
X0372468Y0099938D01*
X0298152Y0099938D02*
X0298152Y0107218D01*
X0493970Y0107218D02*
X0493970Y0099938D01*
X0493970Y0105398D02*
X0501250Y0105398D01*
X0501250Y0107218D02*
X0501250Y0099938D01*
X0504845Y0101758D02*
X0506665Y0099938D01*
X0510305Y0099938D01*
X0512125Y0101758D01*
X0512125Y0105398D01*
X0508485Y0105398D01*
X0504845Y0109038D02*
X0504845Y0101758D01*
X0501250Y0107218D02*
X0497610Y0110859D01*
X0493970Y0107218D01*
X0504845Y0109038D02*
X0506665Y0110859D01*
X0510305Y0110859D01*
X0512125Y0109038D01*
X0515721Y0107218D02*
X0519361Y0110859D01*
X0523001Y0107218D01*
X0523001Y0099938D01*
X0523001Y0105398D02*
X0515721Y0105398D01*
X0515721Y0107218D02*
X0515721Y0099938D01*
X0530236Y0099938D02*
X0530236Y0110859D01*
X0526596Y0110859D02*
X0533876Y0110859D01*
D12*
X0916551Y0495866D03*
X0917969Y0497520D03*
X0921039Y0497047D03*
X0924110Y0493268D03*
X0928126Y0494449D03*
X0929071Y0492559D03*
X0928126Y0497047D03*
X0926236Y0497520D03*
X0926236Y0497756D03*
X0924583Y0502244D03*
X0924583Y0502480D03*
X0923638Y0502480D03*
X0923402Y0502717D03*
X0923402Y0502953D03*
X0923165Y0503189D03*
X0923638Y0505551D03*
X0923402Y0505787D03*
X0920094Y0507205D03*
X0919858Y0507441D03*
X0919858Y0506969D03*
X0918205Y0501772D03*
X0913480Y0503898D03*
X0913244Y0506732D03*
X0910409Y0502244D03*
X0912772Y0500354D03*
X0907811Y0504606D03*
X0912535Y0513110D03*
X0924110Y0512402D03*
X0926709Y0508622D03*
X0926236Y0508150D03*
X0927890Y0509567D03*
X0929780Y0511693D03*
X0930488Y0512165D03*
X0930724Y0512402D03*
X0931197Y0513110D03*
X0931433Y0512874D03*
X0930488Y0517835D03*
X0932142Y0521614D03*
X0932142Y0521850D03*
X0933323Y0522087D03*
X0933323Y0522323D03*
X0933087Y0522795D03*
X0933087Y0523031D03*
X0933087Y0523268D03*
X0931669Y0523504D03*
X0929071Y0524449D03*
X0927181Y0526339D03*
X0927181Y0526811D03*
X0926945Y0527047D03*
X0926472Y0526339D03*
X0925764Y0525630D03*
X0926236Y0527520D03*
X0926945Y0531063D03*
X0931433Y0528465D03*
X0931669Y0528701D03*
X0932614Y0527992D03*
X0932614Y0527756D03*
X0932614Y0527520D03*
X0932614Y0527283D03*
X0932614Y0527047D03*
X0932614Y0526811D03*
X0932614Y0526575D03*
X0932614Y0526339D03*
X0934031Y0527047D03*
X0934031Y0527283D03*
X0934031Y0527520D03*
X0933795Y0528701D03*
X0934504Y0524921D03*
X0934504Y0524685D03*
X0934740Y0523504D03*
X0934740Y0523268D03*
X0924583Y0521850D03*
X0919386Y0526575D03*
X0917496Y0524449D03*
X0916079Y0526339D03*
X0914425Y0525157D03*
X0914425Y0524921D03*
X0927181Y0505787D03*
X0929071Y0505787D03*
X0930961Y0505787D03*
X0931197Y0506260D03*
X0931433Y0506732D03*
X0931433Y0506969D03*
X0931433Y0507441D03*
X0931433Y0507677D03*
X0930488Y0502953D03*
X0930252Y0502717D03*
X0930252Y0502480D03*
X0930252Y0502244D03*
X0930016Y0502008D03*
X0930016Y0501772D03*
X0930016Y0501299D03*
X0930016Y0501063D03*
X0930016Y0500827D03*
X0928835Y0502008D03*
X0928835Y0502244D03*
X0934031Y0502717D03*
X0936866Y0505079D03*
X0940409Y0505787D03*
X0940646Y0505551D03*
X0940173Y0506969D03*
X0939701Y0508858D03*
D13*
X0939701Y0508622D03*
X0939701Y0507913D03*
X0940409Y0506496D03*
X0940409Y0506024D03*
X0939937Y0509567D03*
X0939937Y0509803D03*
X0939465Y0510984D03*
X0938520Y0513346D03*
X0938520Y0513819D03*
X0938283Y0514528D03*
X0938047Y0515236D03*
X0937811Y0515709D03*
X0938047Y0515945D03*
X0938047Y0516417D03*
X0937811Y0517126D03*
X0937811Y0517362D03*
X0938047Y0517598D03*
X0938520Y0518071D03*
X0938756Y0518543D03*
X0938992Y0519016D03*
X0938992Y0519252D03*
X0938992Y0520669D03*
X0938992Y0520906D03*
X0938756Y0521614D03*
X0938756Y0521850D03*
X0937339Y0520906D03*
X0934976Y0520669D03*
X0931433Y0520669D03*
X0932850Y0524449D03*
X0932850Y0524685D03*
X0934268Y0525866D03*
X0933559Y0529646D03*
X0933323Y0530354D03*
X0933087Y0530591D03*
X0931669Y0528937D03*
X0929071Y0524921D03*
X0927181Y0524449D03*
X0926945Y0525630D03*
X0926945Y0526102D03*
X0926000Y0526575D03*
X0925764Y0526811D03*
X0926472Y0527283D03*
X0924819Y0529646D03*
X0926000Y0530827D03*
X0922220Y0529646D03*
X0919858Y0529409D03*
X0917496Y0527047D03*
X0916315Y0524685D03*
X0916315Y0524449D03*
X0916315Y0524213D03*
X0916315Y0523976D03*
X0914661Y0523976D03*
X0914661Y0523740D03*
X0914661Y0524213D03*
X0914425Y0525630D03*
X0914425Y0525866D03*
X0914425Y0526102D03*
X0914661Y0526811D03*
X0914661Y0527047D03*
X0914661Y0527756D03*
X0914661Y0527992D03*
X0914661Y0528228D03*
X0912063Y0520669D03*
X0910173Y0518543D03*
X0910173Y0518307D03*
X0909937Y0518780D03*
X0909701Y0519016D03*
X0909465Y0519252D03*
X0909465Y0519488D03*
X0910409Y0517835D03*
X0910646Y0516654D03*
X0910409Y0516417D03*
X0909701Y0515945D03*
X0909465Y0515709D03*
X0908992Y0515472D03*
X0908756Y0515000D03*
X0908992Y0514291D03*
X0908992Y0514055D03*
X0908992Y0513819D03*
X0908520Y0513583D03*
X0908283Y0513346D03*
X0908520Y0511929D03*
X0908283Y0511693D03*
X0908047Y0510512D03*
X0907811Y0510276D03*
X0908283Y0509331D03*
X0908047Y0508858D03*
X0908283Y0506969D03*
X0908047Y0506496D03*
X0908283Y0505315D03*
X0911118Y0499173D03*
X0919150Y0495630D03*
X0925528Y0493268D03*
X0929071Y0492795D03*
X0930488Y0495157D03*
X0933559Y0497047D03*
X0933559Y0497283D03*
X0929307Y0500118D03*
X0929071Y0499882D03*
X0928598Y0501299D03*
X0928835Y0501535D03*
X0928835Y0501772D03*
X0925764Y0502480D03*
X0925528Y0502717D03*
X0925291Y0502953D03*
X0924819Y0505787D03*
X0924583Y0506260D03*
X0922220Y0505551D03*
X0930724Y0505315D03*
X0930961Y0508622D03*
X0931669Y0512638D03*
X0934976Y0503425D03*
X0926236Y0497992D03*
X0911591Y0513110D03*
X0911591Y0513346D03*
X0912063Y0514055D03*
X0922693Y0517835D03*
X0924110Y0520669D03*
X0924819Y0523976D03*
X0922929Y0526575D03*
D14*
X0925882Y0527047D03*
X0921394Y0529173D03*
X0919504Y0527283D03*
X0914543Y0527283D03*
X0914543Y0527520D03*
X0914543Y0526575D03*
X0914543Y0526339D03*
X0914307Y0525394D03*
X0914543Y0524685D03*
X0914543Y0524449D03*
X0914307Y0522323D03*
X0912654Y0518071D03*
X0918559Y0510512D03*
X0919740Y0506732D03*
X0922339Y0505315D03*
X0924701Y0506024D03*
X0926591Y0508386D03*
X0927535Y0509094D03*
X0931315Y0508386D03*
X0931315Y0508150D03*
X0931315Y0507913D03*
X0931315Y0507205D03*
X0931315Y0506496D03*
X0931079Y0506024D03*
X0930843Y0505551D03*
X0934386Y0502953D03*
X0934622Y0503189D03*
X0929898Y0500591D03*
X0929661Y0500354D03*
X0928480Y0498465D03*
X0928244Y0497756D03*
X0928244Y0497520D03*
X0928244Y0497283D03*
X0926591Y0494921D03*
X0924701Y0494685D03*
X0925409Y0493031D03*
X0927772Y0493031D03*
X0924465Y0497992D03*
X0917850Y0502008D03*
X0916669Y0496102D03*
X0910291Y0502008D03*
X0908874Y0501063D03*
X0908165Y0505079D03*
X0908165Y0506732D03*
X0908402Y0509094D03*
X0921630Y0513110D03*
X0922339Y0520669D03*
X0922339Y0520906D03*
X0922339Y0522087D03*
X0932024Y0522087D03*
X0933205Y0522559D03*
X0932969Y0523504D03*
X0932969Y0523740D03*
X0932969Y0523976D03*
X0932969Y0524213D03*
X0932732Y0524921D03*
X0932732Y0525157D03*
X0932732Y0525394D03*
X0932496Y0525630D03*
X0932496Y0525866D03*
X0932496Y0526102D03*
X0934150Y0526102D03*
X0934150Y0526339D03*
X0934150Y0526575D03*
X0934150Y0526811D03*
X0933913Y0527756D03*
X0933913Y0527992D03*
X0933913Y0528228D03*
X0933913Y0528465D03*
X0933677Y0528937D03*
X0933677Y0529173D03*
X0933677Y0529409D03*
X0933441Y0529882D03*
X0933441Y0530118D03*
X0930134Y0531063D03*
X0934386Y0525630D03*
X0934386Y0525394D03*
X0934386Y0525157D03*
X0934622Y0524449D03*
X0934622Y0524213D03*
X0934622Y0523976D03*
X0934622Y0523740D03*
X0934858Y0522795D03*
X0934622Y0520433D03*
X0934622Y0518780D03*
X0934858Y0518543D03*
X0935567Y0518071D03*
X0936984Y0518780D03*
X0938402Y0517835D03*
X0938638Y0518307D03*
X0938874Y0518780D03*
X0939110Y0519488D03*
X0939110Y0519724D03*
X0939110Y0519961D03*
X0939110Y0520197D03*
X0939110Y0520433D03*
X0938874Y0521378D03*
X0937929Y0516890D03*
X0937929Y0516654D03*
X0938165Y0516181D03*
X0937929Y0515472D03*
X0938165Y0515000D03*
X0938165Y0514764D03*
X0938402Y0514291D03*
X0938402Y0514055D03*
X0938638Y0513583D03*
X0938402Y0512874D03*
X0938402Y0512638D03*
X0938638Y0512402D03*
X0938874Y0512165D03*
X0939110Y0511929D03*
X0939110Y0511693D03*
X0939346Y0511457D03*
X0939346Y0511220D03*
X0939583Y0510748D03*
X0939583Y0510512D03*
X0939819Y0510276D03*
X0939819Y0510039D03*
X0939583Y0507677D03*
X0939819Y0507441D03*
X0940055Y0507205D03*
X0940291Y0506732D03*
X0940528Y0505315D03*
X0933677Y0518780D03*
D15*
X0936984Y0519016D03*
X0938874Y0521142D03*
X0938638Y0522087D03*
X0938402Y0522323D03*
X0931551Y0523268D03*
X0931315Y0522795D03*
X0924701Y0524213D03*
X0922575Y0523268D03*
X0922575Y0523031D03*
X0923992Y0520906D03*
X0922811Y0526339D03*
X0921394Y0526339D03*
X0921157Y0526575D03*
X0923520Y0530118D03*
X0924937Y0530591D03*
X0927063Y0528465D03*
X0932969Y0530827D03*
X0915016Y0528701D03*
X0914780Y0528465D03*
X0911000Y0522323D03*
X0910764Y0521850D03*
X0910528Y0521614D03*
X0910291Y0521142D03*
X0910055Y0520906D03*
X0910055Y0520669D03*
X0909819Y0520433D03*
X0909819Y0520197D03*
X0909819Y0519961D03*
X0909583Y0519724D03*
X0910291Y0518071D03*
X0910528Y0517598D03*
X0910764Y0517362D03*
X0911000Y0517126D03*
X0911000Y0516890D03*
X0910055Y0516181D03*
X0908874Y0515236D03*
X0908874Y0514764D03*
X0908874Y0514528D03*
X0908165Y0513110D03*
X0908165Y0512874D03*
X0908402Y0512638D03*
X0908638Y0512402D03*
X0908638Y0512165D03*
X0908165Y0511457D03*
X0908165Y0511220D03*
X0908165Y0510984D03*
X0908165Y0510748D03*
X0907929Y0508386D03*
X0908165Y0508150D03*
X0908165Y0507913D03*
X0908165Y0507677D03*
X0908165Y0506260D03*
X0907929Y0504370D03*
X0907929Y0503661D03*
X0907929Y0503425D03*
X0908874Y0501299D03*
X0910528Y0500827D03*
X0917614Y0502244D03*
X0918087Y0501535D03*
X0919976Y0505079D03*
X0922102Y0505787D03*
X0924465Y0506732D03*
X0924465Y0506969D03*
X0924465Y0507205D03*
X0924701Y0505551D03*
X0925882Y0502244D03*
X0924465Y0501772D03*
X0924465Y0501535D03*
X0924701Y0501299D03*
X0924937Y0501063D03*
X0924228Y0502008D03*
X0927535Y0502008D03*
X0927535Y0502244D03*
X0927535Y0502953D03*
X0928480Y0501063D03*
X0928244Y0497992D03*
X0926354Y0498228D03*
X0924465Y0498228D03*
X0921630Y0495630D03*
X0923992Y0493504D03*
X0926591Y0494685D03*
X0928953Y0493031D03*
X0929661Y0493976D03*
X0930134Y0494685D03*
X0930606Y0495394D03*
X0930843Y0495630D03*
X0931787Y0497047D03*
X0932969Y0495866D03*
X0933677Y0497520D03*
X0938165Y0500591D03*
X0939583Y0502480D03*
X0939819Y0502717D03*
X0940055Y0503425D03*
X0940291Y0503898D03*
X0940528Y0504370D03*
X0940764Y0504843D03*
X0940764Y0505079D03*
X0940291Y0506260D03*
X0939819Y0508150D03*
X0939819Y0508386D03*
X0938402Y0513110D03*
X0933913Y0508858D03*
X0933677Y0509094D03*
X0930843Y0508858D03*
X0930606Y0509094D03*
X0930134Y0505079D03*
X0935094Y0503661D03*
X0935331Y0503898D03*
X0935567Y0504843D03*
X0935567Y0505079D03*
X0917850Y0497283D03*
X0911472Y0512165D03*
X0911709Y0513583D03*
X0912654Y0518307D03*
X0912654Y0518543D03*
X0912417Y0518780D03*
X0912417Y0519016D03*
X0912417Y0519252D03*
X0912417Y0519488D03*
D16*
X0919504Y0523976D03*
X0919504Y0524213D03*
X0919031Y0525157D03*
X0923047Y0522323D03*
X0923520Y0527283D03*
X0915961Y0529409D03*
X0928953Y0521142D03*
X0931551Y0520197D03*
X0931551Y0519961D03*
X0936039Y0522087D03*
X0936748Y0519961D03*
X0936276Y0509803D03*
X0936276Y0509567D03*
X0936276Y0506732D03*
X0936276Y0506496D03*
X0925882Y0503898D03*
X0922575Y0506260D03*
X0916669Y0503425D03*
X0915724Y0501535D03*
X0911472Y0505079D03*
X0928480Y0493268D03*
D17*
X0926591Y0494449D03*
X0925646Y0493504D03*
X0927063Y0499882D03*
X0926827Y0501535D03*
X0927535Y0502717D03*
X0929425Y0504606D03*
X0929661Y0504843D03*
X0930134Y0509331D03*
X0933441Y0509567D03*
X0936039Y0505315D03*
X0939346Y0502244D03*
X0938638Y0501299D03*
X0937693Y0499882D03*
X0933913Y0497756D03*
X0922811Y0501063D03*
X0922575Y0501535D03*
X0920213Y0504134D03*
X0920213Y0504370D03*
X0917378Y0502480D03*
X0913598Y0502953D03*
X0908638Y0502244D03*
X0908638Y0502008D03*
X0908402Y0502480D03*
X0908165Y0502717D03*
X0908165Y0502953D03*
X0907693Y0503898D03*
X0907693Y0504134D03*
X0908165Y0505787D03*
X0910764Y0507441D03*
X0911236Y0511693D03*
X0911709Y0512874D03*
X0911472Y0513819D03*
X0912181Y0514291D03*
X0921630Y0512874D03*
X0926354Y0520906D03*
X0927299Y0524213D03*
X0926591Y0525866D03*
X0927299Y0528701D03*
X0931315Y0529409D03*
X0931551Y0529173D03*
X0932260Y0531535D03*
X0917378Y0527283D03*
X0916433Y0525157D03*
X0915252Y0528937D03*
X0911945Y0523031D03*
X0922575Y0523504D03*
X0929189Y0523268D03*
X0931551Y0520433D03*
X0932969Y0517362D03*
X0937220Y0520669D03*
D18*
X0935803Y0521850D03*
X0930370Y0524213D03*
X0929898Y0525394D03*
X0930134Y0527756D03*
X0923756Y0527520D03*
X0923756Y0529173D03*
X0917378Y0529882D03*
X0913598Y0523504D03*
X0917142Y0519488D03*
X0911236Y0504843D03*
X0911236Y0504606D03*
X0911236Y0504134D03*
X0911236Y0503898D03*
X0911709Y0500118D03*
X0916669Y0503661D03*
X0928480Y0493740D03*
X0928480Y0493504D03*
X0932024Y0496102D03*
X0935094Y0498465D03*
X0936276Y0506969D03*
X0936276Y0508858D03*
D19*
X0935921Y0507441D03*
X0935921Y0510984D03*
X0934504Y0513583D03*
X0934504Y0513819D03*
X0926709Y0512638D03*
X0926709Y0512402D03*
X0923165Y0506496D03*
X0918913Y0509567D03*
X0914661Y0508622D03*
X0914661Y0508386D03*
X0916315Y0504370D03*
X0912299Y0503425D03*
X0912063Y0503661D03*
X0917260Y0496811D03*
X0920094Y0495866D03*
X0924819Y0493740D03*
X0920567Y0516890D03*
X0927417Y0520669D03*
X0923402Y0524449D03*
X0923402Y0524685D03*
X0922929Y0525630D03*
X0920331Y0530827D03*
X0919622Y0530591D03*
X0928126Y0529173D03*
X0929071Y0530591D03*
X0914189Y0521850D03*
X0913244Y0523268D03*
D20*
X0917378Y0519016D03*
X0916433Y0518071D03*
X0917614Y0513346D03*
X0920921Y0515945D03*
X0926591Y0513819D03*
X0926827Y0517362D03*
X0934386Y0511929D03*
X0926118Y0499409D03*
X0925646Y0493976D03*
X0918559Y0496575D03*
X0915961Y0506969D03*
X0915961Y0507205D03*
X0915961Y0507441D03*
X0913362Y0509567D03*
D21*
X0913362Y0509803D03*
X0913362Y0510276D03*
X0913126Y0509331D03*
X0915724Y0507913D03*
X0917142Y0506024D03*
X0917142Y0505551D03*
X0917142Y0505315D03*
X0917378Y0513110D03*
X0928244Y0522087D03*
X0932732Y0516181D03*
X0928953Y0529882D03*
X0925409Y0494213D03*
D22*
X0921984Y0495394D03*
X0920567Y0496811D03*
X0923402Y0500118D03*
X0923402Y0500354D03*
X0923165Y0500591D03*
X0922929Y0500827D03*
X0922693Y0501299D03*
X0926000Y0502008D03*
X0927654Y0502480D03*
X0928835Y0504134D03*
X0927417Y0508858D03*
X0927890Y0511693D03*
X0927890Y0511929D03*
X0931197Y0510984D03*
X0931433Y0510748D03*
X0933559Y0509331D03*
X0935685Y0504606D03*
X0935449Y0504134D03*
X0938520Y0501063D03*
X0938283Y0500827D03*
X0938047Y0500354D03*
X0937811Y0500118D03*
X0939937Y0502953D03*
X0939937Y0503189D03*
X0940173Y0503661D03*
X0940409Y0504134D03*
X0940646Y0504606D03*
X0939701Y0509094D03*
X0939701Y0509331D03*
X0934740Y0518307D03*
X0936866Y0519252D03*
X0938047Y0522559D03*
X0931433Y0523031D03*
X0930961Y0522559D03*
X0928126Y0522559D03*
X0924583Y0523031D03*
X0924583Y0523268D03*
X0924583Y0523504D03*
X0922929Y0526811D03*
X0921276Y0526811D03*
X0920803Y0527283D03*
X0919858Y0529173D03*
X0922457Y0529882D03*
X0924110Y0530354D03*
X0928835Y0531063D03*
X0932614Y0531299D03*
X0932850Y0531063D03*
X0920331Y0519961D03*
X0916551Y0523740D03*
X0916315Y0524921D03*
X0911591Y0522795D03*
X0911354Y0522559D03*
X0910882Y0522087D03*
X0910409Y0521378D03*
X0912063Y0520433D03*
X0912299Y0519724D03*
X0911591Y0512402D03*
X0911354Y0511929D03*
X0908283Y0509567D03*
X0907811Y0510039D03*
X0908047Y0508622D03*
X0908283Y0507441D03*
X0908283Y0507205D03*
X0908047Y0506024D03*
X0908283Y0505551D03*
X0908047Y0503189D03*
X0910409Y0501299D03*
X0910409Y0501063D03*
X0910646Y0500591D03*
X0910882Y0500354D03*
X0913717Y0502717D03*
X0913953Y0502480D03*
X0917732Y0500827D03*
X0920094Y0504606D03*
X0920094Y0504843D03*
X0928126Y0498228D03*
X0930961Y0495866D03*
X0930252Y0494921D03*
X0930016Y0494449D03*
X0929780Y0494213D03*
D23*
X0923520Y0494449D03*
X0916906Y0497047D03*
X0912417Y0499409D03*
X0912181Y0499646D03*
X0916433Y0504134D03*
X0914543Y0508858D03*
X0914543Y0509094D03*
X0925646Y0504134D03*
X0936039Y0507205D03*
X0932969Y0517126D03*
X0930606Y0519488D03*
X0935567Y0521378D03*
X0935803Y0521614D03*
X0936276Y0523031D03*
X0929661Y0526102D03*
X0929661Y0526339D03*
X0929661Y0526575D03*
X0929661Y0526811D03*
X0923520Y0523740D03*
X0922811Y0525866D03*
X0919268Y0523740D03*
X0919268Y0522087D03*
X0919504Y0521850D03*
X0923520Y0519961D03*
X0923756Y0520197D03*
X0922575Y0531299D03*
D24*
X0919386Y0524921D03*
X0919386Y0524685D03*
X0919386Y0524449D03*
X0915843Y0520669D03*
X0914189Y0522087D03*
X0927181Y0519488D03*
X0934504Y0520906D03*
X0934740Y0521142D03*
X0936866Y0520197D03*
X0936157Y0506260D03*
X0937102Y0499646D03*
X0934740Y0498228D03*
X0926709Y0501772D03*
X0924583Y0505315D03*
X0916787Y0503189D03*
X0916787Y0502953D03*
X0913480Y0499173D03*
X0914661Y0498228D03*
X0914898Y0497992D03*
X0922693Y0494685D03*
X0911118Y0508858D03*
X0911118Y0509094D03*
D25*
X0910882Y0508150D03*
X0910882Y0507913D03*
X0910882Y0507677D03*
X0910882Y0507205D03*
X0910882Y0506969D03*
X0910882Y0506732D03*
X0910882Y0506496D03*
X0908047Y0509803D03*
X0911118Y0511457D03*
X0911591Y0512638D03*
X0912299Y0514528D03*
X0912535Y0514764D03*
X0912535Y0519961D03*
X0912535Y0520197D03*
X0916315Y0519961D03*
X0916551Y0519724D03*
X0920094Y0520197D03*
X0920331Y0517126D03*
X0923165Y0519724D03*
X0925291Y0519016D03*
X0928835Y0520906D03*
X0930724Y0524449D03*
X0930724Y0524685D03*
X0930724Y0524921D03*
X0929780Y0528701D03*
X0924346Y0529409D03*
X0922693Y0523976D03*
X0918913Y0526339D03*
X0915606Y0529173D03*
X0936394Y0523268D03*
X0936866Y0519488D03*
X0932142Y0510512D03*
X0932614Y0510276D03*
X0932850Y0510039D03*
X0933087Y0509803D03*
X0936157Y0505787D03*
X0936157Y0505551D03*
X0935685Y0504370D03*
X0938756Y0501535D03*
X0938992Y0501772D03*
X0939228Y0502008D03*
X0929307Y0504370D03*
X0923874Y0499882D03*
X0922220Y0501772D03*
X0921984Y0502008D03*
X0921748Y0502244D03*
X0921512Y0502480D03*
X0921276Y0502717D03*
X0921039Y0502953D03*
X0921039Y0503189D03*
X0920803Y0503425D03*
X0920567Y0503661D03*
X0920331Y0503898D03*
X0917024Y0502717D03*
X0914661Y0502008D03*
X0914189Y0502244D03*
X0915843Y0497283D03*
X0922220Y0495157D03*
X0922457Y0494921D03*
D26*
X0924701Y0494921D03*
X0926591Y0495157D03*
X0928244Y0499882D03*
X0927063Y0501299D03*
X0926354Y0501299D03*
X0924465Y0500118D03*
X0923756Y0502244D03*
X0924228Y0502953D03*
X0923047Y0503425D03*
X0926827Y0503661D03*
X0926591Y0505079D03*
X0927299Y0506024D03*
X0927535Y0506260D03*
X0927535Y0506496D03*
X0927772Y0506732D03*
X0927772Y0506969D03*
X0927299Y0508622D03*
X0926827Y0509331D03*
X0929425Y0512165D03*
X0929425Y0512402D03*
X0929661Y0512638D03*
X0929661Y0511929D03*
X0930370Y0514291D03*
X0931787Y0517362D03*
X0934150Y0517362D03*
X0934386Y0519016D03*
X0934858Y0520197D03*
X0935803Y0522323D03*
X0932969Y0521850D03*
X0935803Y0517835D03*
X0936039Y0517598D03*
X0936276Y0517362D03*
X0936276Y0517126D03*
X0936512Y0516890D03*
X0936984Y0518307D03*
X0936984Y0518543D03*
X0927772Y0519252D03*
X0927063Y0519252D03*
X0927772Y0520197D03*
X0925882Y0519252D03*
X0924701Y0522323D03*
X0925882Y0523031D03*
X0926827Y0524685D03*
X0926118Y0526102D03*
X0927299Y0526575D03*
X0926827Y0528228D03*
X0925173Y0529882D03*
X0931315Y0530591D03*
X0932732Y0528228D03*
X0928953Y0524685D03*
X0922811Y0517598D03*
X0921866Y0517126D03*
X0920449Y0517362D03*
X0919976Y0518307D03*
X0920685Y0519724D03*
X0918087Y0519724D03*
X0921157Y0514291D03*
X0922102Y0514291D03*
X0923520Y0512638D03*
X0923283Y0512402D03*
X0922811Y0512165D03*
X0923992Y0512638D03*
X0920685Y0509331D03*
X0919268Y0510512D03*
X0912654Y0505551D03*
X0912654Y0505315D03*
X0910528Y0502480D03*
X0907929Y0504843D03*
X0909819Y0509803D03*
X0916669Y0500827D03*
X0918323Y0500591D03*
X0919504Y0496811D03*
X0930134Y0501535D03*
X0933205Y0502244D03*
X0933677Y0502480D03*
X0936748Y0504134D03*
X0937220Y0504843D03*
X0929898Y0506732D03*
X0929898Y0506969D03*
X0929661Y0506496D03*
X0929661Y0506260D03*
X0929425Y0506024D03*
X0929189Y0505079D03*
X0917142Y0526339D03*
X0915961Y0526575D03*
D27*
X0919031Y0530354D03*
X0923283Y0525394D03*
X0923283Y0525157D03*
X0923283Y0524921D03*
X0923756Y0522795D03*
X0919031Y0522323D03*
X0917378Y0519252D03*
X0929425Y0518307D03*
X0934386Y0514055D03*
X0934622Y0513346D03*
X0935567Y0511220D03*
X0935803Y0507677D03*
X0925173Y0504370D03*
X0924228Y0505079D03*
X0923047Y0507913D03*
X0916433Y0504606D03*
X0925646Y0498701D03*
X0925646Y0498465D03*
X0919976Y0496102D03*
X0928008Y0529409D03*
D28*
X0929071Y0522323D03*
X0932850Y0516417D03*
X0934031Y0512402D03*
X0920803Y0516181D03*
X0916551Y0518307D03*
X0918913Y0496339D03*
D29*
X0916787Y0501063D03*
X0912772Y0503189D03*
X0911354Y0504370D03*
X0909465Y0501772D03*
X0909465Y0501535D03*
X0918205Y0508622D03*
X0918441Y0508858D03*
X0918441Y0509094D03*
X0924583Y0511693D03*
X0931197Y0519724D03*
X0930016Y0525157D03*
X0930252Y0527992D03*
X0930252Y0528228D03*
X0929543Y0530827D03*
X0931433Y0531772D03*
X0922220Y0526102D03*
X0919858Y0521142D03*
X0919858Y0520906D03*
X0916551Y0529646D03*
X0936157Y0510039D03*
X0936394Y0509331D03*
X0936394Y0509094D03*
X0936866Y0499409D03*
X0932378Y0496811D03*
X0932378Y0496575D03*
X0932142Y0496339D03*
D30*
X0934386Y0497992D03*
X0936276Y0506024D03*
X0931315Y0511220D03*
X0929661Y0509567D03*
X0924701Y0511929D03*
X0922102Y0507205D03*
X0922102Y0506969D03*
X0922102Y0506732D03*
X0922575Y0506024D03*
X0918087Y0508386D03*
X0911000Y0508386D03*
X0911000Y0508622D03*
X0910764Y0506260D03*
X0911000Y0506024D03*
X0911000Y0505787D03*
X0911236Y0505551D03*
X0911236Y0505315D03*
X0915016Y0501772D03*
X0913835Y0498937D03*
X0914071Y0498701D03*
X0914307Y0498465D03*
X0915252Y0497756D03*
X0915488Y0497520D03*
X0911000Y0511220D03*
X0916197Y0520197D03*
X0915961Y0520433D03*
X0919976Y0520433D03*
X0919976Y0520669D03*
X0922575Y0524213D03*
X0926827Y0523268D03*
X0929898Y0528465D03*
X0937457Y0522795D03*
X0936984Y0520433D03*
X0936748Y0519724D03*
D31*
X0936157Y0510748D03*
X0936394Y0510512D03*
X0936394Y0510276D03*
X0936394Y0499173D03*
X0936157Y0498937D03*
X0935685Y0498701D03*
X0926709Y0500591D03*
X0916551Y0501299D03*
X0916551Y0503898D03*
X0918677Y0509331D03*
X0911827Y0499882D03*
X0919858Y0521378D03*
X0919622Y0521614D03*
X0923402Y0522559D03*
X0929780Y0525630D03*
X0929780Y0525866D03*
X0929780Y0527047D03*
X0929780Y0527283D03*
X0930016Y0527520D03*
X0929780Y0532717D03*
X0922929Y0531535D03*
X0917732Y0530118D03*
D32*
X0921276Y0531063D03*
X0922457Y0527047D03*
X0917969Y0526102D03*
X0917969Y0525866D03*
X0918913Y0522559D03*
X0914189Y0521614D03*
X0926945Y0516181D03*
X0926945Y0515945D03*
X0926945Y0515709D03*
X0926709Y0512874D03*
X0923874Y0509094D03*
X0923638Y0508858D03*
X0923165Y0508386D03*
X0922929Y0507677D03*
X0922929Y0507441D03*
X0926709Y0500827D03*
X0925528Y0499173D03*
X0925528Y0498937D03*
X0935685Y0507913D03*
X0935685Y0508150D03*
X0935685Y0508622D03*
X0934504Y0514291D03*
X0928126Y0523504D03*
X0928598Y0528937D03*
D33*
X0929071Y0529646D03*
X0928835Y0530118D03*
X0928126Y0521850D03*
X0930961Y0519016D03*
X0926709Y0517598D03*
X0923874Y0518307D03*
X0917496Y0514055D03*
X0915606Y0517835D03*
X0913480Y0510512D03*
X0926236Y0499646D03*
X0934268Y0511693D03*
X0918677Y0527520D03*
D34*
X0917850Y0525630D03*
X0915488Y0517126D03*
X0915252Y0516890D03*
X0926827Y0516417D03*
X0932969Y0516890D03*
X0934386Y0514528D03*
X0934858Y0513110D03*
X0934622Y0512874D03*
X0934622Y0512638D03*
X0935567Y0508386D03*
X0924937Y0504606D03*
X0923047Y0508150D03*
X0923283Y0508622D03*
X0916433Y0504843D03*
X0928717Y0523976D03*
D35*
X0928598Y0523740D03*
X0930488Y0519252D03*
X0929780Y0518543D03*
X0920567Y0516654D03*
X0914898Y0516654D03*
X0914189Y0521378D03*
X0918677Y0522795D03*
X0917969Y0525394D03*
X0924110Y0509331D03*
X0924819Y0504843D03*
X0916551Y0505079D03*
D36*
X0917024Y0505787D03*
X0917024Y0506260D03*
X0917024Y0506496D03*
X0915843Y0507677D03*
X0915843Y0508150D03*
X0913244Y0510039D03*
X0926709Y0517835D03*
D37*
X0926827Y0517126D03*
X0926591Y0513583D03*
X0924228Y0509567D03*
X0920685Y0516417D03*
X0915488Y0517598D03*
X0914780Y0515945D03*
X0918559Y0523031D03*
X0918559Y0523268D03*
X0934386Y0512165D03*
X0916433Y0506732D03*
D38*
X0923874Y0509803D03*
D39*
X0923992Y0510039D03*
D40*
X0923874Y0510276D03*
X0917969Y0515709D03*
X0920331Y0518780D03*
D41*
X0924346Y0510984D03*
X0924583Y0510748D03*
X0924819Y0510512D03*
D42*
X0926354Y0514291D03*
X0917850Y0512165D03*
X0913362Y0510748D03*
D43*
X0913480Y0510984D03*
X0921512Y0528701D03*
X0928126Y0532480D03*
X0933795Y0511457D03*
D44*
X0926591Y0513110D03*
X0926591Y0513346D03*
X0926118Y0512165D03*
X0926827Y0516654D03*
X0930134Y0518780D03*
X0915488Y0517362D03*
X0914780Y0516417D03*
X0914780Y0516181D03*
X0914780Y0511220D03*
X0914307Y0521142D03*
D45*
X0923992Y0511220D03*
D46*
X0920685Y0511457D03*
D47*
X0917496Y0511693D03*
D48*
X0917378Y0511929D03*
X0917850Y0512638D03*
X0921157Y0528465D03*
X0928244Y0532244D03*
D49*
X0918205Y0512402D03*
D50*
X0917142Y0512874D03*
X0926354Y0514055D03*
X0932732Y0515709D03*
X0932732Y0515945D03*
X0921866Y0528937D03*
X0925173Y0531772D03*
D51*
X0929071Y0530354D03*
X0924819Y0521142D03*
X0926945Y0516890D03*
X0932850Y0516654D03*
X0918205Y0514291D03*
X0917969Y0513819D03*
X0917969Y0513583D03*
X0914189Y0520906D03*
X0918441Y0523504D03*
D52*
X0923283Y0514528D03*
D53*
X0926000Y0514764D03*
D54*
X0923992Y0515000D03*
X0923992Y0515236D03*
D55*
X0920331Y0518543D03*
X0918205Y0515472D03*
D56*
X0930724Y0515472D03*
D57*
X0926354Y0518071D03*
D58*
X0925528Y0520433D03*
D59*
X0926236Y0521378D03*
D60*
X0926827Y0521614D03*
D61*
X0920567Y0527756D03*
X0920567Y0527992D03*
D62*
X0920921Y0528228D03*
D63*
X0927772Y0532008D03*
D64*
X0914863Y0065089D02*
X0915470Y0064483D01*
X0913043Y0062056D01*
X0913650Y0061449D01*
X0914863Y0061449D01*
X0915470Y0062056D01*
X0915470Y0064483D01*
X0914863Y0065089D02*
X0913650Y0065089D01*
X0913043Y0064483D01*
X0913043Y0062056D01*
X0911844Y0062056D02*
X0911238Y0061449D01*
X0910024Y0061449D01*
X0909418Y0062056D01*
X0910631Y0063269D02*
X0911238Y0063269D01*
X0911844Y0062663D01*
X0911844Y0062056D01*
X0911238Y0063269D02*
X0911844Y0063876D01*
X0911844Y0064483D01*
X0911238Y0065089D01*
X0910024Y0065089D01*
X0909418Y0064483D01*
X0906021Y0064483D02*
X0905414Y0065089D01*
X0904201Y0065089D01*
X0903594Y0064483D01*
X0903594Y0063876D01*
X0904201Y0063269D01*
X0906021Y0063269D01*
X0906021Y0062056D02*
X0906021Y0064483D01*
X0906021Y0062056D02*
X0905414Y0061449D01*
X0904201Y0061449D01*
X0903594Y0062056D01*
X0902396Y0061449D02*
X0899969Y0061449D01*
X0902396Y0063876D01*
X0902396Y0064483D01*
X0901789Y0065089D01*
X0900576Y0065089D01*
X0899969Y0064483D01*
X0896178Y0064483D02*
X0896178Y0063876D01*
X0895572Y0063269D01*
X0894358Y0063269D01*
X0893752Y0063876D01*
X0893752Y0064483D01*
X0894358Y0065089D01*
X0895572Y0065089D01*
X0896178Y0064483D01*
X0895572Y0063269D02*
X0896178Y0062663D01*
X0896178Y0062056D01*
X0895572Y0061449D01*
X0894358Y0061449D01*
X0893752Y0062056D01*
X0893752Y0062663D01*
X0894358Y0063269D01*
X0892553Y0063876D02*
X0892553Y0064483D01*
X0891946Y0065089D01*
X0890733Y0065089D01*
X0890126Y0064483D01*
X0892553Y0063876D02*
X0890126Y0061449D01*
X0892553Y0061449D01*
X0886336Y0064483D02*
X0883909Y0062056D01*
X0883909Y0061449D01*
X0882711Y0061449D02*
X0880284Y0061449D01*
X0882711Y0063876D01*
X0882711Y0064483D01*
X0882104Y0065089D01*
X0880891Y0065089D01*
X0880284Y0064483D01*
X0883909Y0065089D02*
X0886336Y0065089D01*
X0886336Y0064483D01*
X0876493Y0065089D02*
X0875280Y0064483D01*
X0874066Y0063269D01*
X0875887Y0063269D01*
X0876493Y0062663D01*
X0876493Y0062056D01*
X0875887Y0061449D01*
X0874673Y0061449D01*
X0874066Y0062056D01*
X0874066Y0063269D01*
X0872868Y0063876D02*
X0872868Y0064483D01*
X0872261Y0065089D01*
X0871048Y0065089D01*
X0870441Y0064483D01*
X0872868Y0063876D02*
X0870441Y0061449D01*
X0872868Y0061449D01*
X0866651Y0062056D02*
X0866044Y0061449D01*
X0864831Y0061449D01*
X0864224Y0062056D01*
X0864224Y0063269D02*
X0865437Y0063876D01*
X0866044Y0063876D01*
X0866651Y0063269D01*
X0866651Y0062056D01*
X0864224Y0063269D02*
X0864224Y0065089D01*
X0866651Y0065089D01*
X0863026Y0064483D02*
X0862419Y0065089D01*
X0861205Y0065089D01*
X0860599Y0064483D01*
X0863026Y0064483D02*
X0863026Y0063876D01*
X0860599Y0061449D01*
X0863026Y0061449D01*
X0856808Y0063269D02*
X0854381Y0063269D01*
X0856201Y0065089D01*
X0856201Y0061449D01*
X0853183Y0061449D02*
X0850756Y0061449D01*
X0853183Y0063876D01*
X0853183Y0064483D01*
X0852576Y0065089D01*
X0851363Y0065089D01*
X0850756Y0064483D01*
X0847359Y0064483D02*
X0847359Y0063876D01*
X0846753Y0063269D01*
X0847359Y0062663D01*
X0847359Y0062056D01*
X0846753Y0061449D01*
X0845539Y0061449D01*
X0844933Y0062056D01*
X0843734Y0061449D02*
X0841307Y0061449D01*
X0843734Y0063876D01*
X0843734Y0064483D01*
X0843128Y0065089D01*
X0841914Y0065089D01*
X0841307Y0064483D01*
X0844933Y0064483D02*
X0845539Y0065089D01*
X0846753Y0065089D01*
X0847359Y0064483D01*
X0846753Y0063269D02*
X0846146Y0063269D01*
X0837123Y0063876D02*
X0834696Y0061449D01*
X0837123Y0061449D01*
X0837123Y0063876D02*
X0837123Y0064483D01*
X0836516Y0065089D01*
X0835303Y0065089D01*
X0834696Y0064483D01*
X0833498Y0064483D02*
X0832891Y0065089D01*
X0831678Y0065089D01*
X0831071Y0064483D01*
X0833498Y0064483D02*
X0833498Y0063876D01*
X0831071Y0061449D01*
X0833498Y0061449D01*
X0827281Y0061449D02*
X0824854Y0061449D01*
X0823655Y0061449D02*
X0821229Y0061449D01*
X0823655Y0063876D01*
X0823655Y0064483D01*
X0823049Y0065089D01*
X0821835Y0065089D01*
X0821229Y0064483D01*
X0824854Y0063876D02*
X0826067Y0065089D01*
X0826067Y0061449D01*
X0817438Y0062056D02*
X0817438Y0064483D01*
X0815011Y0062056D01*
X0815618Y0061449D01*
X0816831Y0061449D01*
X0817438Y0062056D01*
X0817438Y0064483D02*
X0816831Y0065089D01*
X0815618Y0065089D01*
X0815011Y0064483D01*
X0815011Y0062056D01*
X0813813Y0061449D02*
X0811386Y0061449D01*
X0813813Y0063876D01*
X0813813Y0064483D01*
X0813206Y0065089D01*
X0811993Y0065089D01*
X0811386Y0064483D01*
X0807596Y0064483D02*
X0807596Y0062056D01*
X0806989Y0061449D01*
X0805776Y0061449D01*
X0805169Y0062056D01*
X0803970Y0061449D02*
X0801544Y0061449D01*
X0802757Y0061449D02*
X0802757Y0065089D01*
X0801544Y0063876D01*
X0798147Y0063876D02*
X0797540Y0063269D01*
X0796327Y0063269D01*
X0795720Y0063876D01*
X0795720Y0064483D01*
X0796327Y0065089D01*
X0797540Y0065089D01*
X0798147Y0064483D01*
X0798147Y0063876D01*
X0797540Y0063269D02*
X0798147Y0062663D01*
X0798147Y0062056D01*
X0797540Y0061449D01*
X0796327Y0061449D01*
X0795720Y0062056D01*
X0795720Y0062663D01*
X0796327Y0063269D01*
X0794522Y0061449D02*
X0792095Y0061449D01*
X0793308Y0061449D02*
X0793308Y0065089D01*
X0792095Y0063876D01*
X0787911Y0064483D02*
X0785484Y0062056D01*
X0785484Y0061449D01*
X0784285Y0061449D02*
X0781859Y0061449D01*
X0783072Y0061449D02*
X0783072Y0065089D01*
X0781859Y0063876D01*
X0785484Y0065089D02*
X0787911Y0065089D01*
X0787911Y0064483D01*
X0778068Y0065089D02*
X0776855Y0064483D01*
X0775641Y0063269D01*
X0777461Y0063269D01*
X0778068Y0062663D01*
X0778068Y0062056D01*
X0777461Y0061449D01*
X0776248Y0061449D01*
X0775641Y0062056D01*
X0775641Y0063269D01*
X0774443Y0061449D02*
X0772016Y0061449D01*
X0773230Y0061449D02*
X0773230Y0065089D01*
X0772016Y0063876D01*
X0768225Y0063269D02*
X0768225Y0062056D01*
X0767619Y0061449D01*
X0766405Y0061449D01*
X0765799Y0062056D01*
X0765799Y0063269D02*
X0767012Y0063876D01*
X0767619Y0063876D01*
X0768225Y0063269D01*
X0768225Y0065089D02*
X0765799Y0065089D01*
X0765799Y0063269D01*
X0764600Y0061449D02*
X0762174Y0061449D01*
X0763387Y0061449D02*
X0763387Y0065089D01*
X0762174Y0063876D01*
X0758383Y0063269D02*
X0755956Y0063269D01*
X0757776Y0065089D01*
X0757776Y0061449D01*
X0754758Y0061449D02*
X0752331Y0061449D01*
X0753544Y0061449D02*
X0753544Y0065089D01*
X0752331Y0063876D01*
X0748540Y0063876D02*
X0747934Y0063269D01*
X0748540Y0062663D01*
X0748540Y0062056D01*
X0747934Y0061449D01*
X0746720Y0061449D01*
X0746114Y0062056D01*
X0744915Y0061449D02*
X0742489Y0061449D01*
X0743702Y0061449D02*
X0743702Y0065089D01*
X0742489Y0063876D01*
X0746114Y0064483D02*
X0746720Y0065089D01*
X0747934Y0065089D01*
X0748540Y0064483D01*
X0748540Y0063876D01*
X0747934Y0063269D02*
X0747327Y0063269D01*
X0738304Y0063876D02*
X0735877Y0061449D01*
X0738304Y0061449D01*
X0738304Y0063876D02*
X0738304Y0064483D01*
X0737698Y0065089D01*
X0736484Y0065089D01*
X0735877Y0064483D01*
X0733466Y0065089D02*
X0733466Y0061449D01*
X0734679Y0061449D02*
X0732252Y0061449D01*
X0732252Y0063876D02*
X0733466Y0065089D01*
X0727642Y0065089D02*
X0727642Y0061449D01*
X0726429Y0061449D02*
X0728855Y0061449D01*
X0726429Y0063876D02*
X0727642Y0065089D01*
X0724017Y0065089D02*
X0724017Y0061449D01*
X0722804Y0061449D02*
X0725230Y0061449D01*
X0722804Y0063876D02*
X0724017Y0065089D01*
X0719013Y0064483D02*
X0716586Y0062056D01*
X0717193Y0061449D01*
X0718406Y0061449D01*
X0719013Y0062056D01*
X0719013Y0064483D01*
X0718406Y0065089D01*
X0717193Y0065089D01*
X0716586Y0064483D01*
X0716586Y0062056D01*
X0715388Y0061449D02*
X0712961Y0061449D01*
X0714174Y0061449D02*
X0714174Y0065089D01*
X0712961Y0063876D01*
X0707514Y0063269D02*
X0705694Y0063269D01*
X0705087Y0063876D01*
X0705087Y0064483D01*
X0705694Y0065089D01*
X0706907Y0065089D01*
X0707514Y0064483D01*
X0707514Y0062056D01*
X0706907Y0061449D01*
X0705694Y0061449D01*
X0705087Y0062056D01*
X0697671Y0062056D02*
X0697671Y0062663D01*
X0697065Y0063269D01*
X0695851Y0063269D01*
X0695244Y0063876D01*
X0695244Y0064483D01*
X0695851Y0065089D01*
X0697065Y0065089D01*
X0697671Y0064483D01*
X0697671Y0063876D01*
X0697065Y0063269D01*
X0695851Y0063269D02*
X0695244Y0062663D01*
X0695244Y0062056D01*
X0695851Y0061449D01*
X0697065Y0061449D01*
X0697671Y0062056D01*
X0687829Y0064483D02*
X0685402Y0062056D01*
X0685402Y0061449D01*
X0685402Y0065089D02*
X0687829Y0065089D01*
X0687829Y0064483D01*
X0677986Y0065089D02*
X0676773Y0064483D01*
X0675559Y0063269D01*
X0677380Y0063269D01*
X0677986Y0062663D01*
X0677986Y0062056D01*
X0677380Y0061449D01*
X0676166Y0061449D01*
X0675559Y0062056D01*
X0675559Y0063269D01*
X0668144Y0063269D02*
X0668144Y0062056D01*
X0667537Y0061449D01*
X0666324Y0061449D01*
X0665717Y0062056D01*
X0665717Y0063269D02*
X0666930Y0063876D01*
X0667537Y0063876D01*
X0668144Y0063269D01*
X0668144Y0065089D02*
X0665717Y0065089D01*
X0665717Y0063269D01*
X0658301Y0063269D02*
X0655874Y0063269D01*
X0657694Y0065089D01*
X0657694Y0061449D01*
X0648065Y0062056D02*
X0648065Y0062663D01*
X0647458Y0063269D01*
X0646852Y0063269D01*
X0647458Y0063269D02*
X0648065Y0063876D01*
X0648065Y0064483D01*
X0647458Y0065089D01*
X0646245Y0065089D01*
X0645638Y0064483D01*
X0645638Y0062056D02*
X0646245Y0061449D01*
X0647458Y0061449D01*
X0648065Y0062056D01*
X0638616Y0061449D02*
X0636189Y0061449D01*
X0638616Y0063876D01*
X0638616Y0064483D01*
X0638009Y0065089D01*
X0636796Y0065089D01*
X0636189Y0064483D01*
X0628774Y0061449D02*
X0626347Y0061449D01*
X0627560Y0061449D02*
X0627560Y0065089D01*
X0626347Y0063876D01*
X0805169Y0063876D02*
X0805776Y0063269D01*
X0807596Y0063269D01*
X0807596Y0064483D02*
X0806989Y0065089D01*
X0805776Y0065089D01*
X0805169Y0064483D01*
X0805169Y0063876D01*
M02*
