G75*
%MOIN*%
%OFA0B0*%
%FSLAX25Y25*%
%IPPOS*%
%LPD*%
%AMOC8*
5,1,8,0,0,1.08239X$1,22.5*
%
%ADD10C,0.00000*%
%ADD11C,0.00787*%
D10*
X0038402Y0105394D02*
X0038404Y0105587D01*
X0038411Y0105780D01*
X0038423Y0105973D01*
X0038440Y0106166D01*
X0038461Y0106358D01*
X0038487Y0106549D01*
X0038518Y0106740D01*
X0038553Y0106930D01*
X0038593Y0107119D01*
X0038638Y0107307D01*
X0038687Y0107494D01*
X0038741Y0107680D01*
X0038799Y0107864D01*
X0038862Y0108047D01*
X0038930Y0108228D01*
X0039001Y0108407D01*
X0039078Y0108585D01*
X0039158Y0108761D01*
X0039243Y0108934D01*
X0039332Y0109106D01*
X0039425Y0109275D01*
X0039522Y0109442D01*
X0039624Y0109607D01*
X0039729Y0109769D01*
X0039838Y0109928D01*
X0039952Y0110085D01*
X0040069Y0110238D01*
X0040189Y0110389D01*
X0040314Y0110537D01*
X0040442Y0110682D01*
X0040573Y0110823D01*
X0040708Y0110962D01*
X0040847Y0111097D01*
X0040988Y0111228D01*
X0041133Y0111356D01*
X0041281Y0111481D01*
X0041432Y0111601D01*
X0041585Y0111718D01*
X0041742Y0111832D01*
X0041901Y0111941D01*
X0042063Y0112046D01*
X0042228Y0112148D01*
X0042395Y0112245D01*
X0042564Y0112338D01*
X0042736Y0112427D01*
X0042909Y0112512D01*
X0043085Y0112592D01*
X0043263Y0112669D01*
X0043442Y0112740D01*
X0043623Y0112808D01*
X0043806Y0112871D01*
X0043990Y0112929D01*
X0044176Y0112983D01*
X0044363Y0113032D01*
X0044551Y0113077D01*
X0044740Y0113117D01*
X0044930Y0113152D01*
X0045121Y0113183D01*
X0045312Y0113209D01*
X0045504Y0113230D01*
X0045697Y0113247D01*
X0045890Y0113259D01*
X0046083Y0113266D01*
X0046276Y0113268D01*
X0046469Y0113266D01*
X0046662Y0113259D01*
X0046855Y0113247D01*
X0047048Y0113230D01*
X0047240Y0113209D01*
X0047431Y0113183D01*
X0047622Y0113152D01*
X0047812Y0113117D01*
X0048001Y0113077D01*
X0048189Y0113032D01*
X0048376Y0112983D01*
X0048562Y0112929D01*
X0048746Y0112871D01*
X0048929Y0112808D01*
X0049110Y0112740D01*
X0049289Y0112669D01*
X0049467Y0112592D01*
X0049643Y0112512D01*
X0049816Y0112427D01*
X0049988Y0112338D01*
X0050157Y0112245D01*
X0050324Y0112148D01*
X0050489Y0112046D01*
X0050651Y0111941D01*
X0050810Y0111832D01*
X0050967Y0111718D01*
X0051120Y0111601D01*
X0051271Y0111481D01*
X0051419Y0111356D01*
X0051564Y0111228D01*
X0051705Y0111097D01*
X0051844Y0110962D01*
X0051979Y0110823D01*
X0052110Y0110682D01*
X0052238Y0110537D01*
X0052363Y0110389D01*
X0052483Y0110238D01*
X0052600Y0110085D01*
X0052714Y0109928D01*
X0052823Y0109769D01*
X0052928Y0109607D01*
X0053030Y0109442D01*
X0053127Y0109275D01*
X0053220Y0109106D01*
X0053309Y0108934D01*
X0053394Y0108761D01*
X0053474Y0108585D01*
X0053551Y0108407D01*
X0053622Y0108228D01*
X0053690Y0108047D01*
X0053753Y0107864D01*
X0053811Y0107680D01*
X0053865Y0107494D01*
X0053914Y0107307D01*
X0053959Y0107119D01*
X0053999Y0106930D01*
X0054034Y0106740D01*
X0054065Y0106549D01*
X0054091Y0106358D01*
X0054112Y0106166D01*
X0054129Y0105973D01*
X0054141Y0105780D01*
X0054148Y0105587D01*
X0054150Y0105394D01*
X0054148Y0105201D01*
X0054141Y0105008D01*
X0054129Y0104815D01*
X0054112Y0104622D01*
X0054091Y0104430D01*
X0054065Y0104239D01*
X0054034Y0104048D01*
X0053999Y0103858D01*
X0053959Y0103669D01*
X0053914Y0103481D01*
X0053865Y0103294D01*
X0053811Y0103108D01*
X0053753Y0102924D01*
X0053690Y0102741D01*
X0053622Y0102560D01*
X0053551Y0102381D01*
X0053474Y0102203D01*
X0053394Y0102027D01*
X0053309Y0101854D01*
X0053220Y0101682D01*
X0053127Y0101513D01*
X0053030Y0101346D01*
X0052928Y0101181D01*
X0052823Y0101019D01*
X0052714Y0100860D01*
X0052600Y0100703D01*
X0052483Y0100550D01*
X0052363Y0100399D01*
X0052238Y0100251D01*
X0052110Y0100106D01*
X0051979Y0099965D01*
X0051844Y0099826D01*
X0051705Y0099691D01*
X0051564Y0099560D01*
X0051419Y0099432D01*
X0051271Y0099307D01*
X0051120Y0099187D01*
X0050967Y0099070D01*
X0050810Y0098956D01*
X0050651Y0098847D01*
X0050489Y0098742D01*
X0050324Y0098640D01*
X0050157Y0098543D01*
X0049988Y0098450D01*
X0049816Y0098361D01*
X0049643Y0098276D01*
X0049467Y0098196D01*
X0049289Y0098119D01*
X0049110Y0098048D01*
X0048929Y0097980D01*
X0048746Y0097917D01*
X0048562Y0097859D01*
X0048376Y0097805D01*
X0048189Y0097756D01*
X0048001Y0097711D01*
X0047812Y0097671D01*
X0047622Y0097636D01*
X0047431Y0097605D01*
X0047240Y0097579D01*
X0047048Y0097558D01*
X0046855Y0097541D01*
X0046662Y0097529D01*
X0046469Y0097522D01*
X0046276Y0097520D01*
X0046083Y0097522D01*
X0045890Y0097529D01*
X0045697Y0097541D01*
X0045504Y0097558D01*
X0045312Y0097579D01*
X0045121Y0097605D01*
X0044930Y0097636D01*
X0044740Y0097671D01*
X0044551Y0097711D01*
X0044363Y0097756D01*
X0044176Y0097805D01*
X0043990Y0097859D01*
X0043806Y0097917D01*
X0043623Y0097980D01*
X0043442Y0098048D01*
X0043263Y0098119D01*
X0043085Y0098196D01*
X0042909Y0098276D01*
X0042736Y0098361D01*
X0042564Y0098450D01*
X0042395Y0098543D01*
X0042228Y0098640D01*
X0042063Y0098742D01*
X0041901Y0098847D01*
X0041742Y0098956D01*
X0041585Y0099070D01*
X0041432Y0099187D01*
X0041281Y0099307D01*
X0041133Y0099432D01*
X0040988Y0099560D01*
X0040847Y0099691D01*
X0040708Y0099826D01*
X0040573Y0099965D01*
X0040442Y0100106D01*
X0040314Y0100251D01*
X0040189Y0100399D01*
X0040069Y0100550D01*
X0039952Y0100703D01*
X0039838Y0100860D01*
X0039729Y0101019D01*
X0039624Y0101181D01*
X0039522Y0101346D01*
X0039425Y0101513D01*
X0039332Y0101682D01*
X0039243Y0101854D01*
X0039158Y0102027D01*
X0039078Y0102203D01*
X0039001Y0102381D01*
X0038930Y0102560D01*
X0038862Y0102741D01*
X0038799Y0102924D01*
X0038741Y0103108D01*
X0038687Y0103294D01*
X0038638Y0103481D01*
X0038593Y0103669D01*
X0038553Y0103858D01*
X0038518Y0104048D01*
X0038487Y0104239D01*
X0038461Y0104430D01*
X0038440Y0104622D01*
X0038423Y0104815D01*
X0038411Y0105008D01*
X0038404Y0105201D01*
X0038402Y0105394D01*
X0199819Y0105394D02*
X0199821Y0105587D01*
X0199828Y0105780D01*
X0199840Y0105973D01*
X0199857Y0106166D01*
X0199878Y0106358D01*
X0199904Y0106549D01*
X0199935Y0106740D01*
X0199970Y0106930D01*
X0200010Y0107119D01*
X0200055Y0107307D01*
X0200104Y0107494D01*
X0200158Y0107680D01*
X0200216Y0107864D01*
X0200279Y0108047D01*
X0200347Y0108228D01*
X0200418Y0108407D01*
X0200495Y0108585D01*
X0200575Y0108761D01*
X0200660Y0108934D01*
X0200749Y0109106D01*
X0200842Y0109275D01*
X0200939Y0109442D01*
X0201041Y0109607D01*
X0201146Y0109769D01*
X0201255Y0109928D01*
X0201369Y0110085D01*
X0201486Y0110238D01*
X0201606Y0110389D01*
X0201731Y0110537D01*
X0201859Y0110682D01*
X0201990Y0110823D01*
X0202125Y0110962D01*
X0202264Y0111097D01*
X0202405Y0111228D01*
X0202550Y0111356D01*
X0202698Y0111481D01*
X0202849Y0111601D01*
X0203002Y0111718D01*
X0203159Y0111832D01*
X0203318Y0111941D01*
X0203480Y0112046D01*
X0203645Y0112148D01*
X0203812Y0112245D01*
X0203981Y0112338D01*
X0204153Y0112427D01*
X0204326Y0112512D01*
X0204502Y0112592D01*
X0204680Y0112669D01*
X0204859Y0112740D01*
X0205040Y0112808D01*
X0205223Y0112871D01*
X0205407Y0112929D01*
X0205593Y0112983D01*
X0205780Y0113032D01*
X0205968Y0113077D01*
X0206157Y0113117D01*
X0206347Y0113152D01*
X0206538Y0113183D01*
X0206729Y0113209D01*
X0206921Y0113230D01*
X0207114Y0113247D01*
X0207307Y0113259D01*
X0207500Y0113266D01*
X0207693Y0113268D01*
X0207886Y0113266D01*
X0208079Y0113259D01*
X0208272Y0113247D01*
X0208465Y0113230D01*
X0208657Y0113209D01*
X0208848Y0113183D01*
X0209039Y0113152D01*
X0209229Y0113117D01*
X0209418Y0113077D01*
X0209606Y0113032D01*
X0209793Y0112983D01*
X0209979Y0112929D01*
X0210163Y0112871D01*
X0210346Y0112808D01*
X0210527Y0112740D01*
X0210706Y0112669D01*
X0210884Y0112592D01*
X0211060Y0112512D01*
X0211233Y0112427D01*
X0211405Y0112338D01*
X0211574Y0112245D01*
X0211741Y0112148D01*
X0211906Y0112046D01*
X0212068Y0111941D01*
X0212227Y0111832D01*
X0212384Y0111718D01*
X0212537Y0111601D01*
X0212688Y0111481D01*
X0212836Y0111356D01*
X0212981Y0111228D01*
X0213122Y0111097D01*
X0213261Y0110962D01*
X0213396Y0110823D01*
X0213527Y0110682D01*
X0213655Y0110537D01*
X0213780Y0110389D01*
X0213900Y0110238D01*
X0214017Y0110085D01*
X0214131Y0109928D01*
X0214240Y0109769D01*
X0214345Y0109607D01*
X0214447Y0109442D01*
X0214544Y0109275D01*
X0214637Y0109106D01*
X0214726Y0108934D01*
X0214811Y0108761D01*
X0214891Y0108585D01*
X0214968Y0108407D01*
X0215039Y0108228D01*
X0215107Y0108047D01*
X0215170Y0107864D01*
X0215228Y0107680D01*
X0215282Y0107494D01*
X0215331Y0107307D01*
X0215376Y0107119D01*
X0215416Y0106930D01*
X0215451Y0106740D01*
X0215482Y0106549D01*
X0215508Y0106358D01*
X0215529Y0106166D01*
X0215546Y0105973D01*
X0215558Y0105780D01*
X0215565Y0105587D01*
X0215567Y0105394D01*
X0215565Y0105201D01*
X0215558Y0105008D01*
X0215546Y0104815D01*
X0215529Y0104622D01*
X0215508Y0104430D01*
X0215482Y0104239D01*
X0215451Y0104048D01*
X0215416Y0103858D01*
X0215376Y0103669D01*
X0215331Y0103481D01*
X0215282Y0103294D01*
X0215228Y0103108D01*
X0215170Y0102924D01*
X0215107Y0102741D01*
X0215039Y0102560D01*
X0214968Y0102381D01*
X0214891Y0102203D01*
X0214811Y0102027D01*
X0214726Y0101854D01*
X0214637Y0101682D01*
X0214544Y0101513D01*
X0214447Y0101346D01*
X0214345Y0101181D01*
X0214240Y0101019D01*
X0214131Y0100860D01*
X0214017Y0100703D01*
X0213900Y0100550D01*
X0213780Y0100399D01*
X0213655Y0100251D01*
X0213527Y0100106D01*
X0213396Y0099965D01*
X0213261Y0099826D01*
X0213122Y0099691D01*
X0212981Y0099560D01*
X0212836Y0099432D01*
X0212688Y0099307D01*
X0212537Y0099187D01*
X0212384Y0099070D01*
X0212227Y0098956D01*
X0212068Y0098847D01*
X0211906Y0098742D01*
X0211741Y0098640D01*
X0211574Y0098543D01*
X0211405Y0098450D01*
X0211233Y0098361D01*
X0211060Y0098276D01*
X0210884Y0098196D01*
X0210706Y0098119D01*
X0210527Y0098048D01*
X0210346Y0097980D01*
X0210163Y0097917D01*
X0209979Y0097859D01*
X0209793Y0097805D01*
X0209606Y0097756D01*
X0209418Y0097711D01*
X0209229Y0097671D01*
X0209039Y0097636D01*
X0208848Y0097605D01*
X0208657Y0097579D01*
X0208465Y0097558D01*
X0208272Y0097541D01*
X0208079Y0097529D01*
X0207886Y0097522D01*
X0207693Y0097520D01*
X0207500Y0097522D01*
X0207307Y0097529D01*
X0207114Y0097541D01*
X0206921Y0097558D01*
X0206729Y0097579D01*
X0206538Y0097605D01*
X0206347Y0097636D01*
X0206157Y0097671D01*
X0205968Y0097711D01*
X0205780Y0097756D01*
X0205593Y0097805D01*
X0205407Y0097859D01*
X0205223Y0097917D01*
X0205040Y0097980D01*
X0204859Y0098048D01*
X0204680Y0098119D01*
X0204502Y0098196D01*
X0204326Y0098276D01*
X0204153Y0098361D01*
X0203981Y0098450D01*
X0203812Y0098543D01*
X0203645Y0098640D01*
X0203480Y0098742D01*
X0203318Y0098847D01*
X0203159Y0098956D01*
X0203002Y0099070D01*
X0202849Y0099187D01*
X0202698Y0099307D01*
X0202550Y0099432D01*
X0202405Y0099560D01*
X0202264Y0099691D01*
X0202125Y0099826D01*
X0201990Y0099965D01*
X0201859Y0100106D01*
X0201731Y0100251D01*
X0201606Y0100399D01*
X0201486Y0100550D01*
X0201369Y0100703D01*
X0201255Y0100860D01*
X0201146Y0101019D01*
X0201041Y0101181D01*
X0200939Y0101346D01*
X0200842Y0101513D01*
X0200749Y0101682D01*
X0200660Y0101854D01*
X0200575Y0102027D01*
X0200495Y0102203D01*
X0200418Y0102381D01*
X0200347Y0102560D01*
X0200279Y0102741D01*
X0200216Y0102924D01*
X0200158Y0103108D01*
X0200104Y0103294D01*
X0200055Y0103481D01*
X0200010Y0103669D01*
X0199970Y0103858D01*
X0199935Y0104048D01*
X0199904Y0104239D01*
X0199878Y0104430D01*
X0199857Y0104622D01*
X0199840Y0104815D01*
X0199828Y0105008D01*
X0199821Y0105201D01*
X0199819Y0105394D01*
X0249032Y0105394D02*
X0249034Y0105587D01*
X0249041Y0105780D01*
X0249053Y0105973D01*
X0249070Y0106166D01*
X0249091Y0106358D01*
X0249117Y0106549D01*
X0249148Y0106740D01*
X0249183Y0106930D01*
X0249223Y0107119D01*
X0249268Y0107307D01*
X0249317Y0107494D01*
X0249371Y0107680D01*
X0249429Y0107864D01*
X0249492Y0108047D01*
X0249560Y0108228D01*
X0249631Y0108407D01*
X0249708Y0108585D01*
X0249788Y0108761D01*
X0249873Y0108934D01*
X0249962Y0109106D01*
X0250055Y0109275D01*
X0250152Y0109442D01*
X0250254Y0109607D01*
X0250359Y0109769D01*
X0250468Y0109928D01*
X0250582Y0110085D01*
X0250699Y0110238D01*
X0250819Y0110389D01*
X0250944Y0110537D01*
X0251072Y0110682D01*
X0251203Y0110823D01*
X0251338Y0110962D01*
X0251477Y0111097D01*
X0251618Y0111228D01*
X0251763Y0111356D01*
X0251911Y0111481D01*
X0252062Y0111601D01*
X0252215Y0111718D01*
X0252372Y0111832D01*
X0252531Y0111941D01*
X0252693Y0112046D01*
X0252858Y0112148D01*
X0253025Y0112245D01*
X0253194Y0112338D01*
X0253366Y0112427D01*
X0253539Y0112512D01*
X0253715Y0112592D01*
X0253893Y0112669D01*
X0254072Y0112740D01*
X0254253Y0112808D01*
X0254436Y0112871D01*
X0254620Y0112929D01*
X0254806Y0112983D01*
X0254993Y0113032D01*
X0255181Y0113077D01*
X0255370Y0113117D01*
X0255560Y0113152D01*
X0255751Y0113183D01*
X0255942Y0113209D01*
X0256134Y0113230D01*
X0256327Y0113247D01*
X0256520Y0113259D01*
X0256713Y0113266D01*
X0256906Y0113268D01*
X0257099Y0113266D01*
X0257292Y0113259D01*
X0257485Y0113247D01*
X0257678Y0113230D01*
X0257870Y0113209D01*
X0258061Y0113183D01*
X0258252Y0113152D01*
X0258442Y0113117D01*
X0258631Y0113077D01*
X0258819Y0113032D01*
X0259006Y0112983D01*
X0259192Y0112929D01*
X0259376Y0112871D01*
X0259559Y0112808D01*
X0259740Y0112740D01*
X0259919Y0112669D01*
X0260097Y0112592D01*
X0260273Y0112512D01*
X0260446Y0112427D01*
X0260618Y0112338D01*
X0260787Y0112245D01*
X0260954Y0112148D01*
X0261119Y0112046D01*
X0261281Y0111941D01*
X0261440Y0111832D01*
X0261597Y0111718D01*
X0261750Y0111601D01*
X0261901Y0111481D01*
X0262049Y0111356D01*
X0262194Y0111228D01*
X0262335Y0111097D01*
X0262474Y0110962D01*
X0262609Y0110823D01*
X0262740Y0110682D01*
X0262868Y0110537D01*
X0262993Y0110389D01*
X0263113Y0110238D01*
X0263230Y0110085D01*
X0263344Y0109928D01*
X0263453Y0109769D01*
X0263558Y0109607D01*
X0263660Y0109442D01*
X0263757Y0109275D01*
X0263850Y0109106D01*
X0263939Y0108934D01*
X0264024Y0108761D01*
X0264104Y0108585D01*
X0264181Y0108407D01*
X0264252Y0108228D01*
X0264320Y0108047D01*
X0264383Y0107864D01*
X0264441Y0107680D01*
X0264495Y0107494D01*
X0264544Y0107307D01*
X0264589Y0107119D01*
X0264629Y0106930D01*
X0264664Y0106740D01*
X0264695Y0106549D01*
X0264721Y0106358D01*
X0264742Y0106166D01*
X0264759Y0105973D01*
X0264771Y0105780D01*
X0264778Y0105587D01*
X0264780Y0105394D01*
X0264778Y0105201D01*
X0264771Y0105008D01*
X0264759Y0104815D01*
X0264742Y0104622D01*
X0264721Y0104430D01*
X0264695Y0104239D01*
X0264664Y0104048D01*
X0264629Y0103858D01*
X0264589Y0103669D01*
X0264544Y0103481D01*
X0264495Y0103294D01*
X0264441Y0103108D01*
X0264383Y0102924D01*
X0264320Y0102741D01*
X0264252Y0102560D01*
X0264181Y0102381D01*
X0264104Y0102203D01*
X0264024Y0102027D01*
X0263939Y0101854D01*
X0263850Y0101682D01*
X0263757Y0101513D01*
X0263660Y0101346D01*
X0263558Y0101181D01*
X0263453Y0101019D01*
X0263344Y0100860D01*
X0263230Y0100703D01*
X0263113Y0100550D01*
X0262993Y0100399D01*
X0262868Y0100251D01*
X0262740Y0100106D01*
X0262609Y0099965D01*
X0262474Y0099826D01*
X0262335Y0099691D01*
X0262194Y0099560D01*
X0262049Y0099432D01*
X0261901Y0099307D01*
X0261750Y0099187D01*
X0261597Y0099070D01*
X0261440Y0098956D01*
X0261281Y0098847D01*
X0261119Y0098742D01*
X0260954Y0098640D01*
X0260787Y0098543D01*
X0260618Y0098450D01*
X0260446Y0098361D01*
X0260273Y0098276D01*
X0260097Y0098196D01*
X0259919Y0098119D01*
X0259740Y0098048D01*
X0259559Y0097980D01*
X0259376Y0097917D01*
X0259192Y0097859D01*
X0259006Y0097805D01*
X0258819Y0097756D01*
X0258631Y0097711D01*
X0258442Y0097671D01*
X0258252Y0097636D01*
X0258061Y0097605D01*
X0257870Y0097579D01*
X0257678Y0097558D01*
X0257485Y0097541D01*
X0257292Y0097529D01*
X0257099Y0097522D01*
X0256906Y0097520D01*
X0256713Y0097522D01*
X0256520Y0097529D01*
X0256327Y0097541D01*
X0256134Y0097558D01*
X0255942Y0097579D01*
X0255751Y0097605D01*
X0255560Y0097636D01*
X0255370Y0097671D01*
X0255181Y0097711D01*
X0254993Y0097756D01*
X0254806Y0097805D01*
X0254620Y0097859D01*
X0254436Y0097917D01*
X0254253Y0097980D01*
X0254072Y0098048D01*
X0253893Y0098119D01*
X0253715Y0098196D01*
X0253539Y0098276D01*
X0253366Y0098361D01*
X0253194Y0098450D01*
X0253025Y0098543D01*
X0252858Y0098640D01*
X0252693Y0098742D01*
X0252531Y0098847D01*
X0252372Y0098956D01*
X0252215Y0099070D01*
X0252062Y0099187D01*
X0251911Y0099307D01*
X0251763Y0099432D01*
X0251618Y0099560D01*
X0251477Y0099691D01*
X0251338Y0099826D01*
X0251203Y0099965D01*
X0251072Y0100106D01*
X0250944Y0100251D01*
X0250819Y0100399D01*
X0250699Y0100550D01*
X0250582Y0100703D01*
X0250468Y0100860D01*
X0250359Y0101019D01*
X0250254Y0101181D01*
X0250152Y0101346D01*
X0250055Y0101513D01*
X0249962Y0101682D01*
X0249873Y0101854D01*
X0249788Y0102027D01*
X0249708Y0102203D01*
X0249631Y0102381D01*
X0249560Y0102560D01*
X0249492Y0102741D01*
X0249429Y0102924D01*
X0249371Y0103108D01*
X0249317Y0103294D01*
X0249268Y0103481D01*
X0249223Y0103669D01*
X0249183Y0103858D01*
X0249148Y0104048D01*
X0249117Y0104239D01*
X0249091Y0104430D01*
X0249070Y0104622D01*
X0249053Y0104815D01*
X0249041Y0105008D01*
X0249034Y0105201D01*
X0249032Y0105394D01*
X0410449Y0105394D02*
X0410451Y0105587D01*
X0410458Y0105780D01*
X0410470Y0105973D01*
X0410487Y0106166D01*
X0410508Y0106358D01*
X0410534Y0106549D01*
X0410565Y0106740D01*
X0410600Y0106930D01*
X0410640Y0107119D01*
X0410685Y0107307D01*
X0410734Y0107494D01*
X0410788Y0107680D01*
X0410846Y0107864D01*
X0410909Y0108047D01*
X0410977Y0108228D01*
X0411048Y0108407D01*
X0411125Y0108585D01*
X0411205Y0108761D01*
X0411290Y0108934D01*
X0411379Y0109106D01*
X0411472Y0109275D01*
X0411569Y0109442D01*
X0411671Y0109607D01*
X0411776Y0109769D01*
X0411885Y0109928D01*
X0411999Y0110085D01*
X0412116Y0110238D01*
X0412236Y0110389D01*
X0412361Y0110537D01*
X0412489Y0110682D01*
X0412620Y0110823D01*
X0412755Y0110962D01*
X0412894Y0111097D01*
X0413035Y0111228D01*
X0413180Y0111356D01*
X0413328Y0111481D01*
X0413479Y0111601D01*
X0413632Y0111718D01*
X0413789Y0111832D01*
X0413948Y0111941D01*
X0414110Y0112046D01*
X0414275Y0112148D01*
X0414442Y0112245D01*
X0414611Y0112338D01*
X0414783Y0112427D01*
X0414956Y0112512D01*
X0415132Y0112592D01*
X0415310Y0112669D01*
X0415489Y0112740D01*
X0415670Y0112808D01*
X0415853Y0112871D01*
X0416037Y0112929D01*
X0416223Y0112983D01*
X0416410Y0113032D01*
X0416598Y0113077D01*
X0416787Y0113117D01*
X0416977Y0113152D01*
X0417168Y0113183D01*
X0417359Y0113209D01*
X0417551Y0113230D01*
X0417744Y0113247D01*
X0417937Y0113259D01*
X0418130Y0113266D01*
X0418323Y0113268D01*
X0418516Y0113266D01*
X0418709Y0113259D01*
X0418902Y0113247D01*
X0419095Y0113230D01*
X0419287Y0113209D01*
X0419478Y0113183D01*
X0419669Y0113152D01*
X0419859Y0113117D01*
X0420048Y0113077D01*
X0420236Y0113032D01*
X0420423Y0112983D01*
X0420609Y0112929D01*
X0420793Y0112871D01*
X0420976Y0112808D01*
X0421157Y0112740D01*
X0421336Y0112669D01*
X0421514Y0112592D01*
X0421690Y0112512D01*
X0421863Y0112427D01*
X0422035Y0112338D01*
X0422204Y0112245D01*
X0422371Y0112148D01*
X0422536Y0112046D01*
X0422698Y0111941D01*
X0422857Y0111832D01*
X0423014Y0111718D01*
X0423167Y0111601D01*
X0423318Y0111481D01*
X0423466Y0111356D01*
X0423611Y0111228D01*
X0423752Y0111097D01*
X0423891Y0110962D01*
X0424026Y0110823D01*
X0424157Y0110682D01*
X0424285Y0110537D01*
X0424410Y0110389D01*
X0424530Y0110238D01*
X0424647Y0110085D01*
X0424761Y0109928D01*
X0424870Y0109769D01*
X0424975Y0109607D01*
X0425077Y0109442D01*
X0425174Y0109275D01*
X0425267Y0109106D01*
X0425356Y0108934D01*
X0425441Y0108761D01*
X0425521Y0108585D01*
X0425598Y0108407D01*
X0425669Y0108228D01*
X0425737Y0108047D01*
X0425800Y0107864D01*
X0425858Y0107680D01*
X0425912Y0107494D01*
X0425961Y0107307D01*
X0426006Y0107119D01*
X0426046Y0106930D01*
X0426081Y0106740D01*
X0426112Y0106549D01*
X0426138Y0106358D01*
X0426159Y0106166D01*
X0426176Y0105973D01*
X0426188Y0105780D01*
X0426195Y0105587D01*
X0426197Y0105394D01*
X0426195Y0105201D01*
X0426188Y0105008D01*
X0426176Y0104815D01*
X0426159Y0104622D01*
X0426138Y0104430D01*
X0426112Y0104239D01*
X0426081Y0104048D01*
X0426046Y0103858D01*
X0426006Y0103669D01*
X0425961Y0103481D01*
X0425912Y0103294D01*
X0425858Y0103108D01*
X0425800Y0102924D01*
X0425737Y0102741D01*
X0425669Y0102560D01*
X0425598Y0102381D01*
X0425521Y0102203D01*
X0425441Y0102027D01*
X0425356Y0101854D01*
X0425267Y0101682D01*
X0425174Y0101513D01*
X0425077Y0101346D01*
X0424975Y0101181D01*
X0424870Y0101019D01*
X0424761Y0100860D01*
X0424647Y0100703D01*
X0424530Y0100550D01*
X0424410Y0100399D01*
X0424285Y0100251D01*
X0424157Y0100106D01*
X0424026Y0099965D01*
X0423891Y0099826D01*
X0423752Y0099691D01*
X0423611Y0099560D01*
X0423466Y0099432D01*
X0423318Y0099307D01*
X0423167Y0099187D01*
X0423014Y0099070D01*
X0422857Y0098956D01*
X0422698Y0098847D01*
X0422536Y0098742D01*
X0422371Y0098640D01*
X0422204Y0098543D01*
X0422035Y0098450D01*
X0421863Y0098361D01*
X0421690Y0098276D01*
X0421514Y0098196D01*
X0421336Y0098119D01*
X0421157Y0098048D01*
X0420976Y0097980D01*
X0420793Y0097917D01*
X0420609Y0097859D01*
X0420423Y0097805D01*
X0420236Y0097756D01*
X0420048Y0097711D01*
X0419859Y0097671D01*
X0419669Y0097636D01*
X0419478Y0097605D01*
X0419287Y0097579D01*
X0419095Y0097558D01*
X0418902Y0097541D01*
X0418709Y0097529D01*
X0418516Y0097522D01*
X0418323Y0097520D01*
X0418130Y0097522D01*
X0417937Y0097529D01*
X0417744Y0097541D01*
X0417551Y0097558D01*
X0417359Y0097579D01*
X0417168Y0097605D01*
X0416977Y0097636D01*
X0416787Y0097671D01*
X0416598Y0097711D01*
X0416410Y0097756D01*
X0416223Y0097805D01*
X0416037Y0097859D01*
X0415853Y0097917D01*
X0415670Y0097980D01*
X0415489Y0098048D01*
X0415310Y0098119D01*
X0415132Y0098196D01*
X0414956Y0098276D01*
X0414783Y0098361D01*
X0414611Y0098450D01*
X0414442Y0098543D01*
X0414275Y0098640D01*
X0414110Y0098742D01*
X0413948Y0098847D01*
X0413789Y0098956D01*
X0413632Y0099070D01*
X0413479Y0099187D01*
X0413328Y0099307D01*
X0413180Y0099432D01*
X0413035Y0099560D01*
X0412894Y0099691D01*
X0412755Y0099826D01*
X0412620Y0099965D01*
X0412489Y0100106D01*
X0412361Y0100251D01*
X0412236Y0100399D01*
X0412116Y0100550D01*
X0411999Y0100703D01*
X0411885Y0100860D01*
X0411776Y0101019D01*
X0411671Y0101181D01*
X0411569Y0101346D01*
X0411472Y0101513D01*
X0411379Y0101682D01*
X0411290Y0101854D01*
X0411205Y0102027D01*
X0411125Y0102203D01*
X0411048Y0102381D01*
X0410977Y0102560D01*
X0410909Y0102741D01*
X0410846Y0102924D01*
X0410788Y0103108D01*
X0410734Y0103294D01*
X0410685Y0103481D01*
X0410640Y0103669D01*
X0410600Y0103858D01*
X0410565Y0104048D01*
X0410534Y0104239D01*
X0410508Y0104430D01*
X0410487Y0104622D01*
X0410470Y0104815D01*
X0410458Y0105008D01*
X0410451Y0105201D01*
X0410449Y0105394D01*
X0459661Y0105394D02*
X0459663Y0105587D01*
X0459670Y0105780D01*
X0459682Y0105973D01*
X0459699Y0106166D01*
X0459720Y0106358D01*
X0459746Y0106549D01*
X0459777Y0106740D01*
X0459812Y0106930D01*
X0459852Y0107119D01*
X0459897Y0107307D01*
X0459946Y0107494D01*
X0460000Y0107680D01*
X0460058Y0107864D01*
X0460121Y0108047D01*
X0460189Y0108228D01*
X0460260Y0108407D01*
X0460337Y0108585D01*
X0460417Y0108761D01*
X0460502Y0108934D01*
X0460591Y0109106D01*
X0460684Y0109275D01*
X0460781Y0109442D01*
X0460883Y0109607D01*
X0460988Y0109769D01*
X0461097Y0109928D01*
X0461211Y0110085D01*
X0461328Y0110238D01*
X0461448Y0110389D01*
X0461573Y0110537D01*
X0461701Y0110682D01*
X0461832Y0110823D01*
X0461967Y0110962D01*
X0462106Y0111097D01*
X0462247Y0111228D01*
X0462392Y0111356D01*
X0462540Y0111481D01*
X0462691Y0111601D01*
X0462844Y0111718D01*
X0463001Y0111832D01*
X0463160Y0111941D01*
X0463322Y0112046D01*
X0463487Y0112148D01*
X0463654Y0112245D01*
X0463823Y0112338D01*
X0463995Y0112427D01*
X0464168Y0112512D01*
X0464344Y0112592D01*
X0464522Y0112669D01*
X0464701Y0112740D01*
X0464882Y0112808D01*
X0465065Y0112871D01*
X0465249Y0112929D01*
X0465435Y0112983D01*
X0465622Y0113032D01*
X0465810Y0113077D01*
X0465999Y0113117D01*
X0466189Y0113152D01*
X0466380Y0113183D01*
X0466571Y0113209D01*
X0466763Y0113230D01*
X0466956Y0113247D01*
X0467149Y0113259D01*
X0467342Y0113266D01*
X0467535Y0113268D01*
X0467728Y0113266D01*
X0467921Y0113259D01*
X0468114Y0113247D01*
X0468307Y0113230D01*
X0468499Y0113209D01*
X0468690Y0113183D01*
X0468881Y0113152D01*
X0469071Y0113117D01*
X0469260Y0113077D01*
X0469448Y0113032D01*
X0469635Y0112983D01*
X0469821Y0112929D01*
X0470005Y0112871D01*
X0470188Y0112808D01*
X0470369Y0112740D01*
X0470548Y0112669D01*
X0470726Y0112592D01*
X0470902Y0112512D01*
X0471075Y0112427D01*
X0471247Y0112338D01*
X0471416Y0112245D01*
X0471583Y0112148D01*
X0471748Y0112046D01*
X0471910Y0111941D01*
X0472069Y0111832D01*
X0472226Y0111718D01*
X0472379Y0111601D01*
X0472530Y0111481D01*
X0472678Y0111356D01*
X0472823Y0111228D01*
X0472964Y0111097D01*
X0473103Y0110962D01*
X0473238Y0110823D01*
X0473369Y0110682D01*
X0473497Y0110537D01*
X0473622Y0110389D01*
X0473742Y0110238D01*
X0473859Y0110085D01*
X0473973Y0109928D01*
X0474082Y0109769D01*
X0474187Y0109607D01*
X0474289Y0109442D01*
X0474386Y0109275D01*
X0474479Y0109106D01*
X0474568Y0108934D01*
X0474653Y0108761D01*
X0474733Y0108585D01*
X0474810Y0108407D01*
X0474881Y0108228D01*
X0474949Y0108047D01*
X0475012Y0107864D01*
X0475070Y0107680D01*
X0475124Y0107494D01*
X0475173Y0107307D01*
X0475218Y0107119D01*
X0475258Y0106930D01*
X0475293Y0106740D01*
X0475324Y0106549D01*
X0475350Y0106358D01*
X0475371Y0106166D01*
X0475388Y0105973D01*
X0475400Y0105780D01*
X0475407Y0105587D01*
X0475409Y0105394D01*
X0475407Y0105201D01*
X0475400Y0105008D01*
X0475388Y0104815D01*
X0475371Y0104622D01*
X0475350Y0104430D01*
X0475324Y0104239D01*
X0475293Y0104048D01*
X0475258Y0103858D01*
X0475218Y0103669D01*
X0475173Y0103481D01*
X0475124Y0103294D01*
X0475070Y0103108D01*
X0475012Y0102924D01*
X0474949Y0102741D01*
X0474881Y0102560D01*
X0474810Y0102381D01*
X0474733Y0102203D01*
X0474653Y0102027D01*
X0474568Y0101854D01*
X0474479Y0101682D01*
X0474386Y0101513D01*
X0474289Y0101346D01*
X0474187Y0101181D01*
X0474082Y0101019D01*
X0473973Y0100860D01*
X0473859Y0100703D01*
X0473742Y0100550D01*
X0473622Y0100399D01*
X0473497Y0100251D01*
X0473369Y0100106D01*
X0473238Y0099965D01*
X0473103Y0099826D01*
X0472964Y0099691D01*
X0472823Y0099560D01*
X0472678Y0099432D01*
X0472530Y0099307D01*
X0472379Y0099187D01*
X0472226Y0099070D01*
X0472069Y0098956D01*
X0471910Y0098847D01*
X0471748Y0098742D01*
X0471583Y0098640D01*
X0471416Y0098543D01*
X0471247Y0098450D01*
X0471075Y0098361D01*
X0470902Y0098276D01*
X0470726Y0098196D01*
X0470548Y0098119D01*
X0470369Y0098048D01*
X0470188Y0097980D01*
X0470005Y0097917D01*
X0469821Y0097859D01*
X0469635Y0097805D01*
X0469448Y0097756D01*
X0469260Y0097711D01*
X0469071Y0097671D01*
X0468881Y0097636D01*
X0468690Y0097605D01*
X0468499Y0097579D01*
X0468307Y0097558D01*
X0468114Y0097541D01*
X0467921Y0097529D01*
X0467728Y0097522D01*
X0467535Y0097520D01*
X0467342Y0097522D01*
X0467149Y0097529D01*
X0466956Y0097541D01*
X0466763Y0097558D01*
X0466571Y0097579D01*
X0466380Y0097605D01*
X0466189Y0097636D01*
X0465999Y0097671D01*
X0465810Y0097711D01*
X0465622Y0097756D01*
X0465435Y0097805D01*
X0465249Y0097859D01*
X0465065Y0097917D01*
X0464882Y0097980D01*
X0464701Y0098048D01*
X0464522Y0098119D01*
X0464344Y0098196D01*
X0464168Y0098276D01*
X0463995Y0098361D01*
X0463823Y0098450D01*
X0463654Y0098543D01*
X0463487Y0098640D01*
X0463322Y0098742D01*
X0463160Y0098847D01*
X0463001Y0098956D01*
X0462844Y0099070D01*
X0462691Y0099187D01*
X0462540Y0099307D01*
X0462392Y0099432D01*
X0462247Y0099560D01*
X0462106Y0099691D01*
X0461967Y0099826D01*
X0461832Y0099965D01*
X0461701Y0100106D01*
X0461573Y0100251D01*
X0461448Y0100399D01*
X0461328Y0100550D01*
X0461211Y0100703D01*
X0461097Y0100860D01*
X0460988Y0101019D01*
X0460883Y0101181D01*
X0460781Y0101346D01*
X0460684Y0101513D01*
X0460591Y0101682D01*
X0460502Y0101854D01*
X0460417Y0102027D01*
X0460337Y0102203D01*
X0460260Y0102381D01*
X0460189Y0102560D01*
X0460121Y0102741D01*
X0460058Y0102924D01*
X0460000Y0103108D01*
X0459946Y0103294D01*
X0459897Y0103481D01*
X0459852Y0103669D01*
X0459812Y0103858D01*
X0459777Y0104048D01*
X0459746Y0104239D01*
X0459720Y0104430D01*
X0459699Y0104622D01*
X0459682Y0104815D01*
X0459670Y0105008D01*
X0459663Y0105201D01*
X0459661Y0105394D01*
X0550213Y0105394D02*
X0550215Y0105587D01*
X0550222Y0105780D01*
X0550234Y0105973D01*
X0550251Y0106166D01*
X0550272Y0106358D01*
X0550298Y0106549D01*
X0550329Y0106740D01*
X0550364Y0106930D01*
X0550404Y0107119D01*
X0550449Y0107307D01*
X0550498Y0107494D01*
X0550552Y0107680D01*
X0550610Y0107864D01*
X0550673Y0108047D01*
X0550741Y0108228D01*
X0550812Y0108407D01*
X0550889Y0108585D01*
X0550969Y0108761D01*
X0551054Y0108934D01*
X0551143Y0109106D01*
X0551236Y0109275D01*
X0551333Y0109442D01*
X0551435Y0109607D01*
X0551540Y0109769D01*
X0551649Y0109928D01*
X0551763Y0110085D01*
X0551880Y0110238D01*
X0552000Y0110389D01*
X0552125Y0110537D01*
X0552253Y0110682D01*
X0552384Y0110823D01*
X0552519Y0110962D01*
X0552658Y0111097D01*
X0552799Y0111228D01*
X0552944Y0111356D01*
X0553092Y0111481D01*
X0553243Y0111601D01*
X0553396Y0111718D01*
X0553553Y0111832D01*
X0553712Y0111941D01*
X0553874Y0112046D01*
X0554039Y0112148D01*
X0554206Y0112245D01*
X0554375Y0112338D01*
X0554547Y0112427D01*
X0554720Y0112512D01*
X0554896Y0112592D01*
X0555074Y0112669D01*
X0555253Y0112740D01*
X0555434Y0112808D01*
X0555617Y0112871D01*
X0555801Y0112929D01*
X0555987Y0112983D01*
X0556174Y0113032D01*
X0556362Y0113077D01*
X0556551Y0113117D01*
X0556741Y0113152D01*
X0556932Y0113183D01*
X0557123Y0113209D01*
X0557315Y0113230D01*
X0557508Y0113247D01*
X0557701Y0113259D01*
X0557894Y0113266D01*
X0558087Y0113268D01*
X0558280Y0113266D01*
X0558473Y0113259D01*
X0558666Y0113247D01*
X0558859Y0113230D01*
X0559051Y0113209D01*
X0559242Y0113183D01*
X0559433Y0113152D01*
X0559623Y0113117D01*
X0559812Y0113077D01*
X0560000Y0113032D01*
X0560187Y0112983D01*
X0560373Y0112929D01*
X0560557Y0112871D01*
X0560740Y0112808D01*
X0560921Y0112740D01*
X0561100Y0112669D01*
X0561278Y0112592D01*
X0561454Y0112512D01*
X0561627Y0112427D01*
X0561799Y0112338D01*
X0561968Y0112245D01*
X0562135Y0112148D01*
X0562300Y0112046D01*
X0562462Y0111941D01*
X0562621Y0111832D01*
X0562778Y0111718D01*
X0562931Y0111601D01*
X0563082Y0111481D01*
X0563230Y0111356D01*
X0563375Y0111228D01*
X0563516Y0111097D01*
X0563655Y0110962D01*
X0563790Y0110823D01*
X0563921Y0110682D01*
X0564049Y0110537D01*
X0564174Y0110389D01*
X0564294Y0110238D01*
X0564411Y0110085D01*
X0564525Y0109928D01*
X0564634Y0109769D01*
X0564739Y0109607D01*
X0564841Y0109442D01*
X0564938Y0109275D01*
X0565031Y0109106D01*
X0565120Y0108934D01*
X0565205Y0108761D01*
X0565285Y0108585D01*
X0565362Y0108407D01*
X0565433Y0108228D01*
X0565501Y0108047D01*
X0565564Y0107864D01*
X0565622Y0107680D01*
X0565676Y0107494D01*
X0565725Y0107307D01*
X0565770Y0107119D01*
X0565810Y0106930D01*
X0565845Y0106740D01*
X0565876Y0106549D01*
X0565902Y0106358D01*
X0565923Y0106166D01*
X0565940Y0105973D01*
X0565952Y0105780D01*
X0565959Y0105587D01*
X0565961Y0105394D01*
X0565959Y0105201D01*
X0565952Y0105008D01*
X0565940Y0104815D01*
X0565923Y0104622D01*
X0565902Y0104430D01*
X0565876Y0104239D01*
X0565845Y0104048D01*
X0565810Y0103858D01*
X0565770Y0103669D01*
X0565725Y0103481D01*
X0565676Y0103294D01*
X0565622Y0103108D01*
X0565564Y0102924D01*
X0565501Y0102741D01*
X0565433Y0102560D01*
X0565362Y0102381D01*
X0565285Y0102203D01*
X0565205Y0102027D01*
X0565120Y0101854D01*
X0565031Y0101682D01*
X0564938Y0101513D01*
X0564841Y0101346D01*
X0564739Y0101181D01*
X0564634Y0101019D01*
X0564525Y0100860D01*
X0564411Y0100703D01*
X0564294Y0100550D01*
X0564174Y0100399D01*
X0564049Y0100251D01*
X0563921Y0100106D01*
X0563790Y0099965D01*
X0563655Y0099826D01*
X0563516Y0099691D01*
X0563375Y0099560D01*
X0563230Y0099432D01*
X0563082Y0099307D01*
X0562931Y0099187D01*
X0562778Y0099070D01*
X0562621Y0098956D01*
X0562462Y0098847D01*
X0562300Y0098742D01*
X0562135Y0098640D01*
X0561968Y0098543D01*
X0561799Y0098450D01*
X0561627Y0098361D01*
X0561454Y0098276D01*
X0561278Y0098196D01*
X0561100Y0098119D01*
X0560921Y0098048D01*
X0560740Y0097980D01*
X0560557Y0097917D01*
X0560373Y0097859D01*
X0560187Y0097805D01*
X0560000Y0097756D01*
X0559812Y0097711D01*
X0559623Y0097671D01*
X0559433Y0097636D01*
X0559242Y0097605D01*
X0559051Y0097579D01*
X0558859Y0097558D01*
X0558666Y0097541D01*
X0558473Y0097529D01*
X0558280Y0097522D01*
X0558087Y0097520D01*
X0557894Y0097522D01*
X0557701Y0097529D01*
X0557508Y0097541D01*
X0557315Y0097558D01*
X0557123Y0097579D01*
X0556932Y0097605D01*
X0556741Y0097636D01*
X0556551Y0097671D01*
X0556362Y0097711D01*
X0556174Y0097756D01*
X0555987Y0097805D01*
X0555801Y0097859D01*
X0555617Y0097917D01*
X0555434Y0097980D01*
X0555253Y0098048D01*
X0555074Y0098119D01*
X0554896Y0098196D01*
X0554720Y0098276D01*
X0554547Y0098361D01*
X0554375Y0098450D01*
X0554206Y0098543D01*
X0554039Y0098640D01*
X0553874Y0098742D01*
X0553712Y0098847D01*
X0553553Y0098956D01*
X0553396Y0099070D01*
X0553243Y0099187D01*
X0553092Y0099307D01*
X0552944Y0099432D01*
X0552799Y0099560D01*
X0552658Y0099691D01*
X0552519Y0099826D01*
X0552384Y0099965D01*
X0552253Y0100106D01*
X0552125Y0100251D01*
X0552000Y0100399D01*
X0551880Y0100550D01*
X0551763Y0100703D01*
X0551649Y0100860D01*
X0551540Y0101019D01*
X0551435Y0101181D01*
X0551333Y0101346D01*
X0551236Y0101513D01*
X0551143Y0101682D01*
X0551054Y0101854D01*
X0550969Y0102027D01*
X0550889Y0102203D01*
X0550812Y0102381D01*
X0550741Y0102560D01*
X0550673Y0102741D01*
X0550610Y0102924D01*
X0550552Y0103108D01*
X0550498Y0103294D01*
X0550449Y0103481D01*
X0550404Y0103669D01*
X0550364Y0103858D01*
X0550329Y0104048D01*
X0550298Y0104239D01*
X0550272Y0104430D01*
X0550251Y0104622D01*
X0550234Y0104815D01*
X0550222Y0105008D01*
X0550215Y0105201D01*
X0550213Y0105394D01*
X0884071Y0136890D02*
X0884073Y0137083D01*
X0884080Y0137276D01*
X0884092Y0137469D01*
X0884109Y0137662D01*
X0884130Y0137854D01*
X0884156Y0138045D01*
X0884187Y0138236D01*
X0884222Y0138426D01*
X0884262Y0138615D01*
X0884307Y0138803D01*
X0884356Y0138990D01*
X0884410Y0139176D01*
X0884468Y0139360D01*
X0884531Y0139543D01*
X0884599Y0139724D01*
X0884670Y0139903D01*
X0884747Y0140081D01*
X0884827Y0140257D01*
X0884912Y0140430D01*
X0885001Y0140602D01*
X0885094Y0140771D01*
X0885191Y0140938D01*
X0885293Y0141103D01*
X0885398Y0141265D01*
X0885507Y0141424D01*
X0885621Y0141581D01*
X0885738Y0141734D01*
X0885858Y0141885D01*
X0885983Y0142033D01*
X0886111Y0142178D01*
X0886242Y0142319D01*
X0886377Y0142458D01*
X0886516Y0142593D01*
X0886657Y0142724D01*
X0886802Y0142852D01*
X0886950Y0142977D01*
X0887101Y0143097D01*
X0887254Y0143214D01*
X0887411Y0143328D01*
X0887570Y0143437D01*
X0887732Y0143542D01*
X0887897Y0143644D01*
X0888064Y0143741D01*
X0888233Y0143834D01*
X0888405Y0143923D01*
X0888578Y0144008D01*
X0888754Y0144088D01*
X0888932Y0144165D01*
X0889111Y0144236D01*
X0889292Y0144304D01*
X0889475Y0144367D01*
X0889659Y0144425D01*
X0889845Y0144479D01*
X0890032Y0144528D01*
X0890220Y0144573D01*
X0890409Y0144613D01*
X0890599Y0144648D01*
X0890790Y0144679D01*
X0890981Y0144705D01*
X0891173Y0144726D01*
X0891366Y0144743D01*
X0891559Y0144755D01*
X0891752Y0144762D01*
X0891945Y0144764D01*
X0892138Y0144762D01*
X0892331Y0144755D01*
X0892524Y0144743D01*
X0892717Y0144726D01*
X0892909Y0144705D01*
X0893100Y0144679D01*
X0893291Y0144648D01*
X0893481Y0144613D01*
X0893670Y0144573D01*
X0893858Y0144528D01*
X0894045Y0144479D01*
X0894231Y0144425D01*
X0894415Y0144367D01*
X0894598Y0144304D01*
X0894779Y0144236D01*
X0894958Y0144165D01*
X0895136Y0144088D01*
X0895312Y0144008D01*
X0895485Y0143923D01*
X0895657Y0143834D01*
X0895826Y0143741D01*
X0895993Y0143644D01*
X0896158Y0143542D01*
X0896320Y0143437D01*
X0896479Y0143328D01*
X0896636Y0143214D01*
X0896789Y0143097D01*
X0896940Y0142977D01*
X0897088Y0142852D01*
X0897233Y0142724D01*
X0897374Y0142593D01*
X0897513Y0142458D01*
X0897648Y0142319D01*
X0897779Y0142178D01*
X0897907Y0142033D01*
X0898032Y0141885D01*
X0898152Y0141734D01*
X0898269Y0141581D01*
X0898383Y0141424D01*
X0898492Y0141265D01*
X0898597Y0141103D01*
X0898699Y0140938D01*
X0898796Y0140771D01*
X0898889Y0140602D01*
X0898978Y0140430D01*
X0899063Y0140257D01*
X0899143Y0140081D01*
X0899220Y0139903D01*
X0899291Y0139724D01*
X0899359Y0139543D01*
X0899422Y0139360D01*
X0899480Y0139176D01*
X0899534Y0138990D01*
X0899583Y0138803D01*
X0899628Y0138615D01*
X0899668Y0138426D01*
X0899703Y0138236D01*
X0899734Y0138045D01*
X0899760Y0137854D01*
X0899781Y0137662D01*
X0899798Y0137469D01*
X0899810Y0137276D01*
X0899817Y0137083D01*
X0899819Y0136890D01*
X0899817Y0136697D01*
X0899810Y0136504D01*
X0899798Y0136311D01*
X0899781Y0136118D01*
X0899760Y0135926D01*
X0899734Y0135735D01*
X0899703Y0135544D01*
X0899668Y0135354D01*
X0899628Y0135165D01*
X0899583Y0134977D01*
X0899534Y0134790D01*
X0899480Y0134604D01*
X0899422Y0134420D01*
X0899359Y0134237D01*
X0899291Y0134056D01*
X0899220Y0133877D01*
X0899143Y0133699D01*
X0899063Y0133523D01*
X0898978Y0133350D01*
X0898889Y0133178D01*
X0898796Y0133009D01*
X0898699Y0132842D01*
X0898597Y0132677D01*
X0898492Y0132515D01*
X0898383Y0132356D01*
X0898269Y0132199D01*
X0898152Y0132046D01*
X0898032Y0131895D01*
X0897907Y0131747D01*
X0897779Y0131602D01*
X0897648Y0131461D01*
X0897513Y0131322D01*
X0897374Y0131187D01*
X0897233Y0131056D01*
X0897088Y0130928D01*
X0896940Y0130803D01*
X0896789Y0130683D01*
X0896636Y0130566D01*
X0896479Y0130452D01*
X0896320Y0130343D01*
X0896158Y0130238D01*
X0895993Y0130136D01*
X0895826Y0130039D01*
X0895657Y0129946D01*
X0895485Y0129857D01*
X0895312Y0129772D01*
X0895136Y0129692D01*
X0894958Y0129615D01*
X0894779Y0129544D01*
X0894598Y0129476D01*
X0894415Y0129413D01*
X0894231Y0129355D01*
X0894045Y0129301D01*
X0893858Y0129252D01*
X0893670Y0129207D01*
X0893481Y0129167D01*
X0893291Y0129132D01*
X0893100Y0129101D01*
X0892909Y0129075D01*
X0892717Y0129054D01*
X0892524Y0129037D01*
X0892331Y0129025D01*
X0892138Y0129018D01*
X0891945Y0129016D01*
X0891752Y0129018D01*
X0891559Y0129025D01*
X0891366Y0129037D01*
X0891173Y0129054D01*
X0890981Y0129075D01*
X0890790Y0129101D01*
X0890599Y0129132D01*
X0890409Y0129167D01*
X0890220Y0129207D01*
X0890032Y0129252D01*
X0889845Y0129301D01*
X0889659Y0129355D01*
X0889475Y0129413D01*
X0889292Y0129476D01*
X0889111Y0129544D01*
X0888932Y0129615D01*
X0888754Y0129692D01*
X0888578Y0129772D01*
X0888405Y0129857D01*
X0888233Y0129946D01*
X0888064Y0130039D01*
X0887897Y0130136D01*
X0887732Y0130238D01*
X0887570Y0130343D01*
X0887411Y0130452D01*
X0887254Y0130566D01*
X0887101Y0130683D01*
X0886950Y0130803D01*
X0886802Y0130928D01*
X0886657Y0131056D01*
X0886516Y0131187D01*
X0886377Y0131322D01*
X0886242Y0131461D01*
X0886111Y0131602D01*
X0885983Y0131747D01*
X0885858Y0131895D01*
X0885738Y0132046D01*
X0885621Y0132199D01*
X0885507Y0132356D01*
X0885398Y0132515D01*
X0885293Y0132677D01*
X0885191Y0132842D01*
X0885094Y0133009D01*
X0885001Y0133178D01*
X0884912Y0133350D01*
X0884827Y0133523D01*
X0884747Y0133699D01*
X0884670Y0133877D01*
X0884599Y0134056D01*
X0884531Y0134237D01*
X0884468Y0134420D01*
X0884410Y0134604D01*
X0884356Y0134790D01*
X0884307Y0134977D01*
X0884262Y0135165D01*
X0884222Y0135354D01*
X0884187Y0135544D01*
X0884156Y0135735D01*
X0884130Y0135926D01*
X0884109Y0136118D01*
X0884092Y0136311D01*
X0884080Y0136504D01*
X0884073Y0136697D01*
X0884071Y0136890D01*
X0915567Y0136890D02*
X0915569Y0137083D01*
X0915576Y0137276D01*
X0915588Y0137469D01*
X0915605Y0137662D01*
X0915626Y0137854D01*
X0915652Y0138045D01*
X0915683Y0138236D01*
X0915718Y0138426D01*
X0915758Y0138615D01*
X0915803Y0138803D01*
X0915852Y0138990D01*
X0915906Y0139176D01*
X0915964Y0139360D01*
X0916027Y0139543D01*
X0916095Y0139724D01*
X0916166Y0139903D01*
X0916243Y0140081D01*
X0916323Y0140257D01*
X0916408Y0140430D01*
X0916497Y0140602D01*
X0916590Y0140771D01*
X0916687Y0140938D01*
X0916789Y0141103D01*
X0916894Y0141265D01*
X0917003Y0141424D01*
X0917117Y0141581D01*
X0917234Y0141734D01*
X0917354Y0141885D01*
X0917479Y0142033D01*
X0917607Y0142178D01*
X0917738Y0142319D01*
X0917873Y0142458D01*
X0918012Y0142593D01*
X0918153Y0142724D01*
X0918298Y0142852D01*
X0918446Y0142977D01*
X0918597Y0143097D01*
X0918750Y0143214D01*
X0918907Y0143328D01*
X0919066Y0143437D01*
X0919228Y0143542D01*
X0919393Y0143644D01*
X0919560Y0143741D01*
X0919729Y0143834D01*
X0919901Y0143923D01*
X0920074Y0144008D01*
X0920250Y0144088D01*
X0920428Y0144165D01*
X0920607Y0144236D01*
X0920788Y0144304D01*
X0920971Y0144367D01*
X0921155Y0144425D01*
X0921341Y0144479D01*
X0921528Y0144528D01*
X0921716Y0144573D01*
X0921905Y0144613D01*
X0922095Y0144648D01*
X0922286Y0144679D01*
X0922477Y0144705D01*
X0922669Y0144726D01*
X0922862Y0144743D01*
X0923055Y0144755D01*
X0923248Y0144762D01*
X0923441Y0144764D01*
X0923634Y0144762D01*
X0923827Y0144755D01*
X0924020Y0144743D01*
X0924213Y0144726D01*
X0924405Y0144705D01*
X0924596Y0144679D01*
X0924787Y0144648D01*
X0924977Y0144613D01*
X0925166Y0144573D01*
X0925354Y0144528D01*
X0925541Y0144479D01*
X0925727Y0144425D01*
X0925911Y0144367D01*
X0926094Y0144304D01*
X0926275Y0144236D01*
X0926454Y0144165D01*
X0926632Y0144088D01*
X0926808Y0144008D01*
X0926981Y0143923D01*
X0927153Y0143834D01*
X0927322Y0143741D01*
X0927489Y0143644D01*
X0927654Y0143542D01*
X0927816Y0143437D01*
X0927975Y0143328D01*
X0928132Y0143214D01*
X0928285Y0143097D01*
X0928436Y0142977D01*
X0928584Y0142852D01*
X0928729Y0142724D01*
X0928870Y0142593D01*
X0929009Y0142458D01*
X0929144Y0142319D01*
X0929275Y0142178D01*
X0929403Y0142033D01*
X0929528Y0141885D01*
X0929648Y0141734D01*
X0929765Y0141581D01*
X0929879Y0141424D01*
X0929988Y0141265D01*
X0930093Y0141103D01*
X0930195Y0140938D01*
X0930292Y0140771D01*
X0930385Y0140602D01*
X0930474Y0140430D01*
X0930559Y0140257D01*
X0930639Y0140081D01*
X0930716Y0139903D01*
X0930787Y0139724D01*
X0930855Y0139543D01*
X0930918Y0139360D01*
X0930976Y0139176D01*
X0931030Y0138990D01*
X0931079Y0138803D01*
X0931124Y0138615D01*
X0931164Y0138426D01*
X0931199Y0138236D01*
X0931230Y0138045D01*
X0931256Y0137854D01*
X0931277Y0137662D01*
X0931294Y0137469D01*
X0931306Y0137276D01*
X0931313Y0137083D01*
X0931315Y0136890D01*
X0931313Y0136697D01*
X0931306Y0136504D01*
X0931294Y0136311D01*
X0931277Y0136118D01*
X0931256Y0135926D01*
X0931230Y0135735D01*
X0931199Y0135544D01*
X0931164Y0135354D01*
X0931124Y0135165D01*
X0931079Y0134977D01*
X0931030Y0134790D01*
X0930976Y0134604D01*
X0930918Y0134420D01*
X0930855Y0134237D01*
X0930787Y0134056D01*
X0930716Y0133877D01*
X0930639Y0133699D01*
X0930559Y0133523D01*
X0930474Y0133350D01*
X0930385Y0133178D01*
X0930292Y0133009D01*
X0930195Y0132842D01*
X0930093Y0132677D01*
X0929988Y0132515D01*
X0929879Y0132356D01*
X0929765Y0132199D01*
X0929648Y0132046D01*
X0929528Y0131895D01*
X0929403Y0131747D01*
X0929275Y0131602D01*
X0929144Y0131461D01*
X0929009Y0131322D01*
X0928870Y0131187D01*
X0928729Y0131056D01*
X0928584Y0130928D01*
X0928436Y0130803D01*
X0928285Y0130683D01*
X0928132Y0130566D01*
X0927975Y0130452D01*
X0927816Y0130343D01*
X0927654Y0130238D01*
X0927489Y0130136D01*
X0927322Y0130039D01*
X0927153Y0129946D01*
X0926981Y0129857D01*
X0926808Y0129772D01*
X0926632Y0129692D01*
X0926454Y0129615D01*
X0926275Y0129544D01*
X0926094Y0129476D01*
X0925911Y0129413D01*
X0925727Y0129355D01*
X0925541Y0129301D01*
X0925354Y0129252D01*
X0925166Y0129207D01*
X0924977Y0129167D01*
X0924787Y0129132D01*
X0924596Y0129101D01*
X0924405Y0129075D01*
X0924213Y0129054D01*
X0924020Y0129037D01*
X0923827Y0129025D01*
X0923634Y0129018D01*
X0923441Y0129016D01*
X0923248Y0129018D01*
X0923055Y0129025D01*
X0922862Y0129037D01*
X0922669Y0129054D01*
X0922477Y0129075D01*
X0922286Y0129101D01*
X0922095Y0129132D01*
X0921905Y0129167D01*
X0921716Y0129207D01*
X0921528Y0129252D01*
X0921341Y0129301D01*
X0921155Y0129355D01*
X0920971Y0129413D01*
X0920788Y0129476D01*
X0920607Y0129544D01*
X0920428Y0129615D01*
X0920250Y0129692D01*
X0920074Y0129772D01*
X0919901Y0129857D01*
X0919729Y0129946D01*
X0919560Y0130039D01*
X0919393Y0130136D01*
X0919228Y0130238D01*
X0919066Y0130343D01*
X0918907Y0130452D01*
X0918750Y0130566D01*
X0918597Y0130683D01*
X0918446Y0130803D01*
X0918298Y0130928D01*
X0918153Y0131056D01*
X0918012Y0131187D01*
X0917873Y0131322D01*
X0917738Y0131461D01*
X0917607Y0131602D01*
X0917479Y0131747D01*
X0917354Y0131895D01*
X0917234Y0132046D01*
X0917117Y0132199D01*
X0917003Y0132356D01*
X0916894Y0132515D01*
X0916789Y0132677D01*
X0916687Y0132842D01*
X0916590Y0133009D01*
X0916497Y0133178D01*
X0916408Y0133350D01*
X0916323Y0133523D01*
X0916243Y0133699D01*
X0916166Y0133877D01*
X0916095Y0134056D01*
X0916027Y0134237D01*
X0915964Y0134420D01*
X0915906Y0134604D01*
X0915852Y0134790D01*
X0915803Y0134977D01*
X0915758Y0135165D01*
X0915718Y0135354D01*
X0915683Y0135544D01*
X0915652Y0135735D01*
X0915626Y0135926D01*
X0915605Y0136118D01*
X0915588Y0136311D01*
X0915576Y0136504D01*
X0915569Y0136697D01*
X0915567Y0136890D01*
X0924622Y0544370D02*
X0924624Y0544523D01*
X0924630Y0544677D01*
X0924640Y0544830D01*
X0924654Y0544982D01*
X0924672Y0545135D01*
X0924694Y0545286D01*
X0924719Y0545437D01*
X0924749Y0545588D01*
X0924783Y0545738D01*
X0924820Y0545886D01*
X0924861Y0546034D01*
X0924906Y0546180D01*
X0924955Y0546326D01*
X0925008Y0546470D01*
X0925064Y0546612D01*
X0925124Y0546753D01*
X0925188Y0546893D01*
X0925255Y0547031D01*
X0925326Y0547167D01*
X0925401Y0547301D01*
X0925478Y0547433D01*
X0925560Y0547563D01*
X0925644Y0547691D01*
X0925732Y0547817D01*
X0925823Y0547940D01*
X0925917Y0548061D01*
X0926015Y0548179D01*
X0926115Y0548295D01*
X0926219Y0548408D01*
X0926325Y0548519D01*
X0926434Y0548627D01*
X0926546Y0548732D01*
X0926660Y0548833D01*
X0926778Y0548932D01*
X0926897Y0549028D01*
X0927019Y0549121D01*
X0927144Y0549210D01*
X0927271Y0549297D01*
X0927400Y0549379D01*
X0927531Y0549459D01*
X0927664Y0549535D01*
X0927799Y0549608D01*
X0927936Y0549677D01*
X0928075Y0549742D01*
X0928215Y0549804D01*
X0928357Y0549862D01*
X0928500Y0549917D01*
X0928645Y0549968D01*
X0928791Y0550015D01*
X0928938Y0550058D01*
X0929086Y0550097D01*
X0929235Y0550133D01*
X0929385Y0550164D01*
X0929536Y0550192D01*
X0929687Y0550216D01*
X0929840Y0550236D01*
X0929992Y0550252D01*
X0930145Y0550264D01*
X0930298Y0550272D01*
X0930451Y0550276D01*
X0930605Y0550276D01*
X0930758Y0550272D01*
X0930911Y0550264D01*
X0931064Y0550252D01*
X0931216Y0550236D01*
X0931369Y0550216D01*
X0931520Y0550192D01*
X0931671Y0550164D01*
X0931821Y0550133D01*
X0931970Y0550097D01*
X0932118Y0550058D01*
X0932265Y0550015D01*
X0932411Y0549968D01*
X0932556Y0549917D01*
X0932699Y0549862D01*
X0932841Y0549804D01*
X0932981Y0549742D01*
X0933120Y0549677D01*
X0933257Y0549608D01*
X0933392Y0549535D01*
X0933525Y0549459D01*
X0933656Y0549379D01*
X0933785Y0549297D01*
X0933912Y0549210D01*
X0934037Y0549121D01*
X0934159Y0549028D01*
X0934278Y0548932D01*
X0934396Y0548833D01*
X0934510Y0548732D01*
X0934622Y0548627D01*
X0934731Y0548519D01*
X0934837Y0548408D01*
X0934941Y0548295D01*
X0935041Y0548179D01*
X0935139Y0548061D01*
X0935233Y0547940D01*
X0935324Y0547817D01*
X0935412Y0547691D01*
X0935496Y0547563D01*
X0935578Y0547433D01*
X0935655Y0547301D01*
X0935730Y0547167D01*
X0935801Y0547031D01*
X0935868Y0546893D01*
X0935932Y0546753D01*
X0935992Y0546612D01*
X0936048Y0546470D01*
X0936101Y0546326D01*
X0936150Y0546180D01*
X0936195Y0546034D01*
X0936236Y0545886D01*
X0936273Y0545738D01*
X0936307Y0545588D01*
X0936337Y0545437D01*
X0936362Y0545286D01*
X0936384Y0545135D01*
X0936402Y0544982D01*
X0936416Y0544830D01*
X0936426Y0544677D01*
X0936432Y0544523D01*
X0936434Y0544370D01*
X0936432Y0544217D01*
X0936426Y0544063D01*
X0936416Y0543910D01*
X0936402Y0543758D01*
X0936384Y0543605D01*
X0936362Y0543454D01*
X0936337Y0543303D01*
X0936307Y0543152D01*
X0936273Y0543002D01*
X0936236Y0542854D01*
X0936195Y0542706D01*
X0936150Y0542560D01*
X0936101Y0542414D01*
X0936048Y0542270D01*
X0935992Y0542128D01*
X0935932Y0541987D01*
X0935868Y0541847D01*
X0935801Y0541709D01*
X0935730Y0541573D01*
X0935655Y0541439D01*
X0935578Y0541307D01*
X0935496Y0541177D01*
X0935412Y0541049D01*
X0935324Y0540923D01*
X0935233Y0540800D01*
X0935139Y0540679D01*
X0935041Y0540561D01*
X0934941Y0540445D01*
X0934837Y0540332D01*
X0934731Y0540221D01*
X0934622Y0540113D01*
X0934510Y0540008D01*
X0934396Y0539907D01*
X0934278Y0539808D01*
X0934159Y0539712D01*
X0934037Y0539619D01*
X0933912Y0539530D01*
X0933785Y0539443D01*
X0933656Y0539361D01*
X0933525Y0539281D01*
X0933392Y0539205D01*
X0933257Y0539132D01*
X0933120Y0539063D01*
X0932981Y0538998D01*
X0932841Y0538936D01*
X0932699Y0538878D01*
X0932556Y0538823D01*
X0932411Y0538772D01*
X0932265Y0538725D01*
X0932118Y0538682D01*
X0931970Y0538643D01*
X0931821Y0538607D01*
X0931671Y0538576D01*
X0931520Y0538548D01*
X0931369Y0538524D01*
X0931216Y0538504D01*
X0931064Y0538488D01*
X0930911Y0538476D01*
X0930758Y0538468D01*
X0930605Y0538464D01*
X0930451Y0538464D01*
X0930298Y0538468D01*
X0930145Y0538476D01*
X0929992Y0538488D01*
X0929840Y0538504D01*
X0929687Y0538524D01*
X0929536Y0538548D01*
X0929385Y0538576D01*
X0929235Y0538607D01*
X0929086Y0538643D01*
X0928938Y0538682D01*
X0928791Y0538725D01*
X0928645Y0538772D01*
X0928500Y0538823D01*
X0928357Y0538878D01*
X0928215Y0538936D01*
X0928075Y0538998D01*
X0927936Y0539063D01*
X0927799Y0539132D01*
X0927664Y0539205D01*
X0927531Y0539281D01*
X0927400Y0539361D01*
X0927271Y0539443D01*
X0927144Y0539530D01*
X0927019Y0539619D01*
X0926897Y0539712D01*
X0926778Y0539808D01*
X0926660Y0539907D01*
X0926546Y0540008D01*
X0926434Y0540113D01*
X0926325Y0540221D01*
X0926219Y0540332D01*
X0926115Y0540445D01*
X0926015Y0540561D01*
X0925917Y0540679D01*
X0925823Y0540800D01*
X0925732Y0540923D01*
X0925644Y0541049D01*
X0925560Y0541177D01*
X0925478Y0541307D01*
X0925401Y0541439D01*
X0925326Y0541573D01*
X0925255Y0541709D01*
X0925188Y0541847D01*
X0925124Y0541987D01*
X0925064Y0542128D01*
X0925008Y0542270D01*
X0924955Y0542414D01*
X0924906Y0542560D01*
X0924861Y0542706D01*
X0924820Y0542854D01*
X0924783Y0543002D01*
X0924749Y0543152D01*
X0924719Y0543303D01*
X0924694Y0543454D01*
X0924672Y0543605D01*
X0924654Y0543758D01*
X0924640Y0543910D01*
X0924630Y0544063D01*
X0924624Y0544217D01*
X0924622Y0544370D01*
X0015173Y0544370D02*
X0015175Y0544523D01*
X0015181Y0544677D01*
X0015191Y0544830D01*
X0015205Y0544982D01*
X0015223Y0545135D01*
X0015245Y0545286D01*
X0015270Y0545437D01*
X0015300Y0545588D01*
X0015334Y0545738D01*
X0015371Y0545886D01*
X0015412Y0546034D01*
X0015457Y0546180D01*
X0015506Y0546326D01*
X0015559Y0546470D01*
X0015615Y0546612D01*
X0015675Y0546753D01*
X0015739Y0546893D01*
X0015806Y0547031D01*
X0015877Y0547167D01*
X0015952Y0547301D01*
X0016029Y0547433D01*
X0016111Y0547563D01*
X0016195Y0547691D01*
X0016283Y0547817D01*
X0016374Y0547940D01*
X0016468Y0548061D01*
X0016566Y0548179D01*
X0016666Y0548295D01*
X0016770Y0548408D01*
X0016876Y0548519D01*
X0016985Y0548627D01*
X0017097Y0548732D01*
X0017211Y0548833D01*
X0017329Y0548932D01*
X0017448Y0549028D01*
X0017570Y0549121D01*
X0017695Y0549210D01*
X0017822Y0549297D01*
X0017951Y0549379D01*
X0018082Y0549459D01*
X0018215Y0549535D01*
X0018350Y0549608D01*
X0018487Y0549677D01*
X0018626Y0549742D01*
X0018766Y0549804D01*
X0018908Y0549862D01*
X0019051Y0549917D01*
X0019196Y0549968D01*
X0019342Y0550015D01*
X0019489Y0550058D01*
X0019637Y0550097D01*
X0019786Y0550133D01*
X0019936Y0550164D01*
X0020087Y0550192D01*
X0020238Y0550216D01*
X0020391Y0550236D01*
X0020543Y0550252D01*
X0020696Y0550264D01*
X0020849Y0550272D01*
X0021002Y0550276D01*
X0021156Y0550276D01*
X0021309Y0550272D01*
X0021462Y0550264D01*
X0021615Y0550252D01*
X0021767Y0550236D01*
X0021920Y0550216D01*
X0022071Y0550192D01*
X0022222Y0550164D01*
X0022372Y0550133D01*
X0022521Y0550097D01*
X0022669Y0550058D01*
X0022816Y0550015D01*
X0022962Y0549968D01*
X0023107Y0549917D01*
X0023250Y0549862D01*
X0023392Y0549804D01*
X0023532Y0549742D01*
X0023671Y0549677D01*
X0023808Y0549608D01*
X0023943Y0549535D01*
X0024076Y0549459D01*
X0024207Y0549379D01*
X0024336Y0549297D01*
X0024463Y0549210D01*
X0024588Y0549121D01*
X0024710Y0549028D01*
X0024829Y0548932D01*
X0024947Y0548833D01*
X0025061Y0548732D01*
X0025173Y0548627D01*
X0025282Y0548519D01*
X0025388Y0548408D01*
X0025492Y0548295D01*
X0025592Y0548179D01*
X0025690Y0548061D01*
X0025784Y0547940D01*
X0025875Y0547817D01*
X0025963Y0547691D01*
X0026047Y0547563D01*
X0026129Y0547433D01*
X0026206Y0547301D01*
X0026281Y0547167D01*
X0026352Y0547031D01*
X0026419Y0546893D01*
X0026483Y0546753D01*
X0026543Y0546612D01*
X0026599Y0546470D01*
X0026652Y0546326D01*
X0026701Y0546180D01*
X0026746Y0546034D01*
X0026787Y0545886D01*
X0026824Y0545738D01*
X0026858Y0545588D01*
X0026888Y0545437D01*
X0026913Y0545286D01*
X0026935Y0545135D01*
X0026953Y0544982D01*
X0026967Y0544830D01*
X0026977Y0544677D01*
X0026983Y0544523D01*
X0026985Y0544370D01*
X0026983Y0544217D01*
X0026977Y0544063D01*
X0026967Y0543910D01*
X0026953Y0543758D01*
X0026935Y0543605D01*
X0026913Y0543454D01*
X0026888Y0543303D01*
X0026858Y0543152D01*
X0026824Y0543002D01*
X0026787Y0542854D01*
X0026746Y0542706D01*
X0026701Y0542560D01*
X0026652Y0542414D01*
X0026599Y0542270D01*
X0026543Y0542128D01*
X0026483Y0541987D01*
X0026419Y0541847D01*
X0026352Y0541709D01*
X0026281Y0541573D01*
X0026206Y0541439D01*
X0026129Y0541307D01*
X0026047Y0541177D01*
X0025963Y0541049D01*
X0025875Y0540923D01*
X0025784Y0540800D01*
X0025690Y0540679D01*
X0025592Y0540561D01*
X0025492Y0540445D01*
X0025388Y0540332D01*
X0025282Y0540221D01*
X0025173Y0540113D01*
X0025061Y0540008D01*
X0024947Y0539907D01*
X0024829Y0539808D01*
X0024710Y0539712D01*
X0024588Y0539619D01*
X0024463Y0539530D01*
X0024336Y0539443D01*
X0024207Y0539361D01*
X0024076Y0539281D01*
X0023943Y0539205D01*
X0023808Y0539132D01*
X0023671Y0539063D01*
X0023532Y0538998D01*
X0023392Y0538936D01*
X0023250Y0538878D01*
X0023107Y0538823D01*
X0022962Y0538772D01*
X0022816Y0538725D01*
X0022669Y0538682D01*
X0022521Y0538643D01*
X0022372Y0538607D01*
X0022222Y0538576D01*
X0022071Y0538548D01*
X0021920Y0538524D01*
X0021767Y0538504D01*
X0021615Y0538488D01*
X0021462Y0538476D01*
X0021309Y0538468D01*
X0021156Y0538464D01*
X0021002Y0538464D01*
X0020849Y0538468D01*
X0020696Y0538476D01*
X0020543Y0538488D01*
X0020391Y0538504D01*
X0020238Y0538524D01*
X0020087Y0538548D01*
X0019936Y0538576D01*
X0019786Y0538607D01*
X0019637Y0538643D01*
X0019489Y0538682D01*
X0019342Y0538725D01*
X0019196Y0538772D01*
X0019051Y0538823D01*
X0018908Y0538878D01*
X0018766Y0538936D01*
X0018626Y0538998D01*
X0018487Y0539063D01*
X0018350Y0539132D01*
X0018215Y0539205D01*
X0018082Y0539281D01*
X0017951Y0539361D01*
X0017822Y0539443D01*
X0017695Y0539530D01*
X0017570Y0539619D01*
X0017448Y0539712D01*
X0017329Y0539808D01*
X0017211Y0539907D01*
X0017097Y0540008D01*
X0016985Y0540113D01*
X0016876Y0540221D01*
X0016770Y0540332D01*
X0016666Y0540445D01*
X0016566Y0540561D01*
X0016468Y0540679D01*
X0016374Y0540800D01*
X0016283Y0540923D01*
X0016195Y0541049D01*
X0016111Y0541177D01*
X0016029Y0541307D01*
X0015952Y0541439D01*
X0015877Y0541573D01*
X0015806Y0541709D01*
X0015739Y0541847D01*
X0015675Y0541987D01*
X0015615Y0542128D01*
X0015559Y0542270D01*
X0015506Y0542414D01*
X0015457Y0542560D01*
X0015412Y0542706D01*
X0015371Y0542854D01*
X0015334Y0543002D01*
X0015300Y0543152D01*
X0015270Y0543303D01*
X0015245Y0543454D01*
X0015223Y0543605D01*
X0015205Y0543758D01*
X0015191Y0543910D01*
X0015181Y0544063D01*
X0015175Y0544217D01*
X0015173Y0544370D01*
D11*
X0003362Y0067992D02*
X0621866Y0067992D01*
X0621866Y0006969D01*
X0621859Y0006887D01*
X0621855Y0006805D01*
X0621856Y0006722D01*
X0621860Y0006640D01*
X0621868Y0006558D01*
X0621880Y0006476D01*
X0621895Y0006396D01*
X0621914Y0006315D01*
X0621937Y0006236D01*
X0621964Y0006158D01*
X0621994Y0006082D01*
X0622028Y0006007D01*
X0622065Y0005933D01*
X0622105Y0005861D01*
X0622149Y0005791D01*
X0622196Y0005724D01*
X0622246Y0005658D01*
X0622299Y0005595D01*
X0622354Y0005534D01*
X0622413Y0005476D01*
X0622474Y0005421D01*
X0622538Y0005369D01*
X0622604Y0005320D01*
X0622672Y0005273D01*
X0622742Y0005230D01*
X0622814Y0005191D01*
X0622888Y0005154D01*
X0622964Y0005121D01*
X0623041Y0005092D01*
X0623119Y0005066D01*
X0623198Y0005044D01*
X0623278Y0005026D01*
X0623359Y0005011D01*
X0623441Y0005000D01*
X0916748Y0005000D01*
X0916834Y0005002D01*
X0916920Y0005007D01*
X0917005Y0005017D01*
X0917090Y0005030D01*
X0917174Y0005047D01*
X0917258Y0005067D01*
X0917340Y0005091D01*
X0917421Y0005119D01*
X0917502Y0005150D01*
X0917580Y0005184D01*
X0917657Y0005222D01*
X0917733Y0005264D01*
X0917806Y0005308D01*
X0917877Y0005356D01*
X0917947Y0005407D01*
X0918014Y0005461D01*
X0918078Y0005517D01*
X0918140Y0005577D01*
X0918200Y0005639D01*
X0918256Y0005703D01*
X0918310Y0005770D01*
X0918361Y0005840D01*
X0918409Y0005911D01*
X0918453Y0005984D01*
X0918495Y0006060D01*
X0918533Y0006137D01*
X0918567Y0006215D01*
X0918598Y0006296D01*
X0918626Y0006377D01*
X0918650Y0006459D01*
X0918670Y0006543D01*
X0918687Y0006627D01*
X0918700Y0006712D01*
X0918710Y0006797D01*
X0918715Y0006883D01*
X0918717Y0006969D01*
X0918717Y0067992D01*
X0948244Y0067992D01*
X0948330Y0067994D01*
X0948416Y0067999D01*
X0948501Y0068009D01*
X0948586Y0068022D01*
X0948670Y0068039D01*
X0948754Y0068059D01*
X0948836Y0068083D01*
X0948917Y0068111D01*
X0948998Y0068142D01*
X0949076Y0068176D01*
X0949153Y0068214D01*
X0949229Y0068256D01*
X0949302Y0068300D01*
X0949373Y0068348D01*
X0949443Y0068399D01*
X0949510Y0068453D01*
X0949574Y0068509D01*
X0949636Y0068569D01*
X0949696Y0068631D01*
X0949752Y0068695D01*
X0949806Y0068762D01*
X0949857Y0068832D01*
X0949905Y0068903D01*
X0949949Y0068977D01*
X0949991Y0069052D01*
X0950029Y0069129D01*
X0950063Y0069207D01*
X0950094Y0069288D01*
X0950122Y0069369D01*
X0950146Y0069451D01*
X0950166Y0069535D01*
X0950183Y0069619D01*
X0950196Y0069704D01*
X0950206Y0069789D01*
X0950211Y0069875D01*
X0950213Y0069961D01*
X0950213Y0562087D01*
X0950211Y0562173D01*
X0950206Y0562259D01*
X0950196Y0562344D01*
X0950183Y0562429D01*
X0950166Y0562513D01*
X0950146Y0562597D01*
X0950122Y0562679D01*
X0950094Y0562760D01*
X0950063Y0562841D01*
X0950029Y0562919D01*
X0949991Y0562996D01*
X0949949Y0563072D01*
X0949905Y0563145D01*
X0949857Y0563216D01*
X0949806Y0563286D01*
X0949752Y0563353D01*
X0949696Y0563417D01*
X0949636Y0563479D01*
X0949574Y0563539D01*
X0949510Y0563595D01*
X0949443Y0563649D01*
X0949373Y0563700D01*
X0949302Y0563748D01*
X0949229Y0563792D01*
X0949153Y0563834D01*
X0949076Y0563872D01*
X0948998Y0563906D01*
X0948917Y0563937D01*
X0948836Y0563965D01*
X0948754Y0563989D01*
X0948670Y0564009D01*
X0948586Y0564026D01*
X0948501Y0564039D01*
X0948416Y0564049D01*
X0948330Y0564054D01*
X0948244Y0564056D01*
X0948244Y0564055D02*
X0003362Y0564055D01*
X0003362Y0564056D02*
X0003276Y0564054D01*
X0003190Y0564049D01*
X0003105Y0564039D01*
X0003020Y0564026D01*
X0002936Y0564009D01*
X0002852Y0563989D01*
X0002770Y0563965D01*
X0002689Y0563937D01*
X0002608Y0563906D01*
X0002530Y0563872D01*
X0002453Y0563834D01*
X0002378Y0563792D01*
X0002304Y0563748D01*
X0002233Y0563700D01*
X0002163Y0563649D01*
X0002096Y0563595D01*
X0002032Y0563539D01*
X0001970Y0563479D01*
X0001910Y0563417D01*
X0001854Y0563353D01*
X0001800Y0563286D01*
X0001749Y0563216D01*
X0001701Y0563145D01*
X0001657Y0563072D01*
X0001615Y0562996D01*
X0001577Y0562919D01*
X0001543Y0562841D01*
X0001512Y0562760D01*
X0001484Y0562679D01*
X0001460Y0562597D01*
X0001440Y0562513D01*
X0001423Y0562429D01*
X0001410Y0562344D01*
X0001400Y0562259D01*
X0001395Y0562173D01*
X0001393Y0562087D01*
X0001394Y0562087D02*
X0001394Y0069961D01*
X0001393Y0069961D02*
X0001395Y0069875D01*
X0001400Y0069789D01*
X0001410Y0069704D01*
X0001423Y0069619D01*
X0001440Y0069535D01*
X0001460Y0069451D01*
X0001484Y0069369D01*
X0001512Y0069288D01*
X0001543Y0069207D01*
X0001577Y0069129D01*
X0001615Y0069052D01*
X0001657Y0068977D01*
X0001701Y0068903D01*
X0001749Y0068832D01*
X0001800Y0068762D01*
X0001854Y0068695D01*
X0001910Y0068631D01*
X0001970Y0068569D01*
X0002032Y0068509D01*
X0002096Y0068453D01*
X0002163Y0068399D01*
X0002233Y0068348D01*
X0002304Y0068300D01*
X0002377Y0068256D01*
X0002453Y0068214D01*
X0002530Y0068176D01*
X0002608Y0068142D01*
X0002689Y0068111D01*
X0002770Y0068083D01*
X0002852Y0068059D01*
X0002936Y0068039D01*
X0003020Y0068022D01*
X0003105Y0068009D01*
X0003190Y0067999D01*
X0003276Y0067994D01*
X0003362Y0067992D01*
M02*
