%
M48
M72
T01C0.0236
T02C0.0300
T03C0.1181
T04C0.1575
%
T01
X59950Y9949
X59950Y12114
X93053Y12114
X93053Y9949
T02
X84746Y12339
X83746Y12339
X83746Y13323
X84746Y13323
X84746Y14323
X83746Y14323
X83746Y15323
X84746Y15323
X84746Y16323
X83746Y16323
X83746Y17323
X84746Y17323
X84746Y18323
X83746Y18323
X83746Y19323
X84746Y19323
X84746Y20323
X83746Y20323
X83746Y21323
X84746Y21323
X84746Y22323
X83746Y22323
X83746Y23323
X84746Y23323
X84746Y24323
X84746Y25323
X83746Y25323
X83746Y24323
X82746Y24323
X82746Y25323
X81746Y25323
X81746Y24323
X80746Y24323
X80746Y25323
X79746Y25323
X79746Y24323
X78746Y24323
X78746Y25323
X77746Y25323
X77746Y24323
X76746Y24323
X76746Y25323
X75746Y25323
X75746Y24323
X74746Y24323
X74746Y25323
X73746Y25323
X73746Y24323
X72746Y24323
X72746Y25323
X71746Y25323
X71746Y24323
X70746Y24323
X70746Y25323
X69746Y25323
X69746Y24323
X68746Y24323
X68746Y25323
X67746Y25323
X67746Y24323
X66746Y24323
X66746Y25323
X66746Y26323
X67746Y26323
X68746Y26323
X69746Y26323
X70746Y26323
X71746Y26323
X72746Y26323
X73746Y26323
X74746Y26323
X75746Y26323
X76746Y26323
X77746Y26323
X78746Y26323
X79746Y26323
X80746Y26323
X81746Y26323
X82746Y26323
X83746Y26323
X84746Y26323
X84746Y27323
X83746Y27323
X83746Y28323
X84746Y28323
X84746Y29323
X83746Y29323
X83746Y30323
X84746Y30323
X84746Y31323
X83746Y31323
X83746Y32323
X84746Y32323
X84746Y33323
X83746Y33323
X83746Y34323
X84746Y34323
X84746Y35323
X83746Y35323
X83746Y36323
X84746Y36323
X84746Y37323
X84746Y38323
X83746Y38323
X83746Y37323
X82746Y37323
X82746Y38323
X81746Y38323
X81746Y37323
X80746Y37323
X80746Y38323
X79746Y38323
X79746Y37323
X78746Y37323
X78746Y38323
X77746Y38323
X77746Y37323
X76746Y37323
X76746Y38323
X75746Y38323
X75746Y37323
X74746Y37323
X74746Y38323
X73746Y38323
X73746Y37323
X72746Y37323
X72746Y38323
X71746Y38323
X71746Y37323
X70746Y37323
X70746Y38323
X69746Y38323
X69746Y37323
X68746Y37323
X68746Y38323
X67746Y38323
X67746Y37323
X66746Y37323
X66746Y38323
X66746Y39323
X67746Y39323
X68746Y39323
X69746Y39323
X70746Y39323
X71746Y39323
X72746Y39323
X73746Y39323
X74746Y39323
X75746Y39323
X76746Y39323
X77746Y39323
X78746Y39323
X79746Y39323
X80746Y39323
X81746Y39323
X82746Y39323
X83746Y39323
X84746Y39323
X84746Y40323
X83746Y40323
X83746Y41323
X84746Y41323
X84746Y42323
X83746Y42323
X83746Y43323
X84746Y43323
X84746Y44323
X83746Y44323
X83746Y45323
X84746Y45323
X84746Y46323
X83746Y46323
X83746Y47323
X84746Y47323
X84746Y48323
X83746Y48323
X83746Y49323
X84746Y49323
X84746Y50323
X83746Y50323
X83746Y51323
X84746Y51323
X84746Y52323
X83746Y52323
X83746Y53323
X84746Y53323
X82746Y53323
X81746Y53323
X80746Y53323
X79746Y53323
X78746Y53323
X77746Y53323
X76746Y53323
X75746Y53323
X74746Y53323
X73746Y53323
X72746Y53323
X71746Y53323
X70746Y53323
X69746Y53323
X68746Y53323
X67746Y53323
X66746Y53323
X66746Y52323
X67746Y52323
X68746Y52323
X69746Y52323
X70746Y52323
X71746Y52323
X72746Y52323
X73746Y52323
X74746Y52323
X75746Y52323
X76746Y52323
X77746Y52323
X78746Y52323
X79746Y52323
X80746Y52323
X81746Y52323
X82746Y52323
X82746Y51323
X81746Y51323
X80746Y51323
X79746Y51323
X78746Y51323
X77746Y51323
X76746Y51323
X75746Y51323
X74746Y51323
X73746Y51323
X72746Y51323
X71746Y51323
X70746Y51323
X69746Y51323
X68746Y51323
X67746Y51323
X66746Y51323
X66746Y50323
X67746Y50323
X68746Y50323
X69746Y50323
X70746Y50323
X71746Y50323
X72746Y50323
X73746Y50323
X74746Y50323
X75746Y50323
X76746Y50323
X77746Y50323
X78746Y50323
X79746Y50323
X80746Y50323
X81746Y50323
X82746Y50323
X82746Y49323
X81746Y49323
X80746Y49323
X79746Y49323
X78746Y49323
X77746Y49323
X76746Y49323
X75746Y49323
X74746Y49323
X73746Y49323
X72746Y49323
X71746Y49323
X70746Y49323
X69746Y49323
X68746Y49323
X67746Y49323
X66746Y49323
X66746Y48323
X67746Y48323
X68746Y48323
X69746Y48323
X70746Y48323
X71746Y48323
X72746Y48323
X73746Y48323
X74746Y48323
X75746Y48323
X76746Y48323
X77746Y48323
X78746Y48323
X79746Y48323
X80746Y48323
X81746Y48323
X82746Y48323
X82746Y47323
X81746Y47323
X80746Y47323
X79746Y47323
X78746Y47323
X77746Y47323
X76746Y47323
X75746Y47323
X74746Y47323
X73746Y47323
X72746Y47323
X71746Y47323
X70746Y47323
X69746Y47323
X68746Y47323
X67746Y47323
X66746Y47323
X66746Y46323
X67746Y46323
X68746Y46323
X69746Y46323
X70746Y46323
X71746Y46323
X72746Y46323
X73746Y46323
X74746Y46323
X75746Y46323
X76746Y46323
X77746Y46323
X78746Y46323
X79746Y46323
X80746Y46323
X81746Y46323
X82746Y46323
X82746Y45323
X81746Y45323
X80746Y45323
X79746Y45323
X78746Y45323
X77746Y45323
X76746Y45323
X75746Y45323
X74746Y45323
X73746Y45323
X72746Y45323
X71746Y45323
X70746Y45323
X69746Y45323
X68746Y45323
X67746Y45323
X66746Y45323
X66746Y44323
X67746Y44323
X68746Y44323
X69746Y44323
X70746Y44323
X71746Y44323
X72746Y44323
X73746Y44323
X74746Y44323
X75746Y44323
X76746Y44323
X77746Y44323
X78746Y44323
X79746Y44323
X80746Y44323
X81746Y44323
X82746Y44323
X82746Y43323
X81746Y43323
X80746Y43323
X79746Y43323
X78746Y43323
X77746Y43323
X76746Y43323
X75746Y43323
X74746Y43323
X73746Y43323
X72746Y43323
X71746Y43323
X70746Y43323
X69746Y43323
X68746Y43323
X67746Y43323
X66746Y43323
X66746Y42323
X67746Y42323
X68746Y42323
X69746Y42323
X70746Y42323
X71746Y42323
X72746Y42323
X73746Y42323
X74746Y42323
X75746Y42323
X76746Y42323
X77746Y42323
X78746Y42323
X79746Y42323
X80746Y42323
X81746Y42323
X82746Y42323
X82746Y41323
X81746Y41323
X80746Y41323
X79746Y41323
X78746Y41323
X77746Y41323
X76746Y41323
X75746Y41323
X74746Y41323
X73746Y41323
X72746Y41323
X71746Y41323
X70746Y41323
X69746Y41323
X68746Y41323
X67746Y41323
X66746Y41323
X66746Y40323
X67746Y40323
X68746Y40323
X69746Y40323
X70746Y40323
X71746Y40323
X72746Y40323
X73746Y40323
X74746Y40323
X75746Y40323
X76746Y40323
X77746Y40323
X78746Y40323
X79746Y40323
X80746Y40323
X81746Y40323
X82746Y40323
X87746Y40323
X88746Y40323
X89746Y40323
X90746Y40323
X91746Y40323
X92714Y40323
X93714Y40323
X93714Y41323
X92714Y41323
X91746Y41323
X91746Y42323
X92714Y42323
X93714Y42323
X93714Y43323
X92714Y43323
X91746Y43323
X90746Y43323
X89746Y43323
X88746Y43323
X87746Y43323
X87746Y44323
X88746Y44323
X89746Y44323
X90746Y44323
X91746Y44323
X92714Y44323
X93714Y44323
X93714Y45323
X92714Y45323
X91746Y45323
X91746Y46323
X92714Y46323
X93714Y46323
X93714Y47323
X92714Y47323
X91746Y47323
X90746Y47323
X89746Y47323
X88746Y47323
X87746Y47323
X87746Y48323
X88746Y48323
X89746Y48323
X90746Y48323
X91746Y48323
X92714Y48323
X93714Y48323
X90746Y46323
X90746Y45323
X89746Y45323
X89746Y46323
X88746Y46323
X88746Y45323
X87746Y45323
X87746Y46323
X87746Y49323
X88746Y49323
X89746Y49323
X89746Y50323
X88746Y50323
X87746Y50323
X87746Y51323
X88746Y51323
X89714Y51323
X89714Y52323
X88746Y52323
X87746Y52323
X87746Y53323
X88746Y53323
X89714Y53323
X89746Y42323
X90746Y42323
X90746Y41323
X89746Y41323
X88746Y41323
X88746Y42323
X87746Y42323
X87746Y41323
X87746Y39323
X88746Y39323
X89746Y39323
X90746Y39323
X91746Y39323
X92714Y39323
X93714Y39323
X93714Y38323
X92714Y38323
X91746Y38323
X91746Y37323
X92714Y37323
X93714Y37323
X93714Y36323
X92714Y36323
X91746Y36323
X90746Y36323
X89746Y36323
X88746Y36323
X87746Y36323
X87746Y37323
X88746Y37323
X89746Y37323
X90746Y37323
X90746Y38323
X89746Y38323
X88746Y38323
X87746Y38323
X87746Y35323
X88746Y35323
X89746Y35323
X90746Y35323
X91746Y35323
X92714Y35323
X93714Y35323
X93714Y34323
X92714Y34323
X91746Y34323
X90746Y34323
X89746Y34323
X88746Y34323
X87746Y34323
X87746Y33323
X88746Y33323
X89746Y33323
X90746Y33323
X91746Y33323
X92714Y33323
X92714Y32323
X91746Y32323
X90746Y32323
X89746Y32323
X88746Y32323
X87746Y32323
X87746Y31323
X88746Y31323
X89746Y31323
X90746Y31323
X91746Y31323
X92714Y31323
X93714Y31323
X93714Y32323
X93714Y33323
X93714Y30323
X92714Y30323
X91746Y30323
X90746Y30323
X89746Y30323
X88746Y30323
X87746Y30323
X87746Y29323
X88746Y29323
X89746Y29323
X90746Y29323
X91746Y29323
X92714Y29323
X92714Y28323
X91746Y28323
X90746Y28323
X89746Y28323
X88746Y28323
X87746Y28323
X87746Y27323
X88746Y27323
X89746Y27323
X90746Y27323
X91746Y27323
X92714Y27323
X93714Y27323
X93714Y28323
X93714Y29323
X93714Y26323
X92714Y26323
X91746Y26323
X90746Y26323
X89746Y26323
X88746Y26323
X87746Y26323
X87746Y25323
X88746Y25323
X89746Y25323
X90746Y25323
X91746Y25323
X92714Y25323
X92714Y24323
X91746Y24323
X90746Y24323
X89746Y24323
X88746Y24323
X87746Y24323
X87746Y23323
X88746Y23323
X89746Y23323
X90746Y23323
X91746Y23323
X92714Y23323
X93714Y23323
X93714Y24323
X93714Y25323
X93714Y22323
X92714Y22323
X91746Y22323
X90746Y22323
X89746Y22323
X88746Y22323
X87746Y22323
X87746Y21323
X88746Y21323
X89746Y21323
X90746Y21323
X91746Y21323
X92714Y21323
X93714Y21323
X93714Y20323
X92714Y20323
X91746Y20323
X91746Y19323
X92714Y19323
X93714Y19323
X93714Y18323
X92714Y18323
X91746Y18323
X90746Y18323
X89746Y18323
X88746Y18323
X87746Y18323
X87746Y19323
X88746Y19323
X89746Y19323
X90746Y19323
X90746Y20323
X89746Y20323
X88746Y20323
X87746Y20323
X87746Y17323
X88746Y17323
X89746Y17323
X90746Y17323
X91746Y17323
X92714Y17323
X93714Y17323
X93714Y16323
X92714Y16323
X91746Y16323
X91746Y15323
X92714Y15323
X93714Y15323
X90746Y15323
X90746Y16323
X89746Y16323
X89746Y15323
X88746Y15323
X88746Y16323
X87746Y16323
X87746Y15323
X82746Y15323
X82746Y16323
X81746Y16323
X81746Y15323
X80746Y15323
X80746Y16323
X79746Y16323
X79746Y15323
X78746Y15323
X78746Y16323
X77746Y16323
X77746Y15323
X76746Y15323
X76746Y16323
X75746Y16323
X75746Y15323
X74746Y15323
X74746Y16323
X73746Y16323
X73746Y15323
X72746Y15323
X72746Y16323
X71746Y16323
X71746Y15323
X70746Y15323
X70746Y16323
X69746Y16323
X69746Y15323
X68746Y15323
X68746Y16323
X67746Y16323
X67746Y15323
X66746Y15323
X66746Y16323
X66746Y17323
X67746Y17323
X68746Y17323
X69746Y17323
X70746Y17323
X71746Y17323
X72746Y17323
X73746Y17323
X74746Y17323
X75746Y17323
X76746Y17323
X77746Y17323
X78746Y17323
X79746Y17323
X80746Y17323
X81746Y17323
X82746Y17323
X82746Y18323
X81746Y18323
X80746Y18323
X79746Y18323
X78746Y18323
X77746Y18323
X76746Y18323
X75746Y18323
X74746Y18323
X73746Y18323
X72746Y18323
X71746Y18323
X70746Y18323
X69746Y18323
X68746Y18323
X67746Y18323
X66746Y18323
X66746Y19323
X67746Y19323
X68746Y19323
X69746Y19323
X70746Y19323
X71746Y19323
X72746Y19323
X73746Y19323
X74746Y19323
X75746Y19323
X76746Y19323
X77746Y19323
X78746Y19323
X79746Y19323
X80746Y19323
X81746Y19323
X82746Y19323
X82746Y20323
X81746Y20323
X80746Y20323
X79746Y20323
X78746Y20323
X77746Y20323
X76746Y20323
X75746Y20323
X74746Y20323
X73746Y20323
X72746Y20323
X71746Y20323
X70746Y20323
X69746Y20323
X68746Y20323
X67746Y20323
X66746Y20323
X66746Y21323
X67746Y21323
X68746Y21323
X69746Y21323
X70746Y21323
X71746Y21323
X72746Y21323
X73746Y21323
X74746Y21323
X75746Y21323
X76746Y21323
X77746Y21323
X78746Y21323
X79746Y21323
X80746Y21323
X81746Y21323
X82746Y21323
X82746Y22323
X81746Y22323
X80746Y22323
X79746Y22323
X78746Y22323
X77746Y22323
X76746Y22323
X75746Y22323
X74746Y22323
X73746Y22323
X72746Y22323
X71746Y22323
X70746Y22323
X69746Y22323
X68746Y22323
X67746Y22323
X66746Y22323
X66746Y23323
X67746Y23323
X68746Y23323
X69746Y23323
X70746Y23323
X71746Y23323
X72746Y23323
X73746Y23323
X74746Y23323
X75746Y23323
X76746Y23323
X77746Y23323
X78746Y23323
X79746Y23323
X80746Y23323
X81746Y23323
X82746Y23323
X82746Y27323
X81746Y27323
X80746Y27323
X79746Y27323
X78746Y27323
X77746Y27323
X76746Y27323
X75746Y27323
X74746Y27323
X73746Y27323
X72746Y27323
X71746Y27323
X70746Y27323
X69746Y27323
X68746Y27323
X67746Y27323
X66746Y27323
X66746Y28323
X67746Y28323
X68746Y28323
X69746Y28323
X70746Y28323
X71746Y28323
X72746Y28323
X73746Y28323
X74746Y28323
X75746Y28323
X76746Y28323
X77746Y28323
X78746Y28323
X79746Y28323
X80746Y28323
X81746Y28323
X82746Y28323
X82746Y29323
X81746Y29323
X80746Y29323
X79746Y29323
X78746Y29323
X77746Y29323
X76746Y29323
X75746Y29323
X74746Y29323
X73746Y29323
X72746Y29323
X71746Y29323
X70746Y29323
X69746Y29323
X68746Y29323
X67746Y29323
X66746Y29323
X66746Y30323
X67746Y30323
X68746Y30323
X69746Y30323
X70746Y30323
X71746Y30323
X72746Y30323
X73746Y30323
X74746Y30323
X75746Y30323
X76746Y30323
X77746Y30323
X78746Y30323
X79746Y30323
X80746Y30323
X81746Y30323
X82746Y30323
X82746Y31323
X81746Y31323
X80746Y31323
X79746Y31323
X78746Y31323
X77746Y31323
X76746Y31323
X75746Y31323
X74746Y31323
X73746Y31323
X72746Y31323
X71746Y31323
X70746Y31323
X69746Y31323
X68746Y31323
X67746Y31323
X66746Y31323
X66746Y32323
X67746Y32323
X68746Y32323
X69746Y32323
X70746Y32323
X71746Y32323
X72746Y32323
X73746Y32323
X74746Y32323
X75746Y32323
X76746Y32323
X77746Y32323
X78746Y32323
X79746Y32323
X80746Y32323
X81746Y32323
X82746Y32323
X82746Y33323
X81746Y33323
X80746Y33323
X79746Y33323
X78746Y33323
X77746Y33323
X76746Y33323
X75746Y33323
X74746Y33323
X73746Y33323
X72746Y33323
X71746Y33323
X70746Y33323
X69746Y33323
X68746Y33323
X67746Y33323
X66746Y33323
X66746Y34323
X67746Y34323
X68746Y34323
X69746Y34323
X70746Y34323
X71746Y34323
X72746Y34323
X73746Y34323
X74746Y34323
X75746Y34323
X76746Y34323
X77746Y34323
X78746Y34323
X79746Y34323
X80746Y34323
X81746Y34323
X82746Y34323
X82746Y35323
X81746Y35323
X80746Y35323
X79746Y35323
X78746Y35323
X77746Y35323
X76746Y35323
X75746Y35323
X74746Y35323
X73746Y35323
X72746Y35323
X71746Y35323
X70746Y35323
X69746Y35323
X68746Y35323
X67746Y35323
X66746Y35323
X66746Y36323
X67746Y36323
X68746Y36323
X69746Y36323
X70746Y36323
X71746Y36323
X72746Y36323
X73746Y36323
X74746Y36323
X75746Y36323
X76746Y36323
X77746Y36323
X78746Y36323
X79746Y36323
X80746Y36323
X81746Y36323
X82746Y36323
X63746Y36323
X62746Y36323
X61746Y36323
X60746Y36323
X59746Y36323
X58746Y36323
X57746Y36323
X56746Y36323
X55746Y36323
X54746Y36323
X53746Y36323
X52746Y36323
X51746Y36323
X50746Y36323
X49746Y36323
X48746Y36323
X47746Y36323
X46746Y36323
X45746Y36323
X45746Y37323
X46746Y37323
X47746Y37323
X48746Y37323
X49746Y37323
X50746Y37323
X51746Y37323
X52746Y37323
X53746Y37323
X54746Y37323
X55746Y37323
X56746Y37323
X57746Y37323
X58746Y37323
X59746Y37323
X60746Y37323
X61746Y37323
X62746Y37323
X63746Y37323
X63746Y38323
X62746Y38323
X61746Y38323
X60746Y38323
X59746Y38323
X58746Y38323
X57746Y38323
X56746Y38323
X55746Y38323
X54746Y38323
X53746Y38323
X52746Y38323
X51746Y38323
X50746Y38323
X49746Y38323
X48746Y38323
X47746Y38323
X46746Y38323
X45746Y38323
X45746Y39323
X46746Y39323
X47746Y39323
X48746Y39323
X49746Y39323
X50746Y39323
X51746Y39323
X52746Y39323
X53746Y39323
X54746Y39323
X55746Y39323
X56746Y39323
X57746Y39323
X58746Y39323
X59746Y39323
X60746Y39323
X61746Y39323
X62746Y39323
X63746Y39323
X63746Y40323
X62746Y40323
X61746Y40323
X60746Y40323
X59746Y40323
X58746Y40323
X57746Y40323
X56746Y40323
X55746Y40323
X54746Y40323
X53746Y40323
X52746Y40323
X51746Y40323
X50746Y40323
X49746Y40323
X48746Y40323
X47746Y40323
X46746Y40323
X45746Y40323
X45746Y41323
X46746Y41323
X47746Y41323
X48746Y41323
X49746Y41323
X50746Y41323
X51746Y41323
X52746Y41323
X53746Y41323
X54746Y41323
X55746Y41323
X56746Y41323
X57746Y41323
X58746Y41323
X59746Y41323
X60746Y41323
X61746Y41323
X62746Y41323
X63746Y41323
X63746Y42323
X62746Y42323
X61746Y42323
X60746Y42323
X59746Y42323
X58746Y42323
X57746Y42323
X56746Y42323
X55746Y42323
X54746Y42323
X53746Y42323
X52746Y42323
X51746Y42323
X50746Y42323
X49746Y42323
X48746Y42323
X47746Y42323
X46746Y42323
X45746Y42323
X45746Y43323
X46746Y43323
X47746Y43323
X48746Y43323
X49746Y43323
X50746Y43323
X51746Y43323
X52746Y43323
X53746Y43323
X54746Y43323
X55746Y43323
X56746Y43323
X57746Y43323
X58746Y43323
X59746Y43323
X60746Y43323
X61746Y43323
X62746Y43323
X63746Y43323
X63746Y44323
X62746Y44323
X61746Y44323
X60746Y44323
X59746Y44323
X58746Y44323
X57746Y44323
X56746Y44323
X55746Y44323
X54746Y44323
X53746Y44323
X52746Y44323
X51746Y44323
X50746Y44323
X49746Y44323
X48746Y44323
X47746Y44323
X46746Y44323
X45746Y44323
X45746Y45323
X46746Y45323
X47746Y45323
X48746Y45323
X49746Y45323
X50746Y45323
X51746Y45323
X52746Y45323
X53746Y45323
X54746Y45323
X55746Y45323
X56746Y45323
X57746Y45323
X58746Y45323
X59746Y45323
X60746Y45323
X61746Y45323
X62746Y45323
X63746Y45323
X63746Y46323
X62746Y46323
X61746Y46323
X60746Y46323
X59746Y46323
X58746Y46323
X57746Y46323
X56746Y46323
X55746Y46323
X54746Y46323
X53746Y46323
X52746Y46323
X51746Y46323
X50746Y46323
X49746Y46323
X48746Y46323
X47746Y46323
X46746Y46323
X45746Y46323
X45746Y47323
X46746Y47323
X47746Y47323
X48746Y47323
X49746Y47323
X50746Y47323
X51746Y47323
X52746Y47323
X53746Y47323
X54746Y47323
X55746Y47323
X56746Y47323
X57746Y47323
X58746Y47323
X59746Y47323
X60746Y47323
X61746Y47323
X62746Y47323
X63746Y47323
X63746Y48323
X62746Y48323
X61746Y48323
X60746Y48323
X59746Y48323
X58746Y48323
X57746Y48323
X56746Y48323
X55746Y48323
X54746Y48323
X53746Y48323
X52746Y48323
X51746Y48323
X50746Y48323
X49746Y48323
X48746Y48323
X47746Y48323
X46746Y48323
X45746Y48323
X45746Y49323
X46746Y49323
X47746Y49323
X48746Y49323
X49746Y49323
X50746Y49323
X51746Y49323
X52746Y49323
X53746Y49323
X54746Y49323
X55746Y49323
X56746Y49323
X57746Y49323
X58746Y49323
X59746Y49323
X60746Y49323
X61746Y49323
X62746Y49323
X63746Y49323
X63746Y50323
X62746Y50323
X61746Y50323
X60746Y50323
X59746Y50323
X58746Y50323
X57746Y50323
X56746Y50323
X55746Y50323
X54746Y50323
X53746Y50323
X52746Y50323
X51746Y50323
X50746Y50323
X49746Y50323
X48746Y50323
X47746Y50323
X46746Y50323
X45746Y50323
X45746Y51323
X46746Y51323
X47746Y51323
X48746Y51323
X49746Y51323
X50746Y51323
X51746Y51323
X52746Y51323
X53746Y51323
X54746Y51323
X55746Y51323
X56746Y51323
X57746Y51323
X58746Y51323
X59746Y51323
X60746Y51323
X61746Y51323
X62746Y51323
X63746Y51323
X63746Y52323
X62746Y52323
X61746Y52323
X60746Y52323
X59746Y52323
X58746Y52323
X57746Y52323
X56746Y52323
X55746Y52323
X54746Y52323
X53746Y52323
X52746Y52323
X51746Y52323
X50746Y52323
X49746Y52323
X48746Y52323
X47746Y52323
X46746Y52323
X45746Y52323
X45746Y53323
X46746Y53323
X47746Y53323
X48746Y53323
X49746Y53323
X50746Y53323
X51746Y53323
X52746Y53323
X53746Y53323
X54746Y53323
X55746Y53323
X56746Y53323
X57746Y53323
X58746Y53323
X59746Y53323
X60746Y53323
X61746Y53323
X62746Y53323
X63746Y53323
X42746Y53323
X41746Y53323
X40746Y53323
X39746Y53323
X38746Y53323
X37746Y53323
X36746Y53323
X35746Y53323
X34746Y53323
X33746Y53323
X32746Y53323
X31746Y53323
X30746Y53323
X29746Y53323
X28746Y53323
X27746Y53323
X26746Y53323
X25746Y53323
X24746Y53323
X24746Y52323
X25746Y52323
X26746Y52323
X27746Y52323
X28746Y52323
X29746Y52323
X30746Y52323
X31746Y52323
X32746Y52323
X33746Y52323
X34746Y52323
X35746Y52323
X36746Y52323
X37746Y52323
X38746Y52323
X39746Y52323
X40746Y52323
X41746Y52323
X42746Y52323
X42746Y51323
X41746Y51323
X40746Y51323
X39746Y51323
X38746Y51323
X37746Y51323
X36746Y51323
X35746Y51323
X34746Y51323
X33746Y51323
X32746Y51323
X31746Y51323
X30746Y51323
X29746Y51323
X28746Y51323
X27746Y51323
X26746Y51323
X25746Y51323
X24746Y51323
X24746Y50323
X25746Y50323
X26746Y50323
X27746Y50323
X28746Y50323
X29746Y50323
X30746Y50323
X31746Y50323
X32746Y50323
X33746Y50323
X34746Y50323
X35746Y50323
X36746Y50323
X37746Y50323
X38746Y50323
X39746Y50323
X40746Y50323
X41746Y50323
X42746Y50323
X42746Y49323
X41746Y49323
X40746Y49323
X39746Y49323
X38746Y49323
X37746Y49323
X36746Y49323
X35746Y49323
X34746Y49323
X33746Y49323
X32746Y49323
X31746Y49323
X30746Y49323
X29746Y49323
X28746Y49323
X27746Y49323
X26746Y49323
X25746Y49323
X24746Y49323
X24746Y48323
X25746Y48323
X26746Y48323
X27746Y48323
X28746Y48323
X29746Y48323
X30746Y48323
X31746Y48323
X32746Y48323
X33746Y48323
X34746Y48323
X35746Y48323
X36746Y48323
X37746Y48323
X38746Y48323
X39746Y48323
X40746Y48323
X41746Y48323
X42746Y48323
X42746Y47323
X41746Y47323
X40746Y47323
X39746Y47323
X38746Y47323
X37746Y47323
X36746Y47323
X35746Y47323
X34746Y47323
X33746Y47323
X32746Y47323
X31746Y47323
X30746Y47323
X29746Y47323
X28746Y47323
X27746Y47323
X26746Y47323
X25746Y47323
X24746Y47323
X24746Y46323
X25746Y46323
X26746Y46323
X27746Y46323
X28746Y46323
X29746Y46323
X30746Y46323
X31746Y46323
X32746Y46323
X33746Y46323
X34746Y46323
X35746Y46323
X36746Y46323
X37746Y46323
X38746Y46323
X39746Y46323
X40746Y46323
X41746Y46323
X42746Y46323
X42746Y45323
X41746Y45323
X40746Y45323
X39746Y45323
X38746Y45323
X37746Y45323
X36746Y45323
X35746Y45323
X34746Y45323
X33746Y45323
X32746Y45323
X31746Y45323
X30746Y45323
X29746Y45323
X28746Y45323
X27746Y45323
X26746Y45323
X25746Y45323
X24746Y45323
X24746Y44323
X25746Y44323
X26746Y44323
X27746Y44323
X28746Y44323
X29746Y44323
X30746Y44323
X31746Y44323
X32746Y44323
X33746Y44323
X34746Y44323
X35746Y44323
X36746Y44323
X37746Y44323
X38746Y44323
X39746Y44323
X40746Y44323
X41746Y44323
X42746Y44323
X42746Y43323
X41746Y43323
X40746Y43323
X39746Y43323
X38746Y43323
X37746Y43323
X36746Y43323
X35746Y43323
X34746Y43323
X33746Y43323
X32746Y43323
X31746Y43323
X30746Y43323
X29746Y43323
X28746Y43323
X27746Y43323
X26746Y43323
X25746Y43323
X24746Y43323
X24746Y42323
X25746Y42323
X26746Y42323
X27746Y42323
X28746Y42323
X29746Y42323
X30746Y42323
X31746Y42323
X32746Y42323
X33746Y42323
X34746Y42323
X35746Y42323
X36746Y42323
X37746Y42323
X38746Y42323
X39746Y42323
X40746Y42323
X41746Y42323
X42746Y42323
X42746Y41323
X41746Y41323
X40746Y41323
X39746Y41323
X38746Y41323
X37746Y41323
X36746Y41323
X35746Y41323
X34746Y41323
X33746Y41323
X32746Y41323
X31746Y41323
X30746Y41323
X29746Y41323
X28746Y41323
X27746Y41323
X26746Y41323
X25746Y41323
X24746Y41323
X24746Y40323
X25746Y40323
X26746Y40323
X27746Y40323
X28746Y40323
X29746Y40323
X30746Y40323
X31746Y40323
X32746Y40323
X33746Y40323
X34746Y40323
X35746Y40323
X36746Y40323
X37746Y40323
X38746Y40323
X39746Y40323
X40746Y40323
X41746Y40323
X42746Y40323
X42746Y39323
X41746Y39323
X40746Y39323
X39746Y39323
X38746Y39323
X37746Y39323
X36746Y39323
X35746Y39323
X34746Y39323
X33746Y39323
X32746Y39323
X31746Y39323
X30746Y39323
X29746Y39323
X28746Y39323
X27746Y39323
X26746Y39323
X25746Y39323
X24746Y39323
X24746Y38323
X25746Y38323
X26746Y38323
X27746Y38323
X28746Y38323
X29746Y38323
X30746Y38323
X31746Y38323
X32746Y38323
X33746Y38323
X34746Y38323
X35746Y38323
X36746Y38323
X37746Y38323
X38746Y38323
X39746Y38323
X40746Y38323
X41746Y38323
X42746Y38323
X42746Y37323
X41746Y37323
X40746Y37323
X39746Y37323
X38746Y37323
X37746Y37323
X36746Y37323
X35746Y37323
X34746Y37323
X33746Y37323
X32746Y37323
X31746Y37323
X30746Y37323
X29746Y37323
X28746Y37323
X27746Y37323
X26746Y37323
X25746Y37323
X24746Y37323
X24746Y36323
X25746Y36323
X26746Y36323
X27746Y36323
X28746Y36323
X29746Y36323
X30746Y36323
X31746Y36323
X32746Y36323
X33746Y36323
X34746Y36323
X35746Y36323
X36746Y36323
X37746Y36323
X38746Y36323
X39746Y36323
X40746Y36323
X41746Y36323
X42746Y36323
X42746Y35323
X41746Y35323
X40746Y35323
X39746Y35323
X38746Y35323
X37746Y35323
X36746Y35323
X35746Y35323
X34746Y35323
X33746Y35323
X32746Y35323
X31746Y35323
X30746Y35323
X29746Y35323
X28746Y35323
X27746Y35323
X26746Y35323
X25746Y35323
X24746Y35323
X24746Y34323
X25746Y34323
X26746Y34323
X27746Y34323
X28746Y34323
X29746Y34323
X30746Y34323
X31746Y34323
X32746Y34323
X33746Y34323
X34746Y34323
X35746Y34323
X36746Y34323
X37746Y34323
X38746Y34323
X39746Y34323
X40746Y34323
X41746Y34323
X42746Y34323
X42746Y33323
X42746Y32323
X41746Y32323
X41746Y33323
X40746Y33323
X40746Y32323
X39746Y32323
X39746Y33323
X38746Y33323
X38746Y32323
X37746Y32323
X37746Y33323
X36746Y33323
X36746Y32323
X35746Y32323
X35746Y33323
X34746Y33323
X34746Y32323
X33746Y32323
X33746Y33323
X32746Y33323
X32746Y32323
X31746Y32323
X31746Y33323
X30746Y33323
X30746Y32323
X29746Y32323
X29746Y33323
X28746Y33323
X28746Y32323
X27746Y32323
X27746Y33323
X26746Y33323
X26746Y32323
X25746Y32323
X25746Y33323
X24746Y33323
X24746Y32323
X24746Y31323
X25746Y31323
X26746Y31323
X27746Y31323
X28746Y31323
X29746Y31323
X30746Y31323
X31746Y31323
X32746Y31323
X33746Y31323
X34746Y31323
X35746Y31323
X36746Y31323
X37746Y31323
X38746Y31323
X39746Y31323
X40746Y31323
X41746Y31323
X42746Y31323
X42746Y30323
X41746Y30323
X40746Y30323
X39746Y30323
X38746Y30323
X37746Y30323
X36746Y30323
X35746Y30323
X34746Y30323
X33746Y30323
X32746Y30323
X31746Y30323
X30746Y30323
X29746Y30323
X28746Y30323
X27746Y30323
X26746Y30323
X25746Y30323
X24746Y30323
X24746Y29323
X25746Y29323
X26746Y29323
X27746Y29323
X28746Y29323
X29746Y29323
X30746Y29323
X31746Y29323
X32746Y29323
X33746Y29323
X34746Y29323
X35746Y29323
X36746Y29323
X37746Y29323
X38746Y29323
X39746Y29323
X40746Y29323
X41746Y29323
X42746Y29323
X42746Y28323
X41746Y28323
X40746Y28323
X39746Y28323
X38746Y28323
X37746Y28323
X36746Y28323
X35746Y28323
X34746Y28323
X33746Y28323
X32746Y28323
X31746Y28323
X30746Y28323
X29746Y28323
X28746Y28323
X27746Y28323
X26746Y28323
X25746Y28323
X24746Y28323
X24746Y27323
X25746Y27323
X26746Y27323
X27746Y27323
X28746Y27323
X29746Y27323
X30746Y27323
X31746Y27323
X32746Y27323
X33746Y27323
X34746Y27323
X35746Y27323
X36746Y27323
X37746Y27323
X38746Y27323
X39746Y27323
X40746Y27323
X41746Y27323
X42746Y27323
X42746Y26323
X41746Y26323
X40746Y26323
X39746Y26323
X38746Y26323
X37746Y26323
X36746Y26323
X35746Y26323
X34746Y26323
X33746Y26323
X32746Y26323
X31746Y26323
X30746Y26323
X29746Y26323
X28746Y26323
X27746Y26323
X26746Y26323
X25746Y26323
X24746Y26323
X24746Y25323
X25746Y25323
X26746Y25323
X27746Y25323
X28746Y25323
X29746Y25323
X30746Y25323
X31746Y25323
X32746Y25323
X33746Y25323
X34746Y25323
X35746Y25323
X36746Y25323
X37746Y25323
X38746Y25323
X39746Y25323
X40746Y25323
X41746Y25323
X42746Y25323
X42746Y24323
X41746Y24323
X40746Y24323
X39746Y24323
X38746Y24323
X37746Y24323
X36746Y24323
X35746Y24323
X34746Y24323
X33746Y24323
X32746Y24323
X31746Y24323
X30746Y24323
X29746Y24323
X28746Y24323
X27746Y24323
X26746Y24323
X25746Y24323
X24746Y24323
X24746Y23323
X25746Y23323
X26746Y23323
X27746Y23323
X28746Y23323
X29746Y23323
X30746Y23323
X31746Y23323
X32746Y23323
X33746Y23323
X34746Y23323
X35746Y23323
X36746Y23323
X37746Y23323
X38746Y23323
X39746Y23323
X40746Y23323
X41746Y23323
X42746Y23323
X42746Y22323
X41746Y22323
X40746Y22323
X39746Y22323
X38746Y22323
X37746Y22323
X36746Y22323
X35746Y22323
X34746Y22323
X33746Y22323
X32746Y22323
X31746Y22323
X30746Y22323
X29746Y22323
X28746Y22323
X27746Y22323
X26746Y22323
X25746Y22323
X24746Y22323
X24746Y21323
X25746Y21323
X26746Y21323
X27746Y21323
X28746Y21323
X29746Y21323
X30746Y21323
X31746Y21323
X32746Y21323
X33746Y21323
X34746Y21323
X35746Y21323
X36746Y21323
X37746Y21323
X38746Y21323
X39746Y21323
X40746Y21323
X41746Y21323
X42746Y21323
X42746Y20323
X42746Y19323
X41746Y19323
X41746Y20323
X40746Y20323
X40746Y19323
X39746Y19323
X39746Y20323
X38746Y20323
X38746Y19323
X37746Y19323
X37746Y20323
X36746Y20323
X36746Y19323
X35746Y19323
X35746Y20323
X34746Y20323
X34746Y19323
X33746Y19323
X33746Y20323
X32746Y20323
X32746Y19323
X31746Y19323
X31746Y20323
X30746Y20323
X30746Y19323
X29746Y19323
X29746Y20323
X28746Y20323
X28746Y19323
X27746Y19323
X27746Y20323
X26746Y20323
X26746Y19323
X25746Y19323
X25746Y20323
X24746Y20323
X24746Y19323
X24746Y18323
X25746Y18323
X26746Y18323
X27746Y18323
X28746Y18323
X29746Y18323
X30746Y18323
X31746Y18323
X32746Y18323
X33746Y18323
X34746Y18323
X35746Y18323
X36746Y18323
X37746Y18323
X38746Y18323
X39746Y18323
X40746Y18323
X41746Y18323
X42746Y18323
X42746Y17323
X41746Y17323
X40746Y17323
X39746Y17323
X38746Y17323
X37746Y17323
X36746Y17323
X35746Y17323
X34746Y17323
X33746Y17323
X32746Y17323
X31746Y17323
X30746Y17323
X29746Y17323
X28746Y17323
X27746Y17323
X26746Y17323
X25746Y17323
X24746Y17323
X24746Y16323
X25746Y16323
X26746Y16323
X27746Y16323
X28746Y16323
X29746Y16323
X30746Y16323
X31746Y16323
X32746Y16323
X33746Y16323
X34746Y16323
X35746Y16323
X36746Y16323
X37746Y16323
X38746Y16323
X39746Y16323
X40746Y16323
X41746Y16323
X42746Y16323
X42746Y15323
X41746Y15323
X40746Y15323
X39746Y15323
X38746Y15323
X37746Y15323
X36746Y15323
X35746Y15323
X34746Y15323
X33746Y15323
X32746Y15323
X31746Y15323
X30746Y15323
X29746Y15323
X28746Y15323
X27746Y15323
X26746Y15323
X25746Y15323
X24746Y15323
X24746Y14323
X25746Y14323
X26746Y14323
X27746Y14323
X28746Y14323
X29746Y14323
X30746Y14323
X31746Y14323
X32746Y14323
X33746Y14323
X34746Y14323
X35746Y14323
X36746Y14323
X37746Y14323
X38746Y14323
X39746Y14323
X40746Y14323
X41746Y14323
X42746Y14323
X42746Y13323
X41746Y13323
X40746Y13323
X39746Y13323
X38746Y13323
X37746Y13323
X36746Y13323
X35746Y13323
X34746Y13323
X33746Y13323
X32746Y13323
X31746Y13323
X30746Y13323
X29746Y13323
X28746Y13323
X27746Y13323
X26746Y13323
X25746Y13323
X24746Y13323
X24746Y12323
X25746Y12323
X26746Y12323
X27746Y12323
X28746Y12323
X29746Y12323
X30746Y12323
X31746Y12323
X32746Y12323
X33746Y12323
X34746Y12323
X35746Y12323
X36746Y12323
X37746Y12323
X38746Y12323
X39746Y12323
X40746Y12323
X41746Y12323
X42746Y12323
X45746Y12323
X46746Y12323
X47746Y12323
X48746Y12323
X49746Y12323
X50746Y12323
X51746Y12323
X52746Y12323
X53746Y12323
X54746Y12323
X55730Y12323
X56714Y12323
X56746Y13323
X57746Y13323
X58746Y13323
X59746Y13323
X60746Y13323
X61746Y13323
X62746Y13323
X63746Y13323
X63746Y14323
X62746Y14323
X61746Y14323
X60746Y14323
X59746Y14323
X58746Y14323
X57746Y14323
X56746Y14323
X55746Y14323
X54746Y14323
X53746Y14323
X52746Y14323
X51746Y14323
X50746Y14323
X49746Y14323
X48746Y14323
X47746Y14323
X46746Y14323
X45746Y14323
X45746Y15323
X46746Y15323
X47746Y15323
X48746Y15323
X49746Y15323
X50746Y15323
X51746Y15323
X52746Y15323
X53746Y15323
X54746Y15323
X55746Y15323
X56746Y15323
X57746Y15323
X58746Y15323
X59746Y15323
X60746Y15323
X61746Y15323
X62746Y15323
X63746Y15323
X63746Y16323
X62746Y16323
X61746Y16323
X60746Y16323
X59746Y16323
X58746Y16323
X57746Y16323
X56746Y16323
X55746Y16323
X54746Y16323
X53746Y16323
X52746Y16323
X51746Y16323
X50746Y16323
X49746Y16323
X48746Y16323
X47746Y16323
X46746Y16323
X45746Y16323
X45746Y17323
X46746Y17323
X47746Y17323
X48746Y17323
X49746Y17323
X50746Y17323
X51746Y17323
X52746Y17323
X53746Y17323
X54746Y17323
X55746Y17323
X56746Y17323
X57746Y17323
X58746Y17323
X59746Y17323
X60746Y17323
X61746Y17323
X62746Y17323
X63746Y17323
X63746Y18323
X62746Y18323
X61746Y18323
X60746Y18323
X59746Y18323
X58746Y18323
X57746Y18323
X56746Y18323
X55746Y18323
X54746Y18323
X53746Y18323
X52746Y18323
X51746Y18323
X50746Y18323
X49746Y18323
X48746Y18323
X47746Y18323
X46746Y18323
X45746Y18323
X45746Y19323
X46746Y19323
X47746Y19323
X48746Y19323
X49746Y19323
X50746Y19323
X51746Y19323
X52746Y19323
X53746Y19323
X54746Y19323
X55746Y19323
X56746Y19323
X57746Y19323
X58746Y19323
X59746Y19323
X60746Y19323
X61746Y19323
X62746Y19323
X63746Y19323
X63746Y20323
X62746Y20323
X61746Y20323
X60746Y20323
X59746Y20323
X58746Y20323
X57746Y20323
X56746Y20323
X55746Y20323
X54746Y20323
X53746Y20323
X52746Y20323
X51746Y20323
X50746Y20323
X49746Y20323
X48746Y20323
X47746Y20323
X46746Y20323
X45746Y20323
X45746Y21323
X46746Y21323
X47746Y21323
X48746Y21323
X49746Y21323
X50746Y21323
X51746Y21323
X52746Y21323
X53746Y21323
X54746Y21323
X55746Y21323
X56746Y21323
X57746Y21323
X58746Y21323
X59746Y21323
X60746Y21323
X61746Y21323
X62746Y21323
X63746Y21323
X63746Y22323
X62746Y22323
X61746Y22323
X60746Y22323
X59746Y22323
X58746Y22323
X57746Y22323
X56746Y22323
X55746Y22323
X54746Y22323
X53746Y22323
X52746Y22323
X51746Y22323
X50746Y22323
X49746Y22323
X48746Y22323
X47746Y22323
X46746Y22323
X45746Y22323
X45746Y23323
X46746Y23323
X47746Y23323
X48746Y23323
X49746Y23323
X50746Y23323
X51746Y23323
X52746Y23323
X53746Y23323
X54746Y23323
X55746Y23323
X56746Y23323
X57746Y23323
X58746Y23323
X59746Y23323
X60746Y23323
X61746Y23323
X62746Y23323
X63746Y23323
X63746Y24323
X63746Y25323
X62746Y25323
X62746Y24323
X61746Y24323
X61746Y25323
X60746Y25323
X60746Y24323
X59746Y24323
X59746Y25323
X58746Y25323
X58746Y24323
X57746Y24323
X57746Y25323
X56746Y25323
X56746Y24323
X55746Y24323
X55746Y25323
X54746Y25323
X54746Y24323
X53746Y24323
X53746Y25323
X52746Y25323
X52746Y24323
X51746Y24323
X51746Y25323
X50746Y25323
X50746Y24323
X49746Y24323
X49746Y25323
X48746Y25323
X48746Y24323
X47746Y24323
X47746Y25323
X46746Y25323
X46746Y24323
X45746Y24323
X45746Y25323
X45746Y26323
X46746Y26323
X47746Y26323
X48746Y26323
X49746Y26323
X50746Y26323
X51746Y26323
X52746Y26323
X53746Y26323
X54746Y26323
X55746Y26323
X56746Y26323
X57746Y26323
X58746Y26323
X59746Y26323
X60746Y26323
X61746Y26323
X62746Y26323
X63746Y26323
X63746Y27323
X62746Y27323
X61746Y27323
X60746Y27323
X59746Y27323
X58746Y27323
X57746Y27323
X56746Y27323
X55746Y27323
X54746Y27323
X53746Y27323
X52746Y27323
X51746Y27323
X50746Y27323
X49746Y27323
X48746Y27323
X47746Y27323
X46746Y27323
X45746Y27323
X45746Y28323
X46746Y28323
X47746Y28323
X48746Y28323
X49746Y28323
X50746Y28323
X51746Y28323
X52746Y28323
X53746Y28323
X54746Y28323
X55746Y28323
X56746Y28323
X57746Y28323
X58746Y28323
X59746Y28323
X60746Y28323
X61746Y28323
X62746Y28323
X63746Y28323
X63746Y29323
X62746Y29323
X61746Y29323
X60746Y29323
X59746Y29323
X58746Y29323
X57746Y29323
X56746Y29323
X55746Y29323
X54746Y29323
X53746Y29323
X52746Y29323
X51746Y29323
X50746Y29323
X49746Y29323
X48746Y29323
X47746Y29323
X46746Y29323
X45746Y29323
X45746Y30323
X46746Y30323
X47746Y30323
X48746Y30323
X49746Y30323
X50746Y30323
X51746Y30323
X52746Y30323
X53746Y30323
X54746Y30323
X55746Y30323
X56746Y30323
X57746Y30323
X58746Y30323
X59746Y30323
X60746Y30323
X61746Y30323
X62746Y30323
X63746Y30323
X63746Y31323
X62746Y31323
X61746Y31323
X60746Y31323
X59746Y31323
X58746Y31323
X57746Y31323
X56746Y31323
X55746Y31323
X54746Y31323
X53746Y31323
X52746Y31323
X51746Y31323
X50746Y31323
X49746Y31323
X48746Y31323
X47746Y31323
X46746Y31323
X45746Y31323
X45746Y32323
X46746Y32323
X47746Y32323
X48746Y32323
X49746Y32323
X50746Y32323
X51746Y32323
X52746Y32323
X53746Y32323
X54746Y32323
X55746Y32323
X56746Y32323
X57746Y32323
X58746Y32323
X59746Y32323
X60746Y32323
X61746Y32323
X62746Y32323
X63746Y32323
X63746Y33323
X62746Y33323
X61746Y33323
X60746Y33323
X59746Y33323
X58746Y33323
X57746Y33323
X56746Y33323
X55746Y33323
X54746Y33323
X53746Y33323
X52746Y33323
X51746Y33323
X50746Y33323
X49746Y33323
X48746Y33323
X47746Y33323
X46746Y33323
X45746Y33323
X45746Y34323
X46746Y34323
X47746Y34323
X48746Y34323
X49746Y34323
X50746Y34323
X51746Y34323
X52746Y34323
X53746Y34323
X54746Y34323
X55746Y34323
X56746Y34323
X57746Y34323
X58746Y34323
X59746Y34323
X60746Y34323
X61746Y34323
X62746Y34323
X63746Y34323
X63746Y35323
X62746Y35323
X61746Y35323
X60746Y35323
X59746Y35323
X58746Y35323
X57746Y35323
X56746Y35323
X55746Y35323
X54746Y35323
X53746Y35323
X52746Y35323
X51746Y35323
X50746Y35323
X49746Y35323
X48746Y35323
X47746Y35323
X46746Y35323
X45746Y35323
X21746Y35323
X20746Y35323
X19746Y35323
X18746Y35323
X17746Y35323
X16746Y35323
X15746Y35323
X14746Y35323
X13746Y35323
X12746Y35323
X11746Y35323
X10746Y35323
X9746Y35323
X8746Y35323
X7746Y35323
X6746Y35323
X5746Y35323
X5746Y36323
X6746Y36323
X7746Y36323
X8746Y36323
X9746Y36323
X10746Y36323
X11746Y36323
X12746Y36323
X13746Y36323
X14746Y36323
X15746Y36323
X16746Y36323
X17746Y36323
X18746Y36323
X19746Y36323
X20746Y36323
X21746Y36323
X21746Y37323
X21746Y38323
X20746Y38323
X20746Y37323
X19746Y37323
X19746Y38323
X18746Y38323
X18746Y37323
X17746Y37323
X17746Y38323
X16746Y38323
X16746Y37323
X15746Y37323
X15746Y38323
X14746Y38323
X14746Y37323
X13746Y37323
X13746Y38323
X12746Y38323
X12746Y37323
X11746Y37323
X11746Y38323
X10746Y38323
X10746Y37323
X9746Y37323
X9746Y38323
X8746Y38323
X8746Y37323
X7746Y37323
X7746Y38323
X6746Y38323
X6746Y37323
X5746Y37323
X5746Y38323
X5746Y39323
X6746Y39323
X7746Y39323
X8746Y39323
X9746Y39323
X10746Y39323
X11746Y39323
X12746Y39323
X13746Y39323
X14746Y39323
X15746Y39323
X16746Y39323
X17746Y39323
X18746Y39323
X19746Y39323
X20746Y39323
X21746Y39323
X21746Y40323
X20746Y40323
X19746Y40323
X18746Y40323
X17746Y40323
X16746Y40323
X15746Y40323
X14746Y40323
X13746Y40323
X12746Y40323
X11746Y40323
X10746Y40323
X9746Y40323
X8746Y40323
X7746Y40323
X6746Y40323
X5746Y40323
X5746Y41323
X6746Y41323
X7746Y41323
X8746Y41323
X9746Y41323
X10746Y41323
X11746Y41323
X12746Y41323
X13746Y41323
X14746Y41323
X15746Y41323
X16746Y41323
X17746Y41323
X18746Y41323
X19746Y41323
X20746Y41323
X21746Y41323
X21746Y42323
X20746Y42323
X19746Y42323
X18746Y42323
X17746Y42323
X16746Y42323
X15746Y42323
X14746Y42323
X13746Y42323
X12746Y42323
X11746Y42323
X10746Y42323
X9746Y42323
X8746Y42323
X7746Y42323
X6746Y42323
X5746Y42323
X5746Y43323
X6746Y43323
X7746Y43323
X8746Y43323
X9746Y43323
X10746Y43323
X11746Y43323
X12746Y43323
X13746Y43323
X14746Y43323
X15746Y43323
X16746Y43323
X17746Y43323
X18746Y43323
X19746Y43323
X20746Y43323
X21746Y43323
X21746Y44323
X20746Y44323
X19746Y44323
X18746Y44323
X17746Y44323
X16746Y44323
X15746Y44323
X14746Y44323
X13746Y44323
X12746Y44323
X11746Y44323
X10746Y44323
X9746Y44323
X8746Y44323
X7746Y44323
X6746Y44323
X5746Y44323
X5746Y45323
X6746Y45323
X7746Y45323
X8746Y45323
X9746Y45323
X10746Y45323
X11746Y45323
X12746Y45323
X13746Y45323
X14746Y45323
X15746Y45323
X16746Y45323
X17746Y45323
X18746Y45323
X19746Y45323
X20746Y45323
X21746Y45323
X21746Y46323
X20746Y46323
X19746Y46323
X18746Y46323
X17746Y46323
X16746Y46323
X15746Y46323
X14746Y46323
X13746Y46323
X12746Y46323
X11746Y46323
X10746Y46323
X9746Y46323
X8746Y46323
X7746Y46323
X6746Y46323
X5746Y46323
X5746Y47323
X6746Y47323
X7746Y47323
X8746Y47323
X9746Y47323
X10746Y47323
X11746Y47323
X12746Y47323
X13746Y47323
X14746Y47323
X15746Y47323
X16746Y47323
X17746Y47323
X18746Y47323
X19746Y47323
X20746Y47323
X21746Y47323
X21746Y48323
X20746Y48323
X19746Y48323
X18746Y48323
X17746Y48323
X16746Y48323
X15746Y48323
X14746Y48323
X13746Y48323
X12746Y48323
X11746Y48323
X10746Y48323
X9746Y48323
X8746Y48323
X7746Y48323
X6746Y48323
X5746Y48323
X5746Y49323
X6746Y49323
X7746Y49323
X8746Y49323
X9746Y49323
X10746Y49323
X11746Y49323
X12746Y49323
X13746Y49323
X14746Y49323
X15746Y49323
X16746Y49323
X17746Y49323
X18746Y49323
X19746Y49323
X20746Y49323
X21746Y49323
X21746Y50323
X20746Y50323
X19746Y50323
X18746Y50323
X17746Y50323
X16746Y50323
X15746Y50323
X14746Y50323
X13746Y50323
X12746Y50323
X11746Y50323
X10746Y50323
X9746Y50323
X8746Y50323
X7746Y50323
X6746Y50323
X5746Y50323
X4746Y50323
X4746Y49323
X3746Y49323
X3746Y50323
X3746Y48323
X4746Y48323
X4746Y47323
X3746Y47323
X3746Y46323
X4746Y46323
X4746Y45323
X3746Y45323
X3746Y44323
X4746Y44323
X4746Y43323
X3746Y43323
X3746Y42323
X4746Y42323
X4746Y41323
X3746Y41323
X3746Y40323
X4746Y40323
X4746Y39323
X3746Y39323
X3746Y38323
X4746Y38323
X4746Y37323
X3746Y37323
X3746Y36323
X4746Y36323
X4746Y35323
X3746Y35323
X3746Y34323
X4746Y34323
X5746Y34323
X6746Y34323
X7746Y34323
X8746Y34323
X9746Y34323
X10746Y34323
X11746Y34323
X12746Y34323
X13746Y34323
X14746Y34323
X15746Y34323
X16746Y34323
X17746Y34323
X18746Y34323
X19746Y34323
X20746Y34323
X21746Y34323
X21746Y33323
X21746Y32323
X20746Y32323
X20746Y33323
X19746Y33323
X19746Y32323
X18746Y32323
X18746Y33323
X17746Y33323
X17746Y32323
X16746Y32323
X16746Y33323
X15746Y33323
X15746Y32323
X14746Y32323
X14746Y33323
X13746Y33323
X13746Y32323
X12746Y32323
X12746Y33323
X11746Y33323
X11746Y32323
X10746Y32323
X10746Y33323
X9746Y33323
X9746Y32323
X8746Y32323
X8746Y33323
X7746Y33323
X7746Y32323
X6746Y32323
X6746Y33323
X5746Y33323
X5746Y32323
X5746Y31323
X6746Y31323
X7746Y31323
X8746Y31323
X9746Y31323
X10746Y31323
X11746Y31323
X12746Y31323
X13746Y31323
X14746Y31323
X15746Y31323
X16746Y31323
X17746Y31323
X18746Y31323
X19746Y31323
X20746Y31323
X21746Y31323
X21746Y30323
X20746Y30323
X19746Y30323
X18746Y30323
X17746Y30323
X16746Y30323
X15746Y30323
X14746Y30323
X13746Y30323
X12746Y30323
X11746Y30323
X10746Y30323
X9746Y30323
X8746Y30323
X7746Y30323
X6746Y30323
X5746Y30323
X5746Y29323
X6746Y29323
X7746Y29323
X8746Y29323
X9746Y29323
X10746Y29323
X11746Y29323
X12746Y29323
X13746Y29323
X14746Y29323
X15746Y29323
X16746Y29323
X17746Y29323
X18746Y29323
X19746Y29323
X20746Y29323
X21746Y29323
X21746Y28323
X20746Y28323
X19746Y28323
X18746Y28323
X17746Y28323
X16746Y28323
X15746Y28323
X14746Y28323
X13746Y28323
X12746Y28323
X11746Y28323
X10746Y28323
X9746Y28323
X8746Y28323
X7746Y28323
X6746Y28323
X5746Y28323
X5746Y27323
X6746Y27323
X7746Y27323
X8746Y27323
X9746Y27323
X10746Y27323
X11746Y27323
X12746Y27323
X13746Y27323
X14746Y27323
X15746Y27323
X16746Y27323
X17746Y27323
X18746Y27323
X19746Y27323
X20746Y27323
X21746Y27323
X21746Y26323
X20746Y26323
X19746Y26323
X18746Y26323
X17746Y26323
X16746Y26323
X15746Y26323
X14746Y26323
X13746Y26323
X12746Y26323
X11746Y26323
X10746Y26323
X9746Y26323
X8746Y26323
X7746Y26323
X6746Y26323
X5746Y26323
X5746Y25323
X6746Y25323
X7746Y25323
X8746Y25323
X9746Y25323
X10746Y25323
X11746Y25323
X12746Y25323
X13746Y25323
X14746Y25323
X15746Y25323
X16746Y25323
X17746Y25323
X18746Y25323
X19746Y25323
X20746Y25323
X21746Y25323
X21746Y24323
X20746Y24323
X19746Y24323
X18746Y24323
X17746Y24323
X16746Y24323
X15746Y24323
X14746Y24323
X13746Y24323
X12746Y24323
X11746Y24323
X10746Y24323
X9746Y24323
X8746Y24323
X7746Y24323
X6746Y24323
X5746Y24323
X5746Y23323
X6746Y23323
X7746Y23323
X8746Y23323
X9746Y23323
X10746Y23323
X11746Y23323
X12746Y23323
X13746Y23323
X14746Y23323
X15746Y23323
X16746Y23323
X17746Y23323
X18746Y23323
X19746Y23323
X20746Y23323
X21746Y23323
X21746Y22323
X20746Y22323
X19746Y22323
X18746Y22323
X17746Y22323
X16746Y22323
X15746Y22323
X14746Y22323
X13746Y22323
X12746Y22323
X11746Y22323
X10746Y22323
X9746Y22323
X8746Y22323
X7746Y22323
X6746Y22323
X5746Y22323
X5746Y21323
X6746Y21323
X7746Y21323
X8746Y21323
X9746Y21323
X10746Y21323
X11746Y21323
X12746Y21323
X13746Y21323
X14746Y21323
X15746Y21323
X16746Y21323
X17746Y21323
X18746Y21323
X19746Y21323
X20746Y21323
X21746Y21323
X21746Y20323
X21746Y19323
X20746Y19323
X20746Y20323
X19746Y20323
X19746Y19323
X18746Y19323
X18746Y20323
X17746Y20323
X17746Y19323
X16746Y19323
X16746Y20323
X15746Y20323
X15746Y19323
X14746Y19323
X14746Y20323
X13746Y20323
X13746Y19323
X12746Y19323
X12746Y20323
X11746Y20323
X11746Y19323
X10746Y19323
X10746Y20323
X9746Y20323
X9746Y19323
X8746Y19323
X8746Y20323
X7746Y20323
X7746Y19323
X6746Y19323
X6746Y20323
X5746Y20323
X5746Y19323
X5746Y18323
X6746Y18323
X7746Y18323
X8746Y18323
X9746Y18323
X10746Y18323
X11746Y18323
X12746Y18323
X13746Y18323
X14746Y18323
X15746Y18323
X16746Y18323
X17746Y18323
X18746Y18323
X19746Y18323
X20746Y18323
X21746Y18323
X21746Y17323
X20746Y17323
X19746Y17323
X18746Y17323
X17746Y17323
X16746Y17323
X15746Y17323
X14746Y17323
X13746Y17323
X12746Y17323
X11746Y17323
X10746Y17323
X9746Y17323
X8746Y17323
X7746Y17323
X6746Y17323
X5746Y17323
X5746Y16323
X6746Y16323
X7746Y16323
X8746Y16323
X9746Y16323
X10746Y16323
X11746Y16323
X12746Y16323
X13746Y16323
X14746Y16323
X15746Y16323
X16746Y16323
X17746Y16323
X18746Y16323
X19746Y16323
X20746Y16323
X21746Y16323
X21746Y15323
X20746Y15323
X19746Y15323
X18746Y15323
X17746Y15323
X16746Y15323
X15746Y15323
X14746Y15323
X13746Y15323
X12746Y15323
X11746Y15323
X10746Y15323
X9746Y15323
X8746Y15323
X7746Y15323
X6746Y15323
X5746Y15323
X5746Y14323
X6746Y14323
X7746Y14323
X8746Y14323
X9746Y14323
X10746Y14323
X11746Y14323
X12746Y14323
X13746Y14323
X14746Y14323
X15746Y14323
X16746Y14323
X17746Y14323
X18746Y14323
X19746Y14323
X20746Y14323
X21746Y14323
X21746Y13323
X20746Y13323
X19746Y13323
X18746Y13323
X17746Y13323
X16746Y13323
X15746Y13323
X14746Y13323
X13746Y13323
X12746Y13323
X11746Y13323
X10746Y13323
X9746Y13323
X8746Y13323
X7746Y13323
X6746Y13323
X5746Y13323
X5746Y12323
X6746Y12323
X7746Y12323
X8746Y12323
X9746Y12323
X10746Y12323
X11746Y12323
X12746Y12323
X13746Y12323
X14746Y12323
X15746Y12323
X16746Y12323
X17746Y12323
X18746Y12323
X19746Y12323
X20746Y12323
X21746Y12323
X4746Y12323
X3746Y12323
X3746Y13323
X4746Y13323
X4746Y14323
X3746Y14323
X3746Y15323
X4746Y15323
X4746Y16323
X3746Y16323
X3746Y17323
X4746Y17323
X4746Y18323
X3746Y18323
X3746Y19323
X4746Y19323
X4746Y20323
X3746Y20323
X3746Y21323
X4746Y21323
X4746Y22323
X3746Y22323
X3746Y23323
X4746Y23323
X4746Y24323
X4746Y25323
X3746Y25323
X3746Y24323
X3746Y26323
X4746Y26323
X4746Y27323
X3746Y27323
X3746Y28323
X4746Y28323
X4746Y29323
X3746Y29323
X3746Y30323
X4746Y30323
X4746Y31323
X3746Y31323
X3746Y32323
X4746Y32323
X4746Y33323
X3746Y33323
X6746Y51323
X7746Y51323
X8746Y51323
X9746Y51323
X10746Y51323
X11746Y51323
X12746Y51323
X13746Y51323
X14746Y51323
X15746Y51323
X16746Y51323
X17746Y51323
X18746Y51323
X19746Y51323
X20746Y51323
X21746Y51323
X21746Y52323
X20746Y52323
X19746Y52323
X18746Y52323
X17746Y52323
X16746Y52323
X15746Y52323
X14746Y52323
X13746Y52323
X12746Y52323
X11746Y52323
X10746Y52323
X9746Y52323
X8746Y52323
X7746Y52323
X6746Y52323
X6746Y53323
X7746Y53323
X8746Y53323
X9746Y53323
X10746Y53323
X11746Y53323
X12746Y53323
X13746Y53323
X14746Y53323
X15746Y53323
X16746Y53323
X17746Y53323
X18746Y53323
X19746Y53323
X20746Y53323
X21746Y53323
X66746Y14323
X67746Y14323
X68746Y14323
X69746Y14323
X70746Y14323
X71746Y14323
X72746Y14323
X73746Y14323
X74746Y14323
X75746Y14323
X76746Y14323
X77746Y14323
X78746Y14323
X79746Y14323
X80746Y14323
X81746Y14323
X82746Y14323
X82746Y13323
X81746Y13323
X80746Y13323
X79746Y13323
X78746Y13323
X77746Y13323
X76746Y13323
X75746Y13323
X74746Y13323
X73746Y13323
X72746Y13323
X71746Y13323
X70746Y13323
X69746Y13323
X68746Y13323
X67746Y13323
X66746Y13323
X66746Y12339
X67746Y12339
X68746Y12339
X69746Y12339
X70746Y12339
X71746Y12339
X72746Y12339
X73746Y12339
X74746Y12339
X75746Y12339
X76746Y12339
X77746Y12339
X78746Y12339
X79746Y12339
X80746Y12339
X81746Y12339
X82746Y12339
X55746Y13323
X54746Y13323
X53746Y13323
X52746Y13323
X51746Y13323
X50746Y13323
X49746Y13323
X48746Y13323
X47746Y13323
X46746Y13323
X45746Y13323
T03
X2108Y54437
X93053Y54437
T04
X4628Y10539
X20769Y10539
X25691Y10539
X41832Y10539
X46754Y10539
X55809Y10539
X89194Y13689
X92344Y13689
M30
