G75*
%MOIN*%
%OFA0B0*%
%FSLAX25Y25*%
%IPPOS*%
%LPD*%
%AMOC8*
5,1,8,0,0,1.08239X$1,22.5*
%
%ADD10C,0.00600*%
%ADD11C,0.00900*%
%ADD12R,0.00472X0.00236*%
%ADD13R,0.00945X0.00236*%
%ADD14R,0.00709X0.00236*%
%ADD15R,0.01181X0.00236*%
%ADD16R,0.02598X0.00236*%
%ADD17R,0.01654X0.00236*%
%ADD18R,0.03071X0.00236*%
%ADD19R,0.03780X0.00236*%
%ADD20R,0.05906X0.00236*%
%ADD21R,0.06378X0.00236*%
%ADD22R,0.01417X0.00236*%
%ADD23R,0.03543X0.00236*%
%ADD24R,0.02362X0.00236*%
%ADD25R,0.01890X0.00236*%
%ADD26R,0.00236X0.00236*%
%ADD27R,0.04016X0.00236*%
%ADD28R,0.05669X0.00236*%
%ADD29R,0.02835X0.00236*%
%ADD30R,0.02126X0.00236*%
%ADD31R,0.03307X0.00236*%
%ADD32R,0.04252X0.00236*%
%ADD33R,0.06142X0.00236*%
%ADD34R,0.04488X0.00236*%
%ADD35R,0.04724X0.00236*%
%ADD36R,0.06614X0.00236*%
%ADD37R,0.05433X0.00236*%
%ADD38R,0.13228X0.00236*%
%ADD39R,0.12992X0.00236*%
%ADD40R,0.12283X0.00236*%
%ADD41R,0.09921X0.00236*%
%ADD42R,0.07323X0.00236*%
%ADD43R,0.07559X0.00236*%
%ADD44R,0.04961X0.00236*%
%ADD45R,0.10157X0.00236*%
%ADD46R,0.16299X0.00236*%
%ADD47R,0.08976X0.00236*%
%ADD48R,0.08268X0.00236*%
%ADD49R,0.08031X0.00236*%
%ADD50R,0.06850X0.00236*%
%ADD51R,0.05197X0.00236*%
%ADD52R,0.14882X0.00236*%
%ADD53R,0.21260X0.00236*%
%ADD54R,0.24803X0.00236*%
%ADD55R,0.12756X0.00236*%
%ADD56R,0.11339X0.00236*%
%ADD57R,0.09213X0.00236*%
%ADD58R,0.07087X0.00236*%
%ADD59R,0.08504X0.00236*%
%ADD60R,0.07795X0.00236*%
%ADD61R,0.09449X0.00236*%
%ADD62R,0.08740X0.00236*%
%ADD63R,0.09685X0.00236*%
%ADD64C,0.00300*%
D10*
X0198368Y0074872D02*
X0198368Y0075939D01*
X0199435Y0077007D01*
X0202638Y0077007D01*
X0202638Y0074872D01*
X0201570Y0073804D01*
X0199435Y0073804D01*
X0198368Y0074872D01*
X0200503Y0079142D02*
X0198368Y0080209D01*
X0200503Y0079142D02*
X0202638Y0077007D01*
X0204813Y0073804D02*
X0209084Y0073804D01*
X0206948Y0073804D02*
X0206948Y0080209D01*
X0209084Y0078074D01*
X0211259Y0079142D02*
X0212326Y0080209D01*
X0214461Y0080209D01*
X0215529Y0079142D01*
X0215529Y0074872D01*
X0211259Y0079142D01*
X0211259Y0074872D01*
X0212326Y0073804D01*
X0214461Y0073804D01*
X0215529Y0074872D01*
X0217704Y0073804D02*
X0221975Y0073804D01*
X0217704Y0078074D01*
X0217704Y0079142D01*
X0218772Y0080209D01*
X0220907Y0080209D01*
X0221975Y0079142D01*
X0230582Y0078074D02*
X0232717Y0080209D01*
X0234892Y0079142D02*
X0235960Y0080209D01*
X0238095Y0080209D01*
X0239163Y0079142D01*
X0239163Y0074872D01*
X0238095Y0073804D01*
X0235960Y0073804D01*
X0234892Y0074872D01*
X0232717Y0073804D02*
X0230582Y0075939D01*
X0230582Y0078074D01*
X0241324Y0080209D02*
X0243460Y0078074D01*
X0243460Y0075939D01*
X0241324Y0073804D01*
X0252067Y0073804D02*
X0253134Y0074872D01*
X0253134Y0079142D01*
X0252067Y0078074D02*
X0254202Y0078074D01*
X0256377Y0077007D02*
X0256377Y0073804D01*
X0256377Y0077007D02*
X0257445Y0078074D01*
X0259580Y0078074D01*
X0260648Y0077007D01*
X0262823Y0078074D02*
X0266025Y0078074D01*
X0267093Y0077007D01*
X0267093Y0074872D01*
X0266025Y0073804D01*
X0262823Y0073804D01*
X0262823Y0072736D02*
X0262823Y0078074D01*
X0260648Y0080209D02*
X0260648Y0073804D01*
X0262823Y0072736D02*
X0263890Y0071669D01*
X0264958Y0071669D01*
X0269255Y0073804D02*
X0271390Y0073804D01*
X0270322Y0073804D02*
X0270322Y0078074D01*
X0271390Y0078074D01*
X0273559Y0078074D02*
X0274626Y0078074D01*
X0276761Y0075939D01*
X0276761Y0073804D02*
X0276761Y0078074D01*
X0278936Y0078074D02*
X0278936Y0072736D01*
X0280004Y0071669D01*
X0281072Y0071669D01*
X0282139Y0073804D02*
X0278936Y0073804D01*
X0282139Y0073804D02*
X0283207Y0074872D01*
X0283207Y0078074D01*
X0285382Y0077007D02*
X0285382Y0074872D01*
X0286450Y0073804D01*
X0289652Y0073804D01*
X0289652Y0071669D02*
X0289652Y0078074D01*
X0286450Y0078074D01*
X0285382Y0077007D01*
X0291827Y0077007D02*
X0292895Y0078074D01*
X0295030Y0078074D01*
X0296098Y0077007D01*
X0296098Y0074872D01*
X0295030Y0073804D01*
X0292895Y0073804D01*
X0291827Y0074872D01*
X0291827Y0077007D01*
X0298273Y0079142D02*
X0299341Y0080209D01*
X0301476Y0080209D01*
X0302543Y0079142D01*
X0302543Y0074872D01*
X0301476Y0073804D01*
X0299341Y0073804D01*
X0298273Y0074872D01*
X0311144Y0074872D02*
X0311144Y0073804D01*
X0312212Y0073804D01*
X0312212Y0074872D01*
X0311144Y0074872D01*
X0314373Y0073804D02*
X0314373Y0080209D01*
X0316509Y0080209D01*
X0318684Y0079142D02*
X0319751Y0080209D01*
X0321886Y0080209D01*
X0322954Y0079142D01*
X0322954Y0074872D01*
X0321886Y0073804D01*
X0319751Y0073804D01*
X0318684Y0074872D01*
X0316509Y0073804D02*
X0314373Y0073804D01*
X0325129Y0074872D02*
X0326197Y0073804D01*
X0328332Y0073804D01*
X0329399Y0074872D01*
X0331575Y0074872D02*
X0332642Y0073804D01*
X0335845Y0073804D01*
X0335845Y0080209D01*
X0332642Y0080209D01*
X0331575Y0079142D01*
X0331575Y0078074D01*
X0332642Y0077007D01*
X0335845Y0077007D01*
X0338020Y0077007D02*
X0339088Y0075939D01*
X0342290Y0075939D01*
X0340155Y0075939D02*
X0338020Y0073804D01*
X0338020Y0077007D02*
X0338020Y0079142D01*
X0339088Y0080209D01*
X0342290Y0080209D01*
X0342290Y0073804D01*
X0344452Y0073804D02*
X0346587Y0073804D01*
X0346587Y0080209D01*
X0344452Y0080209D01*
X0355208Y0078074D02*
X0355208Y0072736D01*
X0356276Y0071669D01*
X0357343Y0071669D01*
X0358411Y0073804D02*
X0355208Y0073804D01*
X0358411Y0073804D02*
X0359478Y0074872D01*
X0359478Y0078074D01*
X0361647Y0078074D02*
X0364850Y0075939D01*
X0361647Y0073804D01*
X0364850Y0073804D02*
X0364850Y0080209D01*
X0367025Y0078074D02*
X0370228Y0078074D01*
X0371295Y0077007D01*
X0370228Y0075939D01*
X0368092Y0075939D01*
X0367025Y0074872D01*
X0368092Y0073804D01*
X0371295Y0073804D01*
X0373470Y0074872D02*
X0373470Y0078074D01*
X0373470Y0074872D02*
X0374538Y0073804D01*
X0375606Y0074872D01*
X0376673Y0073804D01*
X0377741Y0074872D01*
X0377741Y0078074D01*
X0379916Y0077007D02*
X0380983Y0078074D01*
X0383119Y0078074D01*
X0384186Y0077007D01*
X0384186Y0074872D01*
X0383119Y0073804D01*
X0380983Y0073804D01*
X0379916Y0074872D01*
X0379916Y0077007D01*
X0386361Y0077007D02*
X0387429Y0078074D01*
X0390632Y0078074D01*
X0390632Y0080209D02*
X0390632Y0073804D01*
X0387429Y0073804D01*
X0386361Y0074872D01*
X0386361Y0077007D01*
X0392807Y0078074D02*
X0397077Y0073804D01*
X0392807Y0073804D01*
X0392807Y0078074D02*
X0397077Y0078074D01*
X0399246Y0078074D02*
X0400313Y0078074D01*
X0402448Y0075939D01*
X0402448Y0073804D02*
X0402448Y0078074D01*
X0404624Y0077007D02*
X0404624Y0075939D01*
X0408894Y0075939D01*
X0408894Y0074872D02*
X0408894Y0077007D01*
X0407826Y0078074D01*
X0405691Y0078074D01*
X0404624Y0077007D01*
X0405691Y0073804D02*
X0407826Y0073804D01*
X0408894Y0074872D01*
X0411056Y0073804D02*
X0413191Y0073804D01*
X0412123Y0073804D02*
X0412123Y0078074D01*
X0413191Y0078074D01*
X0412123Y0080209D02*
X0412123Y0081277D01*
X0415366Y0080209D02*
X0415366Y0073804D01*
X0417501Y0075939D01*
X0419636Y0073804D01*
X0419636Y0080209D01*
X0428257Y0078074D02*
X0428257Y0072736D01*
X0429325Y0071669D01*
X0430392Y0071669D01*
X0431460Y0073804D02*
X0428257Y0073804D01*
X0431460Y0073804D02*
X0432527Y0074872D01*
X0432527Y0078074D01*
X0434703Y0077007D02*
X0435770Y0078074D01*
X0438973Y0078074D01*
X0438973Y0080209D02*
X0438973Y0073804D01*
X0435770Y0073804D01*
X0434703Y0074872D01*
X0434703Y0077007D01*
X0447594Y0078074D02*
X0450796Y0078074D01*
X0451864Y0077007D01*
X0451864Y0074872D01*
X0450796Y0073804D01*
X0447594Y0073804D01*
X0447594Y0080209D01*
X0454039Y0077007D02*
X0454039Y0075939D01*
X0458309Y0075939D01*
X0458309Y0074872D02*
X0458309Y0077007D01*
X0457242Y0078074D01*
X0455107Y0078074D01*
X0454039Y0077007D01*
X0455107Y0073804D02*
X0457242Y0073804D01*
X0458309Y0074872D01*
X0460471Y0073804D02*
X0461539Y0074872D01*
X0461539Y0079142D01*
X0462606Y0078074D02*
X0460471Y0078074D01*
X0464782Y0077007D02*
X0464782Y0073804D01*
X0467984Y0073804D01*
X0469052Y0074872D01*
X0467984Y0075939D01*
X0464782Y0075939D01*
X0464782Y0077007D02*
X0465849Y0078074D01*
X0467984Y0078074D01*
X0471227Y0077007D02*
X0471227Y0075939D01*
X0475497Y0075939D01*
X0475497Y0074872D02*
X0475497Y0077007D01*
X0474430Y0078074D01*
X0472295Y0078074D01*
X0471227Y0077007D01*
X0472295Y0073804D02*
X0474430Y0073804D01*
X0475497Y0074872D01*
X0477666Y0078074D02*
X0478734Y0078074D01*
X0480869Y0075939D01*
X0480869Y0073804D02*
X0480869Y0078074D01*
X0483044Y0079142D02*
X0484111Y0080209D01*
X0486247Y0080209D01*
X0487314Y0079142D01*
X0487314Y0074872D01*
X0486247Y0073804D01*
X0484111Y0073804D01*
X0483044Y0074872D01*
X0576137Y0096919D02*
X0577205Y0095851D01*
X0580407Y0095851D01*
X0580407Y0102257D01*
X0577205Y0102257D01*
X0576137Y0101189D01*
X0576137Y0096919D01*
X0582583Y0095851D02*
X0582583Y0102257D01*
X0586853Y0102257D02*
X0582583Y0095851D01*
X0586853Y0095851D02*
X0586853Y0102257D01*
X0589028Y0101189D02*
X0590096Y0102257D01*
X0592231Y0102257D01*
X0593298Y0101189D01*
X0593298Y0096919D01*
X0592231Y0095851D01*
X0590096Y0095851D01*
X0589028Y0096919D01*
X0589028Y0099054D01*
X0591163Y0099054D01*
X0585785Y0117505D02*
X0586853Y0118572D01*
X0585785Y0117505D02*
X0583650Y0117505D01*
X0582583Y0118572D01*
X0582583Y0120707D01*
X0583650Y0121775D01*
X0584718Y0121775D01*
X0586853Y0120707D01*
X0586853Y0123910D01*
X0582583Y0123910D01*
X0580407Y0123910D02*
X0580407Y0119640D01*
X0578272Y0117505D01*
X0576137Y0119640D01*
X0576137Y0123910D01*
X0589028Y0120707D02*
X0593298Y0120707D01*
X0591163Y0118572D02*
X0591163Y0122843D01*
X0615202Y0077541D02*
X0612776Y0075114D01*
X0612776Y0070261D01*
X0612776Y0073901D02*
X0617629Y0073901D01*
X0617629Y0075114D02*
X0615202Y0077541D01*
X0617629Y0075114D02*
X0617629Y0070261D01*
X0332642Y0077007D02*
X0331575Y0075939D01*
X0331575Y0074872D01*
X0329399Y0078074D02*
X0328332Y0077007D01*
X0326197Y0077007D01*
X0325129Y0075939D01*
X0325129Y0074872D01*
X0325129Y0079142D02*
X0326197Y0080209D01*
X0328332Y0080209D01*
X0329399Y0079142D01*
X0329399Y0078074D01*
X0270322Y0080209D02*
X0270322Y0081277D01*
X0920940Y0087076D02*
X0920940Y0091347D01*
X0922008Y0092414D01*
X0925211Y0092414D01*
X0925211Y0086009D01*
X0922008Y0086009D01*
X0920940Y0087076D01*
X0927386Y0086009D02*
X0927386Y0092414D01*
X0931656Y0092414D02*
X0927386Y0086009D01*
X0931656Y0086009D02*
X0931656Y0092414D01*
X0933831Y0091347D02*
X0934899Y0092414D01*
X0937034Y0092414D01*
X0938102Y0091347D01*
X0938102Y0087076D01*
X0937034Y0086009D01*
X0934899Y0086009D01*
X0933831Y0087076D01*
X0933831Y0089211D01*
X0935966Y0089211D01*
X0923864Y0077541D02*
X0921437Y0075114D01*
X0921437Y0070261D01*
X0921437Y0073901D02*
X0926291Y0073901D01*
X0926291Y0075114D02*
X0923864Y0077541D01*
X0926291Y0075114D02*
X0926291Y0070261D01*
X0928453Y0107662D02*
X0930589Y0107662D01*
X0931656Y0108730D01*
X0931656Y0110865D02*
X0929521Y0111933D01*
X0928453Y0111933D01*
X0927386Y0110865D01*
X0927386Y0108730D01*
X0928453Y0107662D01*
X0925211Y0109797D02*
X0923075Y0107662D01*
X0920940Y0109797D01*
X0920940Y0114068D01*
X0925211Y0114068D02*
X0925211Y0109797D01*
X0927386Y0114068D02*
X0931656Y0114068D01*
X0931656Y0110865D01*
X0933831Y0110865D02*
X0938102Y0110865D01*
X0935966Y0113000D02*
X0935966Y0108730D01*
X0518810Y0554513D02*
X0515608Y0554513D01*
X0514540Y0555580D01*
X0514540Y0556648D01*
X0515608Y0557715D01*
X0518810Y0557715D01*
X0518810Y0554513D02*
X0518810Y0560918D01*
X0515608Y0560918D01*
X0514540Y0559850D01*
X0514540Y0558783D01*
X0515608Y0557715D01*
X0512365Y0557715D02*
X0512365Y0555580D01*
X0511297Y0554513D01*
X0509162Y0554513D01*
X0508094Y0555580D01*
X0508094Y0557715D01*
X0509162Y0558783D01*
X0511297Y0558783D01*
X0512365Y0557715D01*
X0505919Y0555580D02*
X0504852Y0556648D01*
X0501649Y0556648D01*
X0501649Y0557715D02*
X0501649Y0554513D01*
X0504852Y0554513D01*
X0505919Y0555580D01*
X0504852Y0558783D02*
X0502717Y0558783D01*
X0501649Y0557715D01*
X0499474Y0556648D02*
X0497339Y0558783D01*
X0496271Y0558783D01*
X0494102Y0557715D02*
X0493035Y0558783D01*
X0489832Y0558783D01*
X0489832Y0560918D02*
X0489832Y0554513D01*
X0493035Y0554513D01*
X0494102Y0555580D01*
X0494102Y0557715D01*
X0499474Y0558783D02*
X0499474Y0554513D01*
X0481212Y0556648D02*
X0481212Y0560918D01*
X0481212Y0556648D02*
X0479076Y0554513D01*
X0476941Y0556648D01*
X0476941Y0560918D01*
X0474766Y0557715D02*
X0473698Y0558783D01*
X0471563Y0558783D01*
X0470496Y0557715D01*
X0470496Y0556648D01*
X0474766Y0556648D01*
X0474766Y0557715D02*
X0474766Y0555580D01*
X0473698Y0554513D01*
X0471563Y0554513D01*
X0468321Y0554513D02*
X0468321Y0558783D01*
X0468321Y0556648D02*
X0466185Y0558783D01*
X0465118Y0558783D01*
X0462949Y0557715D02*
X0461882Y0558783D01*
X0458679Y0558783D01*
X0456504Y0558783D02*
X0455436Y0558783D01*
X0455436Y0554513D01*
X0454369Y0554513D02*
X0456504Y0554513D01*
X0458679Y0555580D02*
X0459747Y0556648D01*
X0461882Y0556648D01*
X0462949Y0557715D01*
X0462949Y0554513D02*
X0459747Y0554513D01*
X0458679Y0555580D01*
X0455436Y0560918D02*
X0455436Y0561986D01*
X0452207Y0557715D02*
X0452207Y0555580D01*
X0451139Y0554513D01*
X0449004Y0554513D01*
X0447936Y0555580D01*
X0447936Y0557715D01*
X0449004Y0558783D01*
X0451139Y0558783D01*
X0452207Y0557715D01*
X0445761Y0558783D02*
X0442559Y0558783D01*
X0441491Y0557715D01*
X0441491Y0554513D01*
X0445761Y0554513D02*
X0445761Y0558783D01*
X0432870Y0558783D02*
X0430735Y0560918D01*
X0430735Y0554513D01*
X0432870Y0554513D02*
X0428600Y0554513D01*
X0426425Y0554513D02*
X0425357Y0554513D01*
X0425357Y0555580D01*
X0426425Y0555580D01*
X0426425Y0554513D01*
X0423202Y0555580D02*
X0418932Y0559850D01*
X0418932Y0555580D01*
X0419999Y0554513D01*
X0422134Y0554513D01*
X0423202Y0555580D01*
X0423202Y0559850D01*
X0422134Y0560918D01*
X0419999Y0560918D01*
X0418932Y0559850D01*
D11*
X0082035Y0099938D02*
X0076575Y0099938D01*
X0076575Y0110859D01*
X0076575Y0107218D02*
X0082035Y0107218D01*
X0083855Y0105398D01*
X0083855Y0101758D01*
X0082035Y0099938D01*
X0087458Y0107218D02*
X0089278Y0107218D01*
X0092918Y0103578D01*
X0096513Y0103578D02*
X0101974Y0103578D01*
X0103794Y0101758D01*
X0101974Y0099938D01*
X0096513Y0099938D01*
X0096513Y0105398D01*
X0098333Y0107218D01*
X0101974Y0107218D01*
X0107389Y0105398D02*
X0107389Y0101758D01*
X0109209Y0099938D01*
X0112849Y0099938D01*
X0114669Y0101758D01*
X0114669Y0105398D01*
X0112849Y0107218D01*
X0109209Y0107218D01*
X0107389Y0105398D01*
X0118264Y0105398D02*
X0118264Y0101758D01*
X0120084Y0099938D01*
X0125544Y0099938D01*
X0125544Y0110859D01*
X0129140Y0110859D02*
X0129140Y0099938D01*
X0134600Y0099938D01*
X0136420Y0101758D01*
X0136420Y0105398D01*
X0134600Y0107218D01*
X0129140Y0107218D01*
X0125544Y0107218D02*
X0120084Y0107218D01*
X0118264Y0105398D01*
X0140015Y0105398D02*
X0140015Y0099938D01*
X0145475Y0099938D01*
X0147295Y0101758D01*
X0145475Y0103578D01*
X0140015Y0103578D01*
X0140015Y0105398D02*
X0141835Y0107218D01*
X0145475Y0107218D01*
X0150891Y0105398D02*
X0150891Y0103578D01*
X0158171Y0103578D01*
X0158171Y0101758D02*
X0158171Y0105398D01*
X0156351Y0107218D01*
X0152711Y0107218D01*
X0150891Y0105398D01*
X0152711Y0099938D02*
X0156351Y0099938D01*
X0158171Y0101758D01*
X0161773Y0107218D02*
X0163594Y0107218D01*
X0167234Y0103578D01*
X0170829Y0103578D02*
X0170829Y0101758D01*
X0172649Y0099938D01*
X0178109Y0099938D01*
X0178109Y0110859D01*
X0172649Y0110859D01*
X0170829Y0109038D01*
X0170829Y0107218D01*
X0172649Y0105398D01*
X0178109Y0105398D01*
X0172649Y0105398D02*
X0170829Y0103578D01*
X0167234Y0099938D02*
X0167234Y0107218D01*
X0092918Y0107218D02*
X0092918Y0099938D01*
X0285392Y0100087D02*
X0285392Y0109187D01*
X0290853Y0109187D01*
X0292673Y0107367D01*
X0292673Y0103727D01*
X0290853Y0101907D01*
X0285392Y0101907D01*
X0285392Y0100087D02*
X0287213Y0098267D01*
X0289033Y0098267D01*
X0296268Y0101907D02*
X0296268Y0107367D01*
X0298088Y0109187D01*
X0303548Y0109187D01*
X0303548Y0101907D01*
X0307158Y0101907D02*
X0310798Y0101907D01*
X0308978Y0101907D02*
X0308978Y0109187D01*
X0310798Y0109187D01*
X0314394Y0107367D02*
X0314394Y0103727D01*
X0316214Y0101907D01*
X0321674Y0101907D01*
X0325269Y0101907D02*
X0330729Y0101907D01*
X0332549Y0103727D01*
X0332549Y0109187D01*
X0336159Y0109187D02*
X0339800Y0109187D01*
X0337979Y0111007D02*
X0337979Y0103727D01*
X0336159Y0101907D01*
X0343395Y0103727D02*
X0343395Y0107367D01*
X0345215Y0109187D01*
X0348855Y0109187D01*
X0350675Y0107367D01*
X0350675Y0103727D01*
X0348855Y0101907D01*
X0345215Y0101907D01*
X0343395Y0103727D01*
X0354285Y0101907D02*
X0356105Y0103727D01*
X0356105Y0111007D01*
X0357925Y0109187D02*
X0354285Y0109187D01*
X0361520Y0107367D02*
X0363341Y0109187D01*
X0366981Y0109187D01*
X0368801Y0107367D01*
X0368801Y0103727D01*
X0366981Y0101907D01*
X0363341Y0101907D01*
X0361520Y0103727D01*
X0361520Y0107367D01*
X0372403Y0109187D02*
X0374223Y0109187D01*
X0377864Y0105547D01*
X0377864Y0101907D02*
X0377864Y0109187D01*
X0381459Y0111007D02*
X0381459Y0107367D01*
X0383279Y0105547D01*
X0388739Y0105547D01*
X0388739Y0101907D02*
X0388739Y0112827D01*
X0383279Y0112827D01*
X0381459Y0111007D01*
X0328909Y0098267D02*
X0327089Y0098267D01*
X0325269Y0100087D01*
X0325269Y0109187D01*
X0321674Y0109187D02*
X0316214Y0109187D01*
X0314394Y0107367D01*
X0321674Y0109187D02*
X0321674Y0098267D01*
X0308978Y0112827D02*
X0308978Y0114647D01*
X0492533Y0110859D02*
X0499813Y0110859D01*
X0496173Y0110859D02*
X0496173Y0099938D01*
X0503409Y0099938D02*
X0503409Y0107218D01*
X0507049Y0110859D01*
X0510689Y0107218D01*
X0510689Y0099938D01*
X0514284Y0101758D02*
X0514284Y0105398D01*
X0517924Y0105398D01*
X0514284Y0101758D02*
X0516104Y0099938D01*
X0519744Y0099938D01*
X0521564Y0101758D01*
X0521564Y0109038D01*
X0519744Y0110859D01*
X0516104Y0110859D01*
X0514284Y0109038D01*
X0510689Y0105398D02*
X0503409Y0105398D01*
X0525160Y0105398D02*
X0532440Y0105398D01*
X0532440Y0107218D02*
X0528800Y0110859D01*
X0525160Y0107218D01*
X0525160Y0099938D01*
X0532440Y0099938D02*
X0532440Y0107218D01*
D12*
X0919386Y0492559D03*
X0920331Y0494449D03*
X0920331Y0497047D03*
X0922220Y0497520D03*
X0922220Y0497756D03*
X0923874Y0502244D03*
X0923874Y0502480D03*
X0924819Y0502480D03*
X0925055Y0502717D03*
X0925055Y0502953D03*
X0925291Y0503189D03*
X0924819Y0505551D03*
X0925055Y0505787D03*
X0928362Y0507205D03*
X0928598Y0507441D03*
X0928598Y0506969D03*
X0930252Y0501772D03*
X0930488Y0497520D03*
X0931906Y0495866D03*
X0927417Y0497047D03*
X0924346Y0493268D03*
X0918441Y0500827D03*
X0918441Y0501063D03*
X0918441Y0501299D03*
X0918441Y0501772D03*
X0918441Y0502008D03*
X0918205Y0502244D03*
X0918205Y0502480D03*
X0918205Y0502717D03*
X0917969Y0502953D03*
X0919622Y0502244D03*
X0919622Y0502008D03*
X0919386Y0505787D03*
X0921276Y0505787D03*
X0922220Y0508150D03*
X0921748Y0508622D03*
X0920567Y0509567D03*
X0918677Y0511693D03*
X0917969Y0512165D03*
X0917732Y0512402D03*
X0917260Y0513110D03*
X0917024Y0512874D03*
X0917969Y0517835D03*
X0916315Y0521614D03*
X0916315Y0521850D03*
X0915134Y0522087D03*
X0915134Y0522323D03*
X0915370Y0522795D03*
X0915370Y0523031D03*
X0915370Y0523268D03*
X0916787Y0523504D03*
X0919386Y0524449D03*
X0921276Y0526339D03*
X0921276Y0526811D03*
X0921512Y0527047D03*
X0921984Y0526339D03*
X0922693Y0525630D03*
X0922220Y0527520D03*
X0921512Y0531063D03*
X0917024Y0528465D03*
X0916787Y0528701D03*
X0915843Y0527992D03*
X0915843Y0527756D03*
X0915843Y0527520D03*
X0915843Y0527283D03*
X0915843Y0527047D03*
X0915843Y0526811D03*
X0915843Y0526575D03*
X0915843Y0526339D03*
X0914425Y0527047D03*
X0914425Y0527283D03*
X0914425Y0527520D03*
X0914661Y0528701D03*
X0913953Y0524921D03*
X0913953Y0524685D03*
X0913717Y0523504D03*
X0913717Y0523268D03*
X0923874Y0521850D03*
X0929071Y0526575D03*
X0930961Y0524449D03*
X0932378Y0526339D03*
X0934031Y0525157D03*
X0934031Y0524921D03*
X0935921Y0513110D03*
X0935213Y0506732D03*
X0934976Y0503898D03*
X0938047Y0502244D03*
X0935685Y0500354D03*
X0940646Y0504606D03*
X0924346Y0512402D03*
X0917024Y0507677D03*
X0917024Y0507441D03*
X0917024Y0506969D03*
X0917024Y0506732D03*
X0917260Y0506260D03*
X0917496Y0505787D03*
X0914425Y0502717D03*
X0911591Y0505079D03*
X0908047Y0505787D03*
X0907811Y0505551D03*
X0908283Y0506969D03*
X0908756Y0508858D03*
D13*
X0908756Y0508622D03*
X0908756Y0507913D03*
X0908047Y0506496D03*
X0908047Y0506024D03*
X0908520Y0509567D03*
X0908520Y0509803D03*
X0908992Y0510984D03*
X0909937Y0513346D03*
X0909937Y0513819D03*
X0910173Y0514528D03*
X0910409Y0515236D03*
X0910646Y0515709D03*
X0910409Y0515945D03*
X0910409Y0516417D03*
X0910646Y0517126D03*
X0910646Y0517362D03*
X0910409Y0517598D03*
X0909937Y0518071D03*
X0909701Y0518543D03*
X0909465Y0519016D03*
X0909465Y0519252D03*
X0909465Y0520669D03*
X0909465Y0520906D03*
X0909701Y0521614D03*
X0909701Y0521850D03*
X0911118Y0520906D03*
X0913480Y0520669D03*
X0917024Y0520669D03*
X0915606Y0524449D03*
X0915606Y0524685D03*
X0914189Y0525866D03*
X0914898Y0529646D03*
X0915134Y0530354D03*
X0915370Y0530591D03*
X0916787Y0528937D03*
X0919386Y0524921D03*
X0921276Y0524449D03*
X0921512Y0525630D03*
X0921512Y0526102D03*
X0922457Y0526575D03*
X0922693Y0526811D03*
X0921984Y0527283D03*
X0923638Y0529646D03*
X0922457Y0530827D03*
X0926236Y0529646D03*
X0928598Y0529409D03*
X0930961Y0527047D03*
X0932142Y0524685D03*
X0932142Y0524449D03*
X0932142Y0524213D03*
X0932142Y0523976D03*
X0933795Y0523976D03*
X0933795Y0523740D03*
X0933795Y0524213D03*
X0934031Y0525630D03*
X0934031Y0525866D03*
X0934031Y0526102D03*
X0933795Y0526811D03*
X0933795Y0527047D03*
X0933795Y0527756D03*
X0933795Y0527992D03*
X0933795Y0528228D03*
X0936394Y0520669D03*
X0938520Y0518780D03*
X0938756Y0519016D03*
X0938992Y0519252D03*
X0938992Y0519488D03*
X0938283Y0518543D03*
X0938283Y0518307D03*
X0938047Y0517835D03*
X0937811Y0516654D03*
X0938047Y0516417D03*
X0938756Y0515945D03*
X0938992Y0515709D03*
X0939465Y0515472D03*
X0939701Y0515000D03*
X0939465Y0514291D03*
X0939465Y0514055D03*
X0939465Y0513819D03*
X0939937Y0513583D03*
X0940173Y0513346D03*
X0939937Y0511929D03*
X0940173Y0511693D03*
X0940409Y0510512D03*
X0940646Y0510276D03*
X0940173Y0509331D03*
X0940409Y0508858D03*
X0940173Y0506969D03*
X0940409Y0506496D03*
X0940173Y0505315D03*
X0937339Y0499173D03*
X0929307Y0495630D03*
X0922929Y0493268D03*
X0919386Y0492795D03*
X0917969Y0495157D03*
X0914898Y0497047D03*
X0914898Y0497283D03*
X0919150Y0500118D03*
X0919386Y0499882D03*
X0919858Y0501299D03*
X0919622Y0501535D03*
X0919622Y0501772D03*
X0922693Y0502480D03*
X0922929Y0502717D03*
X0923165Y0502953D03*
X0923638Y0505787D03*
X0923874Y0506260D03*
X0926236Y0505551D03*
X0917732Y0505315D03*
X0917496Y0508622D03*
X0916787Y0512638D03*
X0913480Y0503425D03*
X0922220Y0497992D03*
X0936866Y0513110D03*
X0936866Y0513346D03*
X0936394Y0514055D03*
X0925764Y0517835D03*
X0924346Y0520669D03*
X0923638Y0523976D03*
X0925528Y0526575D03*
D14*
X0922575Y0527047D03*
X0927063Y0529173D03*
X0928953Y0527283D03*
X0933913Y0527283D03*
X0933913Y0527520D03*
X0933913Y0526575D03*
X0933913Y0526339D03*
X0934150Y0525394D03*
X0933913Y0524685D03*
X0933913Y0524449D03*
X0934150Y0522323D03*
X0935803Y0518071D03*
X0929898Y0510512D03*
X0928717Y0506732D03*
X0926118Y0505315D03*
X0923756Y0506024D03*
X0921866Y0508386D03*
X0920921Y0509094D03*
X0917142Y0508386D03*
X0917142Y0508150D03*
X0917142Y0507913D03*
X0917142Y0507205D03*
X0917142Y0506496D03*
X0917378Y0506024D03*
X0917614Y0505551D03*
X0914071Y0502953D03*
X0913835Y0503189D03*
X0918559Y0500591D03*
X0918795Y0500354D03*
X0919976Y0498465D03*
X0920213Y0497756D03*
X0920213Y0497520D03*
X0920213Y0497283D03*
X0921866Y0494921D03*
X0923756Y0494685D03*
X0923047Y0493031D03*
X0920685Y0493031D03*
X0923992Y0497992D03*
X0930606Y0502008D03*
X0931787Y0496102D03*
X0938165Y0502008D03*
X0939583Y0501063D03*
X0940291Y0505079D03*
X0940291Y0506732D03*
X0940055Y0509094D03*
X0926827Y0513110D03*
X0914780Y0518780D03*
X0913835Y0518780D03*
X0913598Y0518543D03*
X0912890Y0518071D03*
X0911472Y0518780D03*
X0910055Y0517835D03*
X0909819Y0518307D03*
X0909583Y0518780D03*
X0909346Y0519488D03*
X0909346Y0519724D03*
X0909346Y0519961D03*
X0909346Y0520197D03*
X0909346Y0520433D03*
X0909583Y0521378D03*
X0913598Y0522795D03*
X0913835Y0523740D03*
X0913835Y0523976D03*
X0913835Y0524213D03*
X0913835Y0524449D03*
X0914071Y0525157D03*
X0914071Y0525394D03*
X0914071Y0525630D03*
X0914307Y0526102D03*
X0914307Y0526339D03*
X0914307Y0526575D03*
X0914307Y0526811D03*
X0914543Y0527756D03*
X0914543Y0527992D03*
X0914543Y0528228D03*
X0914543Y0528465D03*
X0914780Y0528937D03*
X0914780Y0529173D03*
X0914780Y0529409D03*
X0915016Y0529882D03*
X0915016Y0530118D03*
X0918323Y0531063D03*
X0915961Y0526102D03*
X0915961Y0525866D03*
X0915961Y0525630D03*
X0915724Y0525394D03*
X0915724Y0525157D03*
X0915724Y0524921D03*
X0915488Y0524213D03*
X0915488Y0523976D03*
X0915488Y0523740D03*
X0915488Y0523504D03*
X0915252Y0522559D03*
X0916433Y0522087D03*
X0913835Y0520433D03*
X0910528Y0516890D03*
X0910528Y0516654D03*
X0910291Y0516181D03*
X0910528Y0515472D03*
X0910291Y0515000D03*
X0910291Y0514764D03*
X0910055Y0514291D03*
X0910055Y0514055D03*
X0909819Y0513583D03*
X0910055Y0512874D03*
X0910055Y0512638D03*
X0909819Y0512402D03*
X0909583Y0512165D03*
X0909346Y0511929D03*
X0909346Y0511693D03*
X0909110Y0511457D03*
X0909110Y0511220D03*
X0908874Y0510748D03*
X0908874Y0510512D03*
X0908638Y0510276D03*
X0908638Y0510039D03*
X0908874Y0507677D03*
X0908638Y0507441D03*
X0908402Y0507205D03*
X0908165Y0506732D03*
X0907929Y0505315D03*
X0926118Y0520669D03*
X0926118Y0520906D03*
X0926118Y0522087D03*
D15*
X0925882Y0523031D03*
X0925882Y0523268D03*
X0923756Y0524213D03*
X0925646Y0526339D03*
X0927063Y0526339D03*
X0927299Y0526575D03*
X0924937Y0530118D03*
X0923520Y0530591D03*
X0921394Y0528465D03*
X0915488Y0530827D03*
X0916906Y0523268D03*
X0917142Y0522795D03*
X0911472Y0519016D03*
X0909583Y0521142D03*
X0909819Y0522087D03*
X0910055Y0522323D03*
X0910055Y0513110D03*
X0908638Y0508386D03*
X0908638Y0508150D03*
X0908165Y0506260D03*
X0907693Y0505079D03*
X0907693Y0504843D03*
X0907929Y0504370D03*
X0908165Y0503898D03*
X0908402Y0503425D03*
X0908638Y0502717D03*
X0908874Y0502480D03*
X0910291Y0500591D03*
X0913362Y0503661D03*
X0913126Y0503898D03*
X0912890Y0504843D03*
X0912890Y0505079D03*
X0914543Y0508858D03*
X0914780Y0509094D03*
X0917614Y0508858D03*
X0917850Y0509094D03*
X0918323Y0505079D03*
X0920921Y0502953D03*
X0920921Y0502244D03*
X0920921Y0502008D03*
X0919976Y0501063D03*
X0922575Y0502244D03*
X0923992Y0501772D03*
X0923992Y0501535D03*
X0923756Y0501299D03*
X0923520Y0501063D03*
X0924228Y0502008D03*
X0923756Y0505551D03*
X0923992Y0506732D03*
X0923992Y0506969D03*
X0923992Y0507205D03*
X0926354Y0505787D03*
X0928480Y0505079D03*
X0930843Y0502244D03*
X0930370Y0501535D03*
X0930606Y0497283D03*
X0926827Y0495630D03*
X0924465Y0493504D03*
X0921866Y0494685D03*
X0919504Y0493031D03*
X0918795Y0493976D03*
X0918323Y0494685D03*
X0917850Y0495394D03*
X0917614Y0495630D03*
X0916669Y0497047D03*
X0915488Y0495866D03*
X0914780Y0497520D03*
X0920213Y0497992D03*
X0922102Y0498228D03*
X0923992Y0498228D03*
X0937929Y0500827D03*
X0939583Y0501299D03*
X0940528Y0503425D03*
X0940528Y0503661D03*
X0940528Y0504370D03*
X0940291Y0506260D03*
X0940291Y0507677D03*
X0940291Y0507913D03*
X0940291Y0508150D03*
X0940528Y0508386D03*
X0940291Y0510748D03*
X0940291Y0510984D03*
X0940291Y0511220D03*
X0940291Y0511457D03*
X0939819Y0512165D03*
X0939819Y0512402D03*
X0940055Y0512638D03*
X0940291Y0512874D03*
X0940291Y0513110D03*
X0939583Y0514528D03*
X0939583Y0514764D03*
X0939583Y0515236D03*
X0938402Y0516181D03*
X0937457Y0516890D03*
X0937457Y0517126D03*
X0937693Y0517362D03*
X0937929Y0517598D03*
X0938165Y0518071D03*
X0938874Y0519724D03*
X0938638Y0519961D03*
X0938638Y0520197D03*
X0938638Y0520433D03*
X0938402Y0520669D03*
X0938402Y0520906D03*
X0938165Y0521142D03*
X0937929Y0521614D03*
X0937693Y0521850D03*
X0937457Y0522323D03*
X0936039Y0519488D03*
X0936039Y0519252D03*
X0936039Y0519016D03*
X0936039Y0518780D03*
X0935803Y0518543D03*
X0935803Y0518307D03*
X0936748Y0513583D03*
X0936984Y0512165D03*
X0924465Y0520906D03*
X0933441Y0528701D03*
X0933677Y0528465D03*
D16*
X0932496Y0529409D03*
X0929425Y0525157D03*
X0928953Y0524213D03*
X0928953Y0523976D03*
X0925409Y0522323D03*
X0924937Y0527283D03*
X0919504Y0521142D03*
X0916906Y0520197D03*
X0916906Y0519961D03*
X0912417Y0522087D03*
X0911709Y0519961D03*
X0912181Y0509803D03*
X0912181Y0509567D03*
X0912181Y0506732D03*
X0912181Y0506496D03*
X0922575Y0503898D03*
X0925882Y0506260D03*
X0931787Y0503425D03*
X0932732Y0501535D03*
X0936984Y0505079D03*
X0919976Y0493268D03*
D17*
X0921866Y0494449D03*
X0922811Y0493504D03*
X0921394Y0499882D03*
X0921630Y0501535D03*
X0920921Y0502717D03*
X0919031Y0504606D03*
X0918795Y0504843D03*
X0918323Y0509331D03*
X0915016Y0509567D03*
X0912417Y0505315D03*
X0909110Y0502244D03*
X0909819Y0501299D03*
X0910764Y0499882D03*
X0914543Y0497756D03*
X0925646Y0501063D03*
X0925882Y0501535D03*
X0928244Y0504134D03*
X0928244Y0504370D03*
X0931079Y0502480D03*
X0934858Y0502953D03*
X0939819Y0502244D03*
X0939819Y0502008D03*
X0940055Y0502480D03*
X0940291Y0502717D03*
X0940291Y0502953D03*
X0940764Y0503898D03*
X0940764Y0504134D03*
X0940291Y0505787D03*
X0937693Y0507441D03*
X0937220Y0511693D03*
X0936748Y0512874D03*
X0936984Y0513819D03*
X0936276Y0514291D03*
X0926827Y0512874D03*
X0915488Y0517362D03*
X0916906Y0520433D03*
X0919268Y0523268D03*
X0921157Y0524213D03*
X0921866Y0525866D03*
X0921157Y0528701D03*
X0917142Y0529409D03*
X0916906Y0529173D03*
X0916197Y0531535D03*
X0931079Y0527283D03*
X0932024Y0525157D03*
X0933205Y0528937D03*
X0936512Y0523031D03*
X0925882Y0523504D03*
X0922102Y0520906D03*
X0911236Y0520669D03*
D18*
X0912654Y0521850D03*
X0918087Y0524213D03*
X0918559Y0525394D03*
X0918323Y0527756D03*
X0924701Y0527520D03*
X0924701Y0529173D03*
X0931079Y0529882D03*
X0934858Y0523504D03*
X0931315Y0519488D03*
X0937220Y0504843D03*
X0937220Y0504606D03*
X0937220Y0504134D03*
X0937220Y0503898D03*
X0936748Y0500118D03*
X0931787Y0503661D03*
X0919976Y0493740D03*
X0919976Y0493504D03*
X0916433Y0496102D03*
X0913362Y0498465D03*
X0912181Y0506969D03*
X0912181Y0508858D03*
D19*
X0912535Y0507441D03*
X0912535Y0510984D03*
X0913953Y0513583D03*
X0913953Y0513819D03*
X0921748Y0512638D03*
X0921748Y0512402D03*
X0925291Y0506496D03*
X0929543Y0509567D03*
X0933795Y0508622D03*
X0933795Y0508386D03*
X0932142Y0504370D03*
X0936157Y0503425D03*
X0936394Y0503661D03*
X0931197Y0496811D03*
X0928362Y0495866D03*
X0923638Y0493740D03*
X0927890Y0516890D03*
X0921039Y0520669D03*
X0925055Y0524449D03*
X0925055Y0524685D03*
X0925528Y0525630D03*
X0928126Y0530827D03*
X0928835Y0530591D03*
X0920331Y0529173D03*
X0919386Y0530591D03*
X0934268Y0521850D03*
X0935213Y0523268D03*
D20*
X0931079Y0519016D03*
X0932024Y0518071D03*
X0930843Y0513346D03*
X0927535Y0515945D03*
X0921866Y0513819D03*
X0921630Y0517362D03*
X0914071Y0511929D03*
X0932496Y0507441D03*
X0932496Y0507205D03*
X0932496Y0506969D03*
X0935094Y0509567D03*
X0922339Y0499409D03*
X0922811Y0493976D03*
X0929898Y0496575D03*
D21*
X0923047Y0494213D03*
X0931315Y0505315D03*
X0931315Y0505551D03*
X0931315Y0506024D03*
X0932732Y0507913D03*
X0935331Y0509331D03*
X0935094Y0509803D03*
X0935094Y0510276D03*
X0931079Y0513110D03*
X0915724Y0516181D03*
X0920213Y0522087D03*
X0919504Y0529882D03*
D22*
X0919622Y0531063D03*
X0915843Y0531299D03*
X0915606Y0531063D03*
X0917024Y0523031D03*
X0917496Y0522559D03*
X0920331Y0522559D03*
X0923874Y0523031D03*
X0923874Y0523268D03*
X0923874Y0523504D03*
X0925528Y0526811D03*
X0927181Y0526811D03*
X0927654Y0527283D03*
X0928598Y0529173D03*
X0926000Y0529882D03*
X0924346Y0530354D03*
X0932142Y0524921D03*
X0931906Y0523740D03*
X0936866Y0522795D03*
X0937102Y0522559D03*
X0937575Y0522087D03*
X0938047Y0521378D03*
X0936394Y0520433D03*
X0936157Y0519724D03*
X0936866Y0512402D03*
X0937102Y0511929D03*
X0940173Y0509567D03*
X0940646Y0510039D03*
X0940409Y0508622D03*
X0940173Y0507441D03*
X0940173Y0507205D03*
X0940409Y0506024D03*
X0940173Y0505551D03*
X0940409Y0503189D03*
X0938047Y0501299D03*
X0938047Y0501063D03*
X0937811Y0500591D03*
X0937575Y0500354D03*
X0934740Y0502717D03*
X0934504Y0502480D03*
X0930724Y0500827D03*
X0928362Y0504606D03*
X0928362Y0504843D03*
X0925764Y0501299D03*
X0925528Y0500827D03*
X0925291Y0500591D03*
X0925055Y0500354D03*
X0925055Y0500118D03*
X0922457Y0502008D03*
X0920803Y0502480D03*
X0919622Y0504134D03*
X0921039Y0508858D03*
X0920567Y0511693D03*
X0920567Y0511929D03*
X0917260Y0510984D03*
X0917024Y0510748D03*
X0914898Y0509331D03*
X0912772Y0504606D03*
X0913008Y0504134D03*
X0909937Y0501063D03*
X0910173Y0500827D03*
X0910409Y0500354D03*
X0910646Y0500118D03*
X0908520Y0502953D03*
X0908520Y0503189D03*
X0908283Y0503661D03*
X0908047Y0504134D03*
X0907811Y0504606D03*
X0908756Y0509094D03*
X0908756Y0509331D03*
X0913717Y0518307D03*
X0911591Y0519252D03*
X0910409Y0522559D03*
X0928126Y0519961D03*
X0920331Y0498228D03*
X0917496Y0495866D03*
X0918205Y0494921D03*
X0918441Y0494449D03*
X0918677Y0494213D03*
X0926472Y0495394D03*
X0927890Y0496811D03*
D23*
X0931551Y0497047D03*
X0936039Y0499409D03*
X0936276Y0499646D03*
X0932024Y0504134D03*
X0933913Y0508858D03*
X0933913Y0509094D03*
X0924937Y0519961D03*
X0924701Y0520197D03*
X0924937Y0523740D03*
X0925646Y0525866D03*
X0929189Y0523740D03*
X0929189Y0522087D03*
X0928953Y0521850D03*
X0925882Y0531299D03*
X0918795Y0526811D03*
X0918795Y0526575D03*
X0918795Y0526339D03*
X0918795Y0526102D03*
X0912181Y0523031D03*
X0912654Y0521614D03*
X0912890Y0521378D03*
X0915488Y0517126D03*
X0917850Y0519488D03*
X0912417Y0507205D03*
X0922811Y0504134D03*
X0924937Y0494449D03*
D24*
X0925764Y0494685D03*
X0921748Y0501772D03*
X0923874Y0505315D03*
X0931669Y0503189D03*
X0931669Y0502953D03*
X0934976Y0499173D03*
X0933795Y0498228D03*
X0933559Y0497992D03*
X0937339Y0508858D03*
X0937339Y0509094D03*
X0932614Y0520669D03*
X0934268Y0522087D03*
X0929071Y0524449D03*
X0929071Y0524685D03*
X0929071Y0524921D03*
X0921276Y0519488D03*
X0913953Y0520906D03*
X0913717Y0521142D03*
X0911591Y0520197D03*
X0912299Y0506260D03*
X0911354Y0499646D03*
X0913717Y0498228D03*
D25*
X0909701Y0501535D03*
X0909465Y0501772D03*
X0909228Y0502008D03*
X0912772Y0504370D03*
X0912299Y0505551D03*
X0912299Y0505787D03*
X0915370Y0509803D03*
X0915606Y0510039D03*
X0915843Y0510276D03*
X0916315Y0510512D03*
X0919150Y0504370D03*
X0924583Y0499882D03*
X0926236Y0501772D03*
X0926472Y0502008D03*
X0926709Y0502244D03*
X0926945Y0502480D03*
X0927181Y0502717D03*
X0927417Y0502953D03*
X0927417Y0503189D03*
X0927654Y0503425D03*
X0927890Y0503661D03*
X0928126Y0503898D03*
X0931433Y0502717D03*
X0933795Y0502008D03*
X0934268Y0502244D03*
X0932614Y0497283D03*
X0926236Y0495157D03*
X0926000Y0494921D03*
X0937575Y0506496D03*
X0937575Y0506732D03*
X0937575Y0506969D03*
X0937575Y0507205D03*
X0937575Y0507677D03*
X0937575Y0507913D03*
X0937575Y0508150D03*
X0940409Y0509803D03*
X0937339Y0511457D03*
X0936866Y0512638D03*
X0936157Y0514528D03*
X0935921Y0514764D03*
X0935921Y0519961D03*
X0935921Y0520197D03*
X0932142Y0519961D03*
X0931906Y0519724D03*
X0928362Y0520197D03*
X0928126Y0517126D03*
X0925291Y0519724D03*
X0923165Y0519016D03*
X0919622Y0520906D03*
X0917732Y0524449D03*
X0917732Y0524685D03*
X0917732Y0524921D03*
X0918677Y0528701D03*
X0924110Y0529409D03*
X0925764Y0523976D03*
X0929543Y0526339D03*
X0932850Y0529173D03*
X0912063Y0523268D03*
X0911591Y0519488D03*
D26*
X0911472Y0518543D03*
X0911472Y0518307D03*
X0912181Y0517362D03*
X0912181Y0517126D03*
X0911945Y0516890D03*
X0912417Y0517598D03*
X0912654Y0517835D03*
X0914307Y0517362D03*
X0914071Y0519016D03*
X0913598Y0520197D03*
X0912654Y0522323D03*
X0915488Y0521850D03*
X0916669Y0517362D03*
X0918087Y0514291D03*
X0918795Y0512638D03*
X0919031Y0512402D03*
X0919031Y0512165D03*
X0918795Y0511929D03*
X0921630Y0509331D03*
X0921157Y0508622D03*
X0920685Y0506969D03*
X0920685Y0506732D03*
X0920921Y0506496D03*
X0920921Y0506260D03*
X0921157Y0506024D03*
X0921866Y0505079D03*
X0921630Y0503661D03*
X0921394Y0501299D03*
X0922102Y0501299D03*
X0923992Y0500118D03*
X0924701Y0502244D03*
X0924228Y0502953D03*
X0925409Y0503425D03*
X0930134Y0500591D03*
X0931787Y0500827D03*
X0928953Y0496811D03*
X0923756Y0494921D03*
X0921866Y0495157D03*
X0920213Y0499882D03*
X0918323Y0501535D03*
X0915252Y0502244D03*
X0914780Y0502480D03*
X0911709Y0504134D03*
X0911236Y0504843D03*
X0918559Y0506732D03*
X0918559Y0506969D03*
X0918795Y0506496D03*
X0918795Y0506260D03*
X0919031Y0506024D03*
X0919268Y0505079D03*
X0924465Y0512638D03*
X0924937Y0512638D03*
X0925173Y0512402D03*
X0925646Y0512165D03*
X0926354Y0514291D03*
X0927299Y0514291D03*
X0926591Y0517126D03*
X0925646Y0517598D03*
X0928008Y0517362D03*
X0928480Y0518307D03*
X0927772Y0519724D03*
X0930370Y0519724D03*
X0923756Y0522323D03*
X0922575Y0523031D03*
X0921630Y0524685D03*
X0922339Y0526102D03*
X0921157Y0526575D03*
X0921630Y0528228D03*
X0923283Y0529882D03*
X0917142Y0530591D03*
X0915724Y0528228D03*
X0919504Y0524685D03*
X0920685Y0520197D03*
X0920685Y0519252D03*
X0921394Y0519252D03*
X0922575Y0519252D03*
X0929189Y0510512D03*
X0927772Y0509331D03*
X0935803Y0505551D03*
X0935803Y0505315D03*
X0937929Y0502480D03*
X0940528Y0504843D03*
X0938638Y0509803D03*
X0932496Y0526575D03*
X0931315Y0526339D03*
D27*
X0929425Y0530354D03*
X0925173Y0525394D03*
X0925173Y0525157D03*
X0925173Y0524921D03*
X0924701Y0522795D03*
X0929425Y0522323D03*
X0931079Y0519252D03*
X0919031Y0518307D03*
X0914071Y0514055D03*
X0913835Y0513346D03*
X0912890Y0511220D03*
X0912654Y0507677D03*
X0922811Y0498701D03*
X0922811Y0498465D03*
X0923283Y0504370D03*
X0924228Y0505079D03*
X0925409Y0507913D03*
X0932024Y0504606D03*
X0928480Y0496102D03*
X0920449Y0529409D03*
D28*
X0919386Y0522323D03*
X0915606Y0516417D03*
X0914425Y0512402D03*
X0927654Y0516181D03*
X0931906Y0518307D03*
X0929543Y0496339D03*
D29*
X0931669Y0501063D03*
X0935685Y0503189D03*
X0937102Y0504370D03*
X0938992Y0501772D03*
X0938992Y0501535D03*
X0930252Y0508622D03*
X0930016Y0508858D03*
X0930016Y0509094D03*
X0923874Y0511693D03*
X0917260Y0519724D03*
X0918441Y0525157D03*
X0918205Y0527992D03*
X0918205Y0528228D03*
X0918913Y0530827D03*
X0917024Y0531772D03*
X0926236Y0526102D03*
X0928598Y0521142D03*
X0928598Y0520906D03*
X0931906Y0529646D03*
X0912299Y0510039D03*
X0912063Y0509331D03*
X0912063Y0509094D03*
X0911591Y0499409D03*
X0916079Y0496811D03*
X0916079Y0496575D03*
X0916315Y0496339D03*
D30*
X0914071Y0497992D03*
X0912181Y0506024D03*
X0917142Y0511220D03*
X0918795Y0509567D03*
X0923756Y0511929D03*
X0926354Y0507205D03*
X0926354Y0506969D03*
X0926354Y0506732D03*
X0925882Y0506024D03*
X0930370Y0508386D03*
X0937457Y0508386D03*
X0937457Y0508622D03*
X0937693Y0506260D03*
X0937457Y0506024D03*
X0937457Y0505787D03*
X0937220Y0505551D03*
X0937220Y0505315D03*
X0933441Y0501772D03*
X0934622Y0498937D03*
X0934386Y0498701D03*
X0934150Y0498465D03*
X0933205Y0497756D03*
X0932969Y0497520D03*
X0937457Y0511220D03*
X0932260Y0520197D03*
X0932496Y0520433D03*
X0928480Y0520433D03*
X0928480Y0520669D03*
X0925882Y0524213D03*
X0921630Y0523268D03*
X0918559Y0528465D03*
X0911000Y0522795D03*
X0911472Y0520433D03*
X0911709Y0519724D03*
D31*
X0912299Y0510748D03*
X0912063Y0510512D03*
X0912063Y0510276D03*
X0912063Y0499173D03*
X0912299Y0498937D03*
X0912772Y0498701D03*
X0921748Y0500591D03*
X0931906Y0501299D03*
X0931906Y0503898D03*
X0929780Y0509331D03*
X0936630Y0499882D03*
X0928598Y0521378D03*
X0928835Y0521614D03*
X0925055Y0522559D03*
X0918677Y0525630D03*
X0918677Y0525866D03*
X0918677Y0527047D03*
X0918677Y0527283D03*
X0918441Y0527520D03*
X0918677Y0532717D03*
X0925528Y0531535D03*
X0930724Y0530118D03*
D32*
X0927181Y0531063D03*
X0926000Y0527047D03*
X0930488Y0526102D03*
X0930488Y0525866D03*
X0929543Y0522559D03*
X0934268Y0521614D03*
X0921512Y0516181D03*
X0921512Y0515945D03*
X0921512Y0515709D03*
X0921748Y0512874D03*
X0924583Y0509094D03*
X0924819Y0508858D03*
X0925291Y0508386D03*
X0925528Y0507677D03*
X0925528Y0507441D03*
X0921748Y0500827D03*
X0922929Y0499173D03*
X0922929Y0498937D03*
X0912772Y0507913D03*
X0912772Y0508150D03*
X0912772Y0508622D03*
X0913953Y0514291D03*
X0920331Y0523504D03*
X0919858Y0528937D03*
D33*
X0919386Y0529646D03*
X0919622Y0530118D03*
X0920331Y0521850D03*
X0917496Y0519016D03*
X0921748Y0517598D03*
X0924583Y0518307D03*
X0930961Y0514055D03*
X0932850Y0517835D03*
X0934976Y0510512D03*
X0922220Y0499646D03*
X0914189Y0511693D03*
X0929780Y0527520D03*
D34*
X0930606Y0525630D03*
X0932969Y0517126D03*
X0933205Y0516890D03*
X0925173Y0508622D03*
X0925409Y0508150D03*
X0923520Y0504606D03*
X0932024Y0504843D03*
X0913835Y0512638D03*
X0913835Y0512874D03*
X0913598Y0513110D03*
X0914071Y0514528D03*
X0915488Y0516890D03*
X0921630Y0516417D03*
X0919740Y0523976D03*
X0912890Y0508386D03*
D35*
X0923638Y0504843D03*
X0924346Y0509331D03*
X0927890Y0516654D03*
X0933559Y0516654D03*
X0934268Y0521378D03*
X0929780Y0522795D03*
X0930488Y0525394D03*
X0919858Y0523740D03*
X0917969Y0519252D03*
X0918677Y0518543D03*
X0931906Y0505079D03*
D36*
X0931433Y0505787D03*
X0931433Y0506260D03*
X0931433Y0506496D03*
X0932614Y0507677D03*
X0932614Y0508150D03*
X0935213Y0510039D03*
X0921748Y0517835D03*
D37*
X0921630Y0517126D03*
X0921866Y0513583D03*
X0924228Y0509567D03*
X0927772Y0516417D03*
X0932969Y0517598D03*
X0933677Y0515945D03*
X0929898Y0523031D03*
X0929898Y0523268D03*
X0914071Y0512165D03*
X0932024Y0506732D03*
D38*
X0924583Y0509803D03*
D39*
X0924465Y0510039D03*
D40*
X0924583Y0510276D03*
X0930488Y0515709D03*
X0928126Y0518780D03*
D41*
X0924110Y0510984D03*
X0923874Y0510748D03*
X0923638Y0510512D03*
D42*
X0922102Y0514291D03*
X0930606Y0512165D03*
X0935094Y0510748D03*
D43*
X0934976Y0510984D03*
X0914661Y0511457D03*
X0926945Y0528701D03*
X0920331Y0532480D03*
D44*
X0934150Y0521142D03*
X0932969Y0517362D03*
X0933677Y0516417D03*
X0933677Y0516181D03*
X0933677Y0511220D03*
X0922339Y0512165D03*
X0921866Y0513110D03*
X0921866Y0513346D03*
X0921630Y0516654D03*
X0918323Y0518780D03*
D45*
X0924465Y0511220D03*
D46*
X0927772Y0511457D03*
D47*
X0930961Y0511693D03*
D48*
X0931079Y0511929D03*
X0930606Y0512638D03*
X0927299Y0528465D03*
X0920213Y0532244D03*
D49*
X0930252Y0512402D03*
D50*
X0931315Y0512874D03*
X0922102Y0514055D03*
X0915724Y0515709D03*
X0915724Y0515945D03*
X0926591Y0528937D03*
X0923283Y0531772D03*
D51*
X0919386Y0530354D03*
X0923638Y0521142D03*
X0921512Y0516890D03*
X0915606Y0516654D03*
X0930252Y0514291D03*
X0930488Y0513819D03*
X0930488Y0513583D03*
X0934268Y0520906D03*
X0930016Y0523504D03*
D52*
X0925173Y0514528D03*
D53*
X0922457Y0514764D03*
D54*
X0924465Y0515000D03*
X0924465Y0515236D03*
D55*
X0928126Y0518543D03*
X0930252Y0515472D03*
D56*
X0917732Y0515472D03*
D57*
X0922102Y0518071D03*
D58*
X0922929Y0520433D03*
D59*
X0922220Y0521378D03*
D60*
X0921630Y0521614D03*
D61*
X0927890Y0527756D03*
X0927890Y0527992D03*
D62*
X0927535Y0528228D03*
D63*
X0920685Y0532008D03*
D64*
X0914810Y0065089D02*
X0913597Y0065089D01*
X0912990Y0064483D01*
X0912990Y0063876D01*
X0913597Y0063269D01*
X0912990Y0062663D01*
X0912990Y0062056D01*
X0913597Y0061449D01*
X0914810Y0061449D01*
X0915417Y0062056D01*
X0914204Y0063269D02*
X0913597Y0063269D01*
X0911792Y0062056D02*
X0909365Y0064483D01*
X0909365Y0062056D01*
X0909972Y0061449D01*
X0911185Y0061449D01*
X0911792Y0062056D01*
X0911792Y0064483D01*
X0911185Y0065089D01*
X0909972Y0065089D01*
X0909365Y0064483D01*
X0905968Y0064483D02*
X0905361Y0065089D01*
X0904148Y0065089D01*
X0903541Y0064483D01*
X0903541Y0063876D01*
X0905968Y0061449D01*
X0903541Y0061449D01*
X0902343Y0062056D02*
X0901736Y0061449D01*
X0900523Y0061449D01*
X0899916Y0062056D01*
X0899916Y0064483D01*
X0900523Y0065089D01*
X0901736Y0065089D01*
X0902343Y0064483D01*
X0902343Y0063876D01*
X0901736Y0063269D01*
X0899916Y0063269D01*
X0896126Y0064483D02*
X0895519Y0065089D01*
X0894306Y0065089D01*
X0893699Y0064483D01*
X0893699Y0063876D01*
X0896126Y0061449D01*
X0893699Y0061449D01*
X0892500Y0062056D02*
X0892500Y0062663D01*
X0891894Y0063269D01*
X0890680Y0063269D01*
X0890074Y0062663D01*
X0890074Y0062056D01*
X0890680Y0061449D01*
X0891894Y0061449D01*
X0892500Y0062056D01*
X0891894Y0063269D02*
X0892500Y0063876D01*
X0892500Y0064483D01*
X0891894Y0065089D01*
X0890680Y0065089D01*
X0890074Y0064483D01*
X0890074Y0063876D01*
X0890680Y0063269D01*
X0886283Y0064483D02*
X0885676Y0065089D01*
X0884463Y0065089D01*
X0883856Y0064483D01*
X0883856Y0063876D01*
X0886283Y0061449D01*
X0883856Y0061449D01*
X0882658Y0061449D02*
X0882658Y0062056D01*
X0880231Y0064483D01*
X0880231Y0065089D01*
X0882658Y0065089D01*
X0876441Y0064483D02*
X0875834Y0065089D01*
X0874620Y0065089D01*
X0874014Y0064483D01*
X0874014Y0063876D01*
X0876441Y0061449D01*
X0874014Y0061449D01*
X0872815Y0062056D02*
X0872209Y0061449D01*
X0870995Y0061449D01*
X0870389Y0062056D01*
X0870389Y0062663D01*
X0870995Y0063269D01*
X0872815Y0063269D01*
X0872815Y0062056D01*
X0872815Y0063269D02*
X0871602Y0064483D01*
X0870389Y0065089D01*
X0866598Y0064483D02*
X0865991Y0065089D01*
X0864778Y0065089D01*
X0864171Y0064483D01*
X0864171Y0063876D01*
X0866598Y0061449D01*
X0864171Y0061449D01*
X0862973Y0062056D02*
X0862366Y0061449D01*
X0861153Y0061449D01*
X0860546Y0062056D01*
X0860546Y0063269D01*
X0861153Y0063876D01*
X0861760Y0063876D01*
X0862973Y0063269D01*
X0862973Y0065089D01*
X0860546Y0065089D01*
X0856756Y0064483D02*
X0856149Y0065089D01*
X0854935Y0065089D01*
X0854329Y0064483D01*
X0854329Y0063876D01*
X0856756Y0061449D01*
X0854329Y0061449D01*
X0853130Y0063269D02*
X0850704Y0063269D01*
X0851310Y0061449D02*
X0851310Y0065089D01*
X0853130Y0063269D01*
X0846913Y0064483D02*
X0846306Y0065089D01*
X0845093Y0065089D01*
X0844486Y0064483D01*
X0844486Y0063876D01*
X0846913Y0061449D01*
X0844486Y0061449D01*
X0843288Y0062056D02*
X0842681Y0061449D01*
X0841468Y0061449D01*
X0840861Y0062056D01*
X0840861Y0062663D01*
X0841468Y0063269D01*
X0842074Y0063269D01*
X0841468Y0063269D02*
X0840861Y0063876D01*
X0840861Y0064483D01*
X0841468Y0065089D01*
X0842681Y0065089D01*
X0843288Y0064483D01*
X0837070Y0064483D02*
X0836464Y0065089D01*
X0835250Y0065089D01*
X0834644Y0064483D01*
X0834644Y0063876D01*
X0837070Y0061449D01*
X0834644Y0061449D01*
X0833445Y0061449D02*
X0831019Y0063876D01*
X0831019Y0064483D01*
X0831625Y0065089D01*
X0832839Y0065089D01*
X0833445Y0064483D01*
X0833445Y0061449D02*
X0831019Y0061449D01*
X0826834Y0061449D02*
X0824408Y0063876D01*
X0824408Y0064483D01*
X0825014Y0065089D01*
X0826228Y0065089D01*
X0826834Y0064483D01*
X0826834Y0061449D02*
X0824408Y0061449D01*
X0823209Y0061449D02*
X0820782Y0061449D01*
X0821996Y0061449D02*
X0821996Y0065089D01*
X0823209Y0063876D01*
X0817385Y0064483D02*
X0816779Y0065089D01*
X0815565Y0065089D01*
X0814959Y0064483D01*
X0814959Y0063876D01*
X0817385Y0061449D01*
X0814959Y0061449D01*
X0813760Y0062056D02*
X0811334Y0064483D01*
X0811334Y0062056D01*
X0811940Y0061449D01*
X0813154Y0061449D01*
X0813760Y0062056D01*
X0813760Y0064483D01*
X0813154Y0065089D01*
X0811940Y0065089D01*
X0811334Y0064483D01*
X0807543Y0063876D02*
X0806330Y0065089D01*
X0806330Y0061449D01*
X0807543Y0061449D02*
X0805116Y0061449D01*
X0803918Y0062056D02*
X0803311Y0061449D01*
X0802098Y0061449D01*
X0801491Y0062056D01*
X0801491Y0064483D01*
X0802098Y0065089D01*
X0803311Y0065089D01*
X0803918Y0064483D01*
X0803918Y0063876D01*
X0803311Y0063269D01*
X0801491Y0063269D01*
X0798094Y0063876D02*
X0796881Y0065089D01*
X0796881Y0061449D01*
X0798094Y0061449D02*
X0795667Y0061449D01*
X0794469Y0062056D02*
X0794469Y0062663D01*
X0793862Y0063269D01*
X0792649Y0063269D01*
X0792042Y0062663D01*
X0792042Y0062056D01*
X0792649Y0061449D01*
X0793862Y0061449D01*
X0794469Y0062056D01*
X0793862Y0063269D02*
X0794469Y0063876D01*
X0794469Y0064483D01*
X0793862Y0065089D01*
X0792649Y0065089D01*
X0792042Y0064483D01*
X0792042Y0063876D01*
X0792649Y0063269D01*
X0787858Y0063876D02*
X0786645Y0065089D01*
X0786645Y0061449D01*
X0787858Y0061449D02*
X0785431Y0061449D01*
X0784233Y0061449D02*
X0784233Y0062056D01*
X0781806Y0064483D01*
X0781806Y0065089D01*
X0784233Y0065089D01*
X0777622Y0063876D02*
X0776408Y0065089D01*
X0776408Y0061449D01*
X0775195Y0061449D02*
X0777622Y0061449D01*
X0773997Y0062056D02*
X0773390Y0061449D01*
X0772176Y0061449D01*
X0771570Y0062056D01*
X0771570Y0062663D01*
X0772176Y0063269D01*
X0773997Y0063269D01*
X0773997Y0062056D01*
X0773997Y0063269D02*
X0772783Y0064483D01*
X0771570Y0065089D01*
X0768173Y0063876D02*
X0766959Y0065089D01*
X0766959Y0061449D01*
X0765746Y0061449D02*
X0768173Y0061449D01*
X0764548Y0062056D02*
X0763941Y0061449D01*
X0762728Y0061449D01*
X0762121Y0062056D01*
X0762121Y0063269D01*
X0762728Y0063876D01*
X0763334Y0063876D01*
X0764548Y0063269D01*
X0764548Y0065089D01*
X0762121Y0065089D01*
X0757937Y0063876D02*
X0756723Y0065089D01*
X0756723Y0061449D01*
X0755510Y0061449D02*
X0757937Y0061449D01*
X0754311Y0063269D02*
X0751885Y0063269D01*
X0752491Y0061449D02*
X0752491Y0065089D01*
X0754311Y0063269D01*
X0748488Y0063876D02*
X0747274Y0065089D01*
X0747274Y0061449D01*
X0746061Y0061449D02*
X0748488Y0061449D01*
X0744863Y0062056D02*
X0744256Y0061449D01*
X0743043Y0061449D01*
X0742436Y0062056D01*
X0742436Y0062663D01*
X0743043Y0063269D01*
X0743649Y0063269D01*
X0743043Y0063269D02*
X0742436Y0063876D01*
X0742436Y0064483D01*
X0743043Y0065089D01*
X0744256Y0065089D01*
X0744863Y0064483D01*
X0738252Y0063876D02*
X0737038Y0065089D01*
X0737038Y0061449D01*
X0735825Y0061449D02*
X0738252Y0061449D01*
X0734626Y0061449D02*
X0732200Y0063876D01*
X0732200Y0064483D01*
X0732806Y0065089D01*
X0734020Y0065089D01*
X0734626Y0064483D01*
X0734626Y0061449D02*
X0732200Y0061449D01*
X0728409Y0061449D02*
X0725982Y0061449D01*
X0724784Y0061449D02*
X0722357Y0061449D01*
X0723571Y0061449D02*
X0723571Y0065089D01*
X0724784Y0063876D01*
X0727196Y0065089D02*
X0727196Y0061449D01*
X0728409Y0063876D02*
X0727196Y0065089D01*
X0719354Y0063876D02*
X0718141Y0065089D01*
X0718141Y0061449D01*
X0719354Y0061449D02*
X0716927Y0061449D01*
X0715729Y0062056D02*
X0713302Y0064483D01*
X0713302Y0062056D01*
X0713909Y0061449D01*
X0715122Y0061449D01*
X0715729Y0062056D01*
X0715729Y0064483D01*
X0715122Y0065089D01*
X0713909Y0065089D01*
X0713302Y0064483D01*
X0707543Y0064483D02*
X0707543Y0063876D01*
X0706936Y0063269D01*
X0705116Y0063269D01*
X0705116Y0062056D02*
X0705116Y0064483D01*
X0705723Y0065089D01*
X0706936Y0065089D01*
X0707543Y0064483D01*
X0707543Y0062056D02*
X0706936Y0061449D01*
X0705723Y0061449D01*
X0705116Y0062056D01*
X0697700Y0062056D02*
X0697700Y0062663D01*
X0697094Y0063269D01*
X0695880Y0063269D01*
X0695274Y0062663D01*
X0695274Y0062056D01*
X0695880Y0061449D01*
X0697094Y0061449D01*
X0697700Y0062056D01*
X0697094Y0063269D02*
X0697700Y0063876D01*
X0697700Y0064483D01*
X0697094Y0065089D01*
X0695880Y0065089D01*
X0695274Y0064483D01*
X0695274Y0063876D01*
X0695880Y0063269D01*
X0687464Y0062056D02*
X0687464Y0061449D01*
X0687464Y0062056D02*
X0685037Y0064483D01*
X0685037Y0065089D01*
X0687464Y0065089D01*
X0677622Y0063269D02*
X0677622Y0062056D01*
X0677015Y0061449D01*
X0675802Y0061449D01*
X0675195Y0062056D01*
X0675195Y0062663D01*
X0675802Y0063269D01*
X0677622Y0063269D01*
X0676408Y0064483D01*
X0675195Y0065089D01*
X0667779Y0065089D02*
X0667779Y0063269D01*
X0666566Y0063876D01*
X0665959Y0063876D01*
X0665352Y0063269D01*
X0665352Y0062056D01*
X0665959Y0061449D01*
X0667172Y0061449D01*
X0667779Y0062056D01*
X0667779Y0065089D02*
X0665352Y0065089D01*
X0657543Y0063269D02*
X0655116Y0063269D01*
X0655723Y0061449D02*
X0655723Y0065089D01*
X0657543Y0063269D01*
X0648094Y0062056D02*
X0647487Y0061449D01*
X0646274Y0061449D01*
X0645667Y0062056D01*
X0645667Y0062663D01*
X0646274Y0063269D01*
X0646881Y0063269D01*
X0646274Y0063269D02*
X0645667Y0063876D01*
X0645667Y0064483D01*
X0646274Y0065089D01*
X0647487Y0065089D01*
X0648094Y0064483D01*
X0638252Y0064483D02*
X0637645Y0065089D01*
X0636432Y0065089D01*
X0635825Y0064483D01*
X0635825Y0063876D01*
X0638252Y0061449D01*
X0635825Y0061449D01*
X0628409Y0061449D02*
X0625982Y0061449D01*
X0627196Y0061449D02*
X0627196Y0065089D01*
X0628409Y0063876D01*
X0914810Y0065089D02*
X0915417Y0064483D01*
M02*
